<mxfile host="app.diagrams.net" modified="2023-08-24T10:37:22.551Z" agent="Mozilla/5.0 (Windows NT 10.0; Win64; x64) AppleWebKit/537.36 (KHTML, like Gecko) Chrome/116.0.0.0 Safari/537.36" etag="yWSAUgLOCg5VFaUvblcJ" version="21.6.8" type="github">
  <diagram name="Page-1" id="vKQDQu_M1mfuU2FbJF4d">
    <mxGraphModel dx="1750" dy="2068" grid="1" gridSize="10" guides="1" tooltips="1" connect="1" arrows="1" fold="1" page="1" pageScale="1" pageWidth="850" pageHeight="1100" math="0" shadow="0">
      <root>
        <mxCell id="0" />
        <mxCell id="1" parent="0" />
        <mxCell id="b0nKwenx1U3mnscmwECZ-1" value="" style="shape=image;verticalLabelPosition=bottom;labelBackgroundColor=default;verticalAlign=top;aspect=fixed;imageAspect=0;image=data:image/png,iVBORw0KGgoAAAANSUhEUgAAA/AAAAPwCAYAAACWX5UOAAAABHNCSVQICAgIfAhkiAAAAAlwSFlzAAALEgAACxIB0t1+/AAAADh0RVh0U29mdHdhcmUAbWF0cGxvdGxpYiB2ZXJzaW9uMy4yLjEsIGh0dHA6Ly9tYXRwbG90bGliLm9yZy+j8jraAAAgAElEQVR4nOzd55Mcd2Lm+Sd9mXZAN7w3BEA79G68qNFoJa12Q7EXcS/ur7p39+peXNzFvrnVrTQh6UZzo5FGtEMSJIcEaACQhEcDaLSpLpfuXqTprOpyDTRI5Mb3E4FAm+rMrMyszN/zc2nEcRwLAAAAAAA80szvewMAAAAAAMB4BHgAAAAAAEqAAA8AAAAAQAkQ4AEAAAAAKAECPAAAAAAAJUCABwAAAACgBAjwAAAAAACUAAEeAAAAAIASIMADAAAAAFACBHgAAAAAAEqAAA8AAAAAQAkQ4AEAAAAAKAECPAAAAAAAJUCABwAAAACgBAjwAAAAAACUAAEeAAAAAIASIMADAAAAAFACBHgAAAAAAEqAAA8AAAAAQAkQ4AEAAAAAKAECPAAAAAAAJUCABwAAAACgBAjwAAAAAACUAAEeAAAAAIASIMADAAAAAFACBHgAAAAAAEqAAA8AAAAAQAkQ4AEAAAAAKAECPAAAAAAAJUCABwAAAACgBAjwAAAAAACUAAEeAAAAAIASIMADAAAAAFACBHgAAAAAAEqAAA8AAAAAQAkQ4AEAAAAAKAECPAAAAAAAJUCABwAAAACgBAjwAAAAAACUAAEeAAAAAIASIMADAAAAAFACBHgAAAAAAEqAAA8AAAAAQAkQ4AEAAAAAKAECPAAAAAAAJUCABwAAAACgBAjwAAAAAACUAAEeAAAAAIASIMADAAAAAFACBHgAAAAAAEqAAA8AAAAAQAkQ4AEAAAAAKAECPAAAAAAAJUCABwAAAACgBAjwAAAAAACUAAEeAAAAAIASIMADAAAAAFACBHgAAAAAAEqAAA8AAAAAQAkQ4AEAAAAAKAECPAAAAAAAJUCABwAAAACgBAjwAAAAAACUAAEeAAAAAIASIMADAAAAAFACBHgAAAAAAEqAAA8AAAAAQAkQ4AEAAAAAKAECPAAAAAAAJUCABwAAAACgBAjwAAAAAACUAAEeAAAAAIASIMADAAAAAFACBHgAAAAAAEqAAA8AAAAAQAkQ4AEAAAAAKAECPAAAAAAAJUCABwAAAACgBAjwAAAAAACUAAEeAAAAAIASIMADAAAAAFACBHgAAAAAAEqAAA8AAAAAQAkQ4AEAAAAAKAECPAAAAAAAJUCABwAAAACgBAjwAAAAAACUAAEeAAAAAIASIMADAAAAAFACBHgAAAAAAEqAAA8AAAAAQAkQ4AEAAAAAKAECPAAAAAAAJUCABwAAAACgBAjwAAAAAACUAAEeAAAAAIASIMADAAAAAFACBHgAAAAAAEqAAA8AAAAAQAkQ4AEAAAAAKAECPAAAAAAAJUCABwAAAACgBAjwAAAAAACUAAEeAAAAAIASIMADAAAAAFACBHgAAAAAAEqAAA8AAAAAQAkQ4AEAAAAAKAECPAAAAAAAJUCABwAAAACgBAjwAAAAAACUAAEeAAAAAIASIMADAAAAAFACBHgAAAAAAEqAAA8AAAAAQAkQ4AEAAAAAKAECPAAAAAAAJUCABwAAAACgBAjwAAAAAACUAAEeAAAAAIASIMADAAAAAFACBHgAAAAAAEqAAA8AAAAAQAkQ4AEAAAAAKAECPAAAAAAAJUCABwAAAACgBAjwAAAAAACUAAEeAAAAAIASIMADAAAAAFACBHgAAAAAAEqAAA8AAAAAQAkQ4AEAAAAAKAECPAAAAAAAJUCABwAAAACgBAjwAAAAAACUAAEeAAAAAIASIMADAAAAAFACBHgAAAAAAEqAAA8AAAAAQAkQ4AEAAAAAKAECPAAAAAAAJUCABwAAAACgBAjwAAAAAACUAAEeAAAAAIASIMADAAAAAFACBHgAAAAAAEqAAA8AAAAAQAkQ4AEAAAAAKAECPAAAAAAAJUCABwAAAACgBAjwAAAAAACUAAEeAAAAAIASIMADAAAAAFACBHgAAAAAAEqAAA8AAAAAQAkQ4AEAAAAAKAECPAAAAAAAJUCABwAAAACgBAjwAAAAAACUAAEeAAAAAIASIMADAAAAAFACBHgAAAAAAEqAAA8AAAAAQAkQ4AEAAAAAKAECPAAAAAAAJUCABwAAAACgBAjwAAAAAACUAAEeAAAAAIASIMADAAAAAFACBHgAAAAAAEqAAA8AAAAAQAkQ4AEAAAAAKAECPAAAAAAAJUCABwAAAACgBAjwAAAAAACUAAEeAAAAAIASIMADAAAAAFACBHgAAAAAAEqAAA8AAAAAQAkQ4AEAAAAAKAECPAAAAAAAJUCABwAAAACgBAjwAAAAAACUAAEeAAAAAIASIMADAAAAAFACBHgAAAAAAEqAAA8AAAAAQAkQ4AEAAAAAKAECPAAAAAAAJUCABwAAAACgBAjwAAAAAACUAAEeAAAAAIASIMADAAAAAFACBHgAAAAAAEqAAA8AAAAAQAkQ4AEAAAAAKAECPAAAAAAAJUCABwAAAACgBAjwAAAAAACUAAEeAAAAAIASIMADAAAAAFACBHgAAAAAAEqAAA8AAAAAQAkQ4AEAAAAAKAECPAAAAAAAJUCABwAAAACgBAjwAAAAAACUAAEeAAAAAIASIMADAAAAAFACBHgAAAAAAEqAAA8AAAAAQAkQ4AEAAAAAKAECPAAAAAAAJUCABwAAAACgBAjwAAAAAACUAAEeAAAAAIASIMADAAAAAFACBHgAAAAAAEqAAA8AAAAAQAkQ4AEAAAAAKAECPAAAAAAAJUCABwAAAACgBAjwAAAAAACUAAEeAAAAAIASIMADAAAAAFACBHgAAAAAAEqAAA8AAAAAQAkQ4AEAAAAAKAECPAAAAAAAJUCABwAAAACgBAjwAAAAAACUAAEeAAAAAIASIMADAAAAAFACBHgAAAAAAEqAAA8AAAAAQAkQ4AEAAAAAKAECPAAAAAAAJUCABwAAAACgBAjwAAAAAACUAAEeAAAAAIASIMADAAAAAFACBHgAAAAAAEqAAA8AAAAAQAkQ4AEAAAAAKAECPAAAAAAAJUCABwAAAACgBAjwAAAAAACUAAEeAAAAAIASIMADAAAAAFACBHgAAAAAAEqAAA8AAAAAQAkQ4AEAAAAAKAECPAAAAAAAJUCABwAAAACgBAjwAAAAAACUAAEeAAAAAIASIMADAAAAAFACBHgAAAAAAEqAAA8AAAAAQAkQ4AEAAAAAKAECPAAAAAAAJUCABwAAAACgBAjwAAAAAACUAAEeAAAAAIASIMADAAAAAFACBHgAAAAAAEqAAA8AAAAAQAkQ4AEAAAAAKAECPAAAAAAAJUCABwAAAACgBAjwAAAAAACUAAEeAAAAAIASIMADAAAAAFACBHgAAAAAAEqAAA8AAAAAQAkQ4AEAAAAAKAECPAAAAAAAJUCABwAAAACgBAjwAAAAAACUAAEeAAAAAIASIMADAAAAAFACBHgAAAAAAEqAAA8AAAAAQAkQ4AEAAAAAKAECPAAAAAAAJUCABwAAAACgBAjwAAAAAACUAAEeAAAAAIASIMADAAAAAFACBHgAAAAAAEqAAA8AAAAAQAkQ4AEAAAAAKAECPAAAAAAAJUCABwAAAACgBAjwAAAAAACUAAEeAAAAAIASIMADAAAAAFACBHgAAAAAAEqAAA8AAAAAQAkQ4AEAAAAAKAECPAAAAAAAJUCABwAAAACgBAjwAAAAAACUAAEeAAAAAIASIMADAAAAAFACBHgAAAAAAEqAAA8AAAAAQAkQ4AEAAAAAKAECPAAAAAAAJUCABwAAAACgBOzvewMAfP9M03qoy4/jWIZhjP1Z/+8l9bym+DeDvu7/f9Sy+n8+bHvGbeek2zbotZOsc9L1jxNF4cSv3e7zYdTxeND9O+5vtrKecefpJOfsqHNyq9uSvX6SdW/VVs4H6eFeI7L3mtnKtWKrn6FB5+Kkyx73uR3nft7Hd2kr54RhbH/7T/Fz8rANW9d3uQ3DDLpuTPo32ymOo4lf+zCuD4OugZn+a2r/7/tf833ov1aMus6NKydMuvytlH+2aqv3DDxctMADeOiG3cD69d+gs5vRJDfhUTe7bFnDfj7sb+8nXGbL7f+6/70N+11xW7ZaiHvUDdsHw47xoNcX/yZ7zaDjlr0ue61pmiP341b38bDzLPvdoMJZ/7k2bLv7t/1RCHffheJ7zgz6uvh//74c9PWofTeooNv/u0nPjXGv61/esPN7K/5HuTYUPxuTHq+t7rNhx3qSc+C7NOj8GKb/nHqQ/fMoKH5+x4XQcZ/P7zu8Fw06t0fd8waF8XEBv/++WNyW/5HKEUgQ4AF8Z0bdfEfVQPff9EYVtAe9tvhv3HYVt2mUcYXvrYSBQTfXYWGmLDfhUe+zGLr6j/GwVpZhoW6QYZUx/d8PKuSM2oZRlQjF5Y4qRI9qORpVyTTqvZTFqO0etG/7Kz6yZQyrdBtXqTLo+0m2sb8APSwYTVJI7i+QP8ixzCqmBv28LCa5vmevy35ffG3xd8OW3//6UT/v9yjsy0HXgHHXjkEtsY+64vb2V8QN+9xutZLtuzKq8rD/XjPqWjTsWjfoujjsGjco4KP8CPAAvnOTFNAG3bRHtVz3h/ji3xT/jQp2/QXrSQuGg5Y3LNSPKvyPWk5ZCmPjCtX9LW2ThO3i3xW/H7eeUa+930AwaB3DlttfOBtWqBt3LvV/XYbzYBKTBvpJCqbFY1H817+8rVaWjNreQd+POzbDzuNhy9zKsoYt81HVX5E3yv2G7EHnSP/fPIr7a9x5MWkFVFkC26DPdPb/sHvpqJBcNO5z3f/aQd9Per8Z9rphZZZh98Fx17pxFV3Z16Mql1FujIEH8EAG1RIPCp39LU/Zz4r/Z78b1Yo5rvVqWKF93A141HK2or+QOOx99BtX0Nrq9j8KikG9+LNxr+8vmI0rhAxrfXoY278Vw87lSbdtXEVSWQpkg64D/RVt/a1Eg/b7sJaoQV8P8yD7a1ThfqvHYlBFQlmO53aY5HOwXa+RJg/5j0LgHRS8xul/D4/C+5jEuIqIBz22/Z/N/uvFqOvJg3weDcNUcQ6BUZUN/de7cdf8wesbXyF9P9cpPLoI8AAeyLgwVbw5jSp430+LyKjXTVqwf1g3s/4b5aja9UGVEqMqQR7V1qNhoXvY94MC3KCwfj+FjmH7svi7SSoC7tewAuOwFuBJW//7C6NlK5ANOuZF4wrugz4Do9ZV/H/SVstJjHsfwww67++3gmbQNaYs58K40Lwdwfx+t+n79iDb8ai8h0l8F9taLH+YpinTtGRZjlzHk+fVZDtu+nM7f51hmIqiUFEUKYoC+X5XQdBVGPiK4khhGGxaT/+1JluGJEVRpDjO/vX3ytr8s/utSBrVoNFfDivLdQLDEeABbMmwFvdBPxu3nKKthvatBzpz098Naq3ov6He7810VKvzuO+LP+vfnw8Sah+WQaF7XGga97v+sNsfXLOCVvH7YYFm0mM57PX9E+Al50fU8x7uN2yMqtgYdHy3s5LhYRrV2rQdy5Z6zwvTNGUYZvK1Ycq0bDm2mxbQkxmyoyhUHMdJYTwMBhbE0xVsfKnJz5fiz4vnx6iKy/5lFY0L7/0e1XNhlAepVHlUWsy/b2XcD9u7vbGk3nM/uR4YMk1LlUpdMzPzmpraoVptVpVKXZVKXa5bketWZduOLCu9l6T/x3GsKIjk+135fkfdbku+35HfbSsIg/xakrEsW3Ec5dca0zQVRZEMw0grApLXh6GvIPDl+x11Ok212+tqtxpqd9bzoB9Fk8/+n++BAeWpQeWY4r0Z5UaAB7Blg1pNh7Uo9n/db1Dwz0JTFtKyG7FtO7JMW6Zl5+tLaspDBYGf1Hhn6zKM/OtiIdwo3ugNQ4ZixUZc+LmlWMO7cA/eD5tr0Yuv2WoBa5J9N0l3u+/CoJaD+3nPo2ThzDRNOY6nWm1WU1Nzqlam5HoVWZYj23ZkyFCUFoCSc6KrwO+q1W4kBaX2urrdVlpQGjykY1AruWXZyfmRnlNmWliTpDiKFEaBwjBUFAX5+x92TkzScjvo98M+J8N6czwKBlU8ZV8/iP7WtKmpOU1P71StNqNKpS7HqchzK7JsR7bt5teROI4Uhr7CMFQY+up2Wur6HXW77fz86HSa8v2OojTcFysCbNuVZdmybTdff/J+0nMuDBSEvjqd1kaB3+8qioL8fWcte8N60gyrbBp2nL/vz//9GPTeBr2vcbYzBJYxBGeGVeaMuvZ8n0bdH+5vG7PrtCXTtBTHsarVKe3adUjz8wc0O7ug6el5Te2YUqVeke0m0ScOI8VxbyVbHKXnoWkUrv9mT7BXVJxgL9kC0xxd2RZFsaIwUhSG8ruBgm4gv91Vu52E+FarofX1Zd27d0tLSzfU6TTTSsZBj27bXGExaJ3Dvh92XUa5GPGj8GkG8L2a5Bmug266W2ndHCcrlFuWnRbKd2hmeqfqU3OqVqeS7m5ZwdlIQnYS2NJWNb+rrt/Ja7abzVWtr69ofX1ZnU5zgn1gq1Kpq1abVq02K9fx5HoVmaadBLi05jop/AdJ17puR51uS532upqtNbXb6wqCbh4g76cmfSv7a1ABbZiH9Rz4QTX8w86RSRUDmuN4mpvbnRbEdmlqaoc8ryq34sn1HDmeK9NOwr1hGoqjOAnoYaQgCOW3fQVdX91u0g2y222p222r1Wqo1WrkxyyOIzlOJT/XXLcix/HySiMVWi5M08pn/86OdRj6eRBstRpqNO6psXZPjfXl9JwI84qD+zFs/w57rTS6cPawngM/rLX5QSt1iteHilfX/MIBzc8f0MzMvGq1aXleVV7Nk+O5spyN41Pcpv59kRWmu61ufo4kAT/I909SSWDLMm0ZeaVBUqDP1pEFgChIgnwY+AqjoKelrdNpqtG4p7W1Ja2u3s0rkvp7AUz62RlVYTrsd+MK6tv9HPhx16jtC3CTGVbp9bBs5/1x0nVt5ToxzsN4DvywSsdh2zzufVhW8vnMzMws6NDBM9q954hmdySh3au4eYgedDyG9d7atO2FcB9HsYw0tBd/nn1vDAj02c+z/5OK6aTVPwoitdfbaq41tb62qnv3bunK5XO6c/d63mr/oOWrYfeDSUM8z4F/tBDgAWwpwGdfSw9ey18slFer01qYP6CFXQc1Pb0zb0lzPEeOa8u0rbE3/igIFQZRT2Hc97tqpeE6C2tZa73n1VSrzaShrSrHqeStbJZlyrSTIGBm3evSRv0ojHpCYhbgfL+rZnNVS0s3tLR0Q/fu3Ux/FzzUMN+/Twd5WAFeGj/2bhLF1m7H8TQ/f0AHD57W/Pw+1aam5VW9JKBlrSd9LSdD33cY9RSW4lgKg1B+Jwn2YRq6sl4ftmPJdh1ZtinLsfOQ1r94wzAk05CijfcXhpH8djdvYQm6vtrtppaWburu3Wu6efNrtVprI1pWJttP40LBJK3yDyvAZ4a1FN9PZY6dtqTv2XNUBw48pp0796tar8mreXIrSQt7FIabC87F992/3uxkKPxvGIZMyxwYgONoyGzphZY7wzTy5RTfdxSE6nZ8+R1foR+o02lpdfWuFhcv6/r1C2q3G/k5MWkAG/T5etBWte0O8MXtGnbN3s5gO+7zULTd655kndl6H6ZHOcBPck3YSiWL47gyDVNRHGlmZl6PnXxB+/af1NSOKdVnasm9Ou3tUlzfqO170Mqd/u0fdDxGLTu7T3XbXTWW17W6fE+XLn2kK1c+VxB05fvd+9qm7UCAf7QQ4AGMvflOGhK20kKYBbXduw/rwIFTmp8/IMdx5VZc2a6d11Rn6xhVeZB/3R/o0gJ56AcK/LRFPC+IJ93eLMeW7Vgy0hZcwzAUBuHmG7FpJGFwyM2wWPveaXXkd3y1Wmu6detrXb58Xo3GvQcKbuP25zjfRYAfVDCbNIg4jqtKZUqHDz+ho0ef1MyOOXlVT27V27Se7O9GtToW/2bQ9my0phdbXUZXCowq3A1af/ajbrurbttXu9nWncXrunTpIy0uXpbvt7d0PgwriE6yH/p9VwG+aKuVe7btqFKpp+fEU5qamVWlXpFbdfOeFuOW0bM92boH7aMszI9bxpDfDwv2hRdKUl4hFHQDddsddVtdLS5e0cWLZ3X37o18fH7/Mse1xg86t0cZ9LrvMsAXf5dtz6Dfb3X5kvLeO4aRzIfQ9+KeY5P15Mr+38JK0wXEm3+mZP9k22EaZj4sK+/dEcfpcJ/wodwTtsPDaIHfvI7Rk7T2MwqfI9tyZDuuTj32kk6c/IFmFmbkVty8pT0bh178u/71muk9P2sgGHgdN7MwLhmmmRy7KO4pnwxadnYviYJsMrvBM9EPO/ez7W+ttXT31qL++MnvdPv2FQXpMKBh155R98IHCfME+EcLAR7AxAH+fmqn+28YlmXLdSvat++EThx/VrM7F2Q7tmzX7uli1r9+wzA2dVkbF6QG3diKLXT96xn2u/71blrnkN/HcaygGyj0Ay0uXtGXX76ve0s35Kfd7B/EoPc56ub8MAN8/zZspSBmWbZqtRmdPPm8Tp56VlNz9bzlu7hM0zQUFY+JsTkjFX/e//utBpxRyxq1/uLvioXEbNsDP1C33dW9xTv6/PP3dPXqF+p2WwNbd7caeCc5DzLbHeAfNLAXZcH9yJEndfLk85reMSO34shIz4lxIbD482IFXPG6kV9TjGSSKcVxUjjvW07/5yxrpY97xsFu7TqU/jCpYDTNpDeIH+jOzZs6d+4tLd76RkHob7pGTFJQf5BC+sMK8Bt/sz2tw/3nejLEwZIMQ47jyfOqqlZn8onKHMeVJIVhKN9v5+ON19dXk5CaHcd8WFY08lqRz4ehZD/EcSTDMDU1Nafdu49ox449qtfn5LqeTHOje3ccRQpCX77fVrO5ptXVu1q+d1Orq3fV6TTzGc6/q95a4zysAD+qsmaSXhTZ8d6z95ieffYN7dwzL7fqblr+oHuIYZlJt3vHkpX2sOs/xEllfZwGdkNhEOUVvXEs+V0/rcyXbNfpGa6TLSuK4oGVw4EfKPTDpPdX2Lt/i6F/0PW8udrUl+fO6ty5t9K5Orqb/n6YYZW+WylHEOAfLQR4AENvvqNauwcVbEcV4rMJyKand+rJJ3+k/YeObUwmM6RmumcbreGF62JhvLhNUdj7HNZBAX6jdt3oucmHfpj/zaaCdF9X3f6xcYO2MQqT7v3XrlzUuXNvanX1rsIweKAC7VYC6XYF+AcJmb3rMOW6VR058oSeeupHmt09J9ux8/1tFsKaaaZDJNJCUbEh1bBMOa6Tfy9JUbixPVlLRbbcZOKiuHcZQwKhit2xo1iWY+fd7eMwUhRl591G0DcsU3GYzUA+fL9lExpd/+aq/vjHpGWlWCAbV/nxIC2t0vYF+FG9L/pNUqnjOp527T6iZ575qXYf2CfT3hwUi5/1/vVZtiXbtfOhL17VUxiGCrpB3oLWbXdlmqbCMJRX9dRutBT4G/uj/1wwLbPnepJdi7L1xHGs0A8VBuHI99ff2pifNIV943d8fXvhC3366e+1traUj30d1/vjQVvXpO0L8A8a0CdZbtZ92vNqmp3brb17j2lubrfq9TnZdja54OZtiNOeVzINdZot3Vu+pevXv9KNG5cUBN2+146enDUbhnXkyJM6fOhxzczu3Pg7K5t8dWM28rzCp3ANMk1DYRhpZeW2bt36RrdufaO1taV8YtZxx37S/XU/tjPADwuQ0uCeRcMq0WzbkefV9MQTr+vUE8+pOl3teV1/eDdNQ47nyqk4sqzsaRQbc5FYVnK9sNJzJvADdZod2Y4t08rmVEmCt9/xFaWf8WzzTDupEMiG+mXHPQpCBWlPvp5J8AplkjCMFPqBuh1foR/2VAoX33+xfBMGoa5e/FbvvfcrrTeW1fU7Q4/x/VwPRoV4AvyjhQAPYOLCefFnk8paSKrVKe3de1xPPvkjzS7MJjfRvhb3YeE6+z5fplnoRufa+bhVyzKldLxzmLZ0hsHGjONZ7Xaxxry/ZTe7Ecs08kmpsu66URAN7bqWbW+2nmJ3+6ywnnXTb602de6zt3Xp60/yyawmKaQN6wY4ie0M8IMKXNn32XaOKlRYlq25ud16+umf6vjjZ/LCU/E1GwUxo3DsNkKyV3Hzbo+2Y8mybVl2WniKYvmdbrK/DUOOlwT8brurtaU1RUEop+Jq77G9qtQraq+35VZdBd1AS9fvqrGyrtAP5XiO6nN17T26N+lFcXkxP1/DMEoKdGkhrPjesxDfU9BLC+r9+9FyLDVXmvrkg7f05Zfvqd1e7+lSO+686G/VHFSxNuhYbWeAH9YS3L+Nw2RBp1qd1unTL+v0E8+rMlXNFpS8xtx4ZGBxWWY6mZzt2j0VbpZl6eRzJzU9P62bl25ofaWZ/13oB1pbbkhRrIWDCwr8ZE6ETrOTPE0gSCa3k5RMlJgO63HcZCI7r+bp7rW7qk5VkwqGOFYUxgrDUO31drqOJNAPGoM7NMwU3tfq0po++vBfdOXKeflpIX07C+rF9eaVjNsQ4CepvBlWITzu3mKaphzbletVtbBwUIcPPa6FXQeSirUgzK/9k1Si5K8pVMzdvP6NvvzyD7p9+8rYbZmZmdfp0y/r8NHHk+WFUW+F34D3X9yGTaKN0L9897a+/uaPunHjovxue2RIe5i+yy70g86B/vPath3NzMzr+ef/TEdOncwr1oqvz5ZhWabcqivHS1rmLdtMJ6E08/tEGEaa3jmdfO7Tbu6KkyFwnVZSmRP6yRCH7Hqe/V3/9mfXcreSrM927OR7z8m3TUYyDC+7zliWJdNKfu53fLXX2wq6QV5GyQJ98RqSWby8qHfe+TvdW7qhrt/p2V/Dhg2MOwbjEOAfLQR4AANvvqNqzCdlGMk41oWFg3r22Td05PQx+d0gDz4921BoYe+frTWrJbcdKy/k5NuUFnwsy8pr2eM4VhiEaq011Wl2krB2dI+66U2ys95WfW5KlmNpx54dcjxHX7z3heI4VqVWkVNxkjnvTmEAACAASURBVBp0P9x0Y4uiKHkETKeroNBKX9xHxTCfBYri+80qHC59cU6ffvp7NRr3FAT+xPu037iWomQbHjzAD3qv/YXx/nX3b7vreDpw8JSee+4N7Tq0a1MrdrL+jeUUW8y8ipvMWeDayTnhWL2vszZCRbvRUhwnraSO58iyLUVRpG6rq5U7K6pOVTW7MCuv5qk+W5ff8dW411AYhlpeXJZpmZqZnymMWfbVaSUFpU6zIxmG4r6Cld8N8hYawzKltPUme08bAXOj67VhGDLtJPB/+cln+vjj32p19W5P69ugMDzoOAw6TsOO4cMYAz/+GhFLA8YZ27ajnTv36Qc/+LkOnTi2+c+MwcHMtExVahVJ6um1EcexatM1HXjsgAzT0A9felqNdltv/v6sVhaXZVimOs2OVu+uamH/vCwnmxgxVrfdVaeZzGFhGIbciqvaTFV22ssjDEKtLa2pPlPTjr079fOfvyhDhj6/fFVffXhB6yvrG/s4neU+9EP5XX9Ti3txvxWvFVmrf3u9rXMfv6cvvngvnYCz9xox6LNXPA5bDfbfxSz09yML7tXajI4de0aHDz+uar2moOsPDc3950ux4ra/Qrf4mXJcW42Vhi5d+lhXr36Rz10iKe8dcvLk89q7/3BSUVtozS32DBm0zuLP+39WlFVo+R1fX1/6RJe+/lit1lreQ2eSfTrpvh/1ugcN8OOuQ+O2wSh8Vmzb0a5dh/TCC3+u/cf3b7qGZq81TUNevSLXc/J7i+M56RMqnI1AHsdaX15X4Aeqz9aTSuT0fOh2fLXWWuo0OwN7gwVp2C+uU1K+TcXKg9pMLXvDshxbbsXV0o0ludWkUjD0QwV+oDiKFIWx/K6vOIrUXu8U3ps23zNMQze/uaX33vuV7t65Jj/o9pxXwypDxl0bRt3XCfCPFgI8gE0332GtI1tpLcnC2sGDp/X8S7/Q3O45BZ1k3FcW0iX1tFoX1ykpv/FmN9BsMphid7Q4TrqxuZ6TF8SLreDtRkvddldze3aoPlNLxrNZpkwzmbgmC/6Xz19OxsalNfXZtnlVTzv37tCtbxfzLrNrS2uSku7Z3VZX3XZ3U6jK3l/WSmCapgI/6CnEO66jG5ev6KOP/j/du3dTvt8du18H7edxkoLqgxfGhq1zVMta8fWeV9PxY8/oxdf/VNWp6sDXSpLlWD1d1N2Kq0q9oupURaZtJZUhfYXgMEjeXxRFCv2NR/jZaatI1lof+oHW7jVkO7bqc/VkyEMUyTCTrvhRFGl5cVm1mZocz8m7wIZ+oPZ60nISR7Fsx9aOvTs0Mz+j21dva2VxOenib5mK0tnoe/ZZoWt9sdKi2PvDNA198/klffjhr3Xv3s2ewNZ/XgwK8qNC3IMWxibtldG/rnGtxrbtaM+eY3r++V9o96E9G8NV4limZfW0shW7sFdqFVlpBU6n1dGFT87r66//qHZ7XZZlaWHhoI6deFr7ju1LCsvpRJWSFEeRWo22Os2OLMfS7MJsPq49G48edAMFQSDXc1SbqeeVRe31jlqNlupzdXkVV3/51z/Vi8eP69rSkv63//1vtXpntecaEqXXiGy/ZN1xe/etuakCIr9OxLHOffShzp9/S63WWs/jpMa1Wk7aspZ50AA/LoiNu4cMei+27ahWm9Hx48/qxIlnks9/YUhTcXnFwJeF62Kr7Pj3tFGBko2TjsIoqXyJYjkVV4ahnorbcZWnk+yf/r8pLjfrTXbhwllduvixmuk5MK6ydKsGbdvDHgM/bL3Zz7P/s2vESy/9B+05slth32SyRqFXlltxe3pJWVbS682y7fxa4re76rQ6isLkHEl63SXXfr/jy29381b2/m01DCMvBwRBoCiIstu54jip4MvW43iOqlNVOZ4j27Hld5NePqZlqjZdS4K/YciyLT37+lNqtNr67M3PtHp3VbZjqdPupkN/eocMZeeGZZm6euGq3n//H7V093pPiB+2zycJ7sMQ4B8tBHgAAwP8g9TgG4aRjg18Qi+8/IZs19lcOEhbqR3XzrufFkN9bbqWFKDS0J7dUJsr6+q0u4qCSLZra2rHlBzX6ZlR3nLsfIxxp9mR3w00v2+npnfOaPn2ctJyI2l+/4JajZaWbizJMKRKvZK09hVaco8/c1xvvPqcfv/xZ5qam9KrJ0/o7//lHX31wVc9BcWgG8hvd/Nxb8UQH8dJsLMsK3+fcRYwXUdLt+7qgw/+SXfvXh/bXTbbv9lyBx2DQYW7+y2MDSugDiqUj1KtTumxx17QKz/9Rf56yzKVZJWN95G1VGf5xat5euK1J/SLV57T//0P/6q1pTV1O74Wv72la19fVrvVkO24qlanZBiW4jhUbWpas7tmky7wM3UZhlSbrSfd3YNQ68sNGaap2V2z+THJHjvkd32t3l2VV/Vkp11rsx4X+XjItCC2dq8ht+Lo4OlD2rFnh9aW1nT3+h1FYSzLNtPW12xG8TyP5cG9P8zEcSzbtfXNuYv69NPf69atr/NKnUHHdNLKm0EVcNsR4IcVvIdtbz/HcXXgwCm98tpfaGZhRqEf5MF30Hos25JXTVrS4ihSc62lT9//gy5c+FDt9nq+/uT/ZDmeV9X+/Y/p+PGntefY3qRLa1og9jtJGPZqXt7jJhs3X6l7aq931G0nvS6iMO55OkbyeU7WkXW3N9OW/W67qyiM8vH4eWVFOueH4ljNtdamIN+7/Rtzb5imqU8/+IMuXPhAa2tL6nbb+X4ZFIjHnRfDKtnuN8CPqkQaFHLHnTfJtcGS59V06NAZnTr1smpT9YGT+hX3V3HZ2Xjn7PpcfM0wkxaHh1VWDVp+9rnOXtffM2DUtbz4/izLUmN1RefOvaXr1y/mE18O3u7BPV226rvuQp8p7kfHcbVnzzG98tpfatehXXmg3VhvUhHveo7qc1M6fOaQ3Kqnr//4tZqrTTXXmrry+be6fuOCoijSnj1HtWt/MnRqWGVSb+VA73CuOO7toj7oeBWPW/YYU8syN03OatmmTCuZTM/xHB06c0ird1e1vtzQ2tKabNdRGIRqN1p5pUX/uWS7tr786DOdPfsbrazcHlvpez/HZ+PrR2NyRSQI8ABGFs6HhbdhteiGYahSqevo0af0witvbFpuNuN88TnqRVlteDZm+Mala7r09cd5Ab3ZXE1nYO0oikI5TkULCwd1+vRLOnDicN562z/D6/6T+7X78G4tLy6rs95WZaqqHXt2KOj6Ov/u5wq6QU+rfPL4lqYunjun5ZVFSUpbPkzV6zOanz+gvYf3a2rHdDKbbVqYX7m9ko+DzR49l7XuSZJbcdRt995kbcfWyp0Vvfvu32t5eTGZkbhv4qP+YzGsdW3Y67ezC/0kBYPkNbEMw1S1OqWTJ5/X63/yy57AbmWTgw2YsTfrCrn78G4F3UD1ubruXL2jix9d1Ad/+GfdvXs9L6QbhinbdhXHkXy/ozAMZFm2nn7qJzp66oymdkz1FkTCSLXZuvad2JeOiUyOX7fd1Y2LNxRFUf588TiO1V5vK/SziqQwD3u3ry7qq68+0O3bVzQ/v1+nT7+sqdkpSdKOvTuToJm8YXWaaZfI9DyJgigvjGUFweyY266tm5du6urVZDKzVqtR2Kcb+7z/MzooOA8LUFstjA2r5Bt83DdvY+EV6fFydODAKb3+479SdbqWV2gZppl83dei6lSS64JlW+q2uzr75lu6dOljNZurG2MvJJmWrTje6NasOJZTmA389df/sxYO7Eoqiwqt+9lEUzM7pzUzP5OESDsJ7Nm8CLZj561mkvJzIoqivKJn0KMvJenrz7/QysodHTp0RgdPHZTt2nnFUFYB0L9vi+/Bdh198t67unDhAy0vL+YTYBb386iKtnG2ek6MaoEf1ao66NrRH3wcx9Xc3B6dOfOK9u4/OjRYDzrX8+A0JGQZhpGPgc6u9YahpGU/CNVtd9O/j3vmXdm0btPIe+hkFXN55WwcpxXIG5/xojiOe7plFz/7xYqb/r/Lhod9+/U5XbjwoVZW7kw89Op+bGel7+Zlj+7mbZpmPvzupZf+QgceO6gg/Zxkf5fdr3cd2qX/+B9/qqlKRcd27dL/+n/+rW58fVNfvH9O5869pUZjWWHoq9NpSpJq1Rk9dupFHT1xRtXpWrLfR8xfUJRV2hnp3BvZ8UqGTvW+t2xcff+yB30OTNOU5VhyXDtv8IiCUIZpynZstdfb8jsb52ZxOZZj6aO33tb5829rfX05vzYUz7P7OTb9x4kA/2ghwAPIb76TFMrHqVTqOn7sGT3/yp9sWl7WIiUlz0EOC+Hdsi1V6pW88LN8657Onv2tbt++kj96bnZ2lzqdptbXV+T7HZmmpShKujOGoS/Pq2n37iPyvKosK3kU1dETZ2Sls5tnLb7ZJpl2Ol4+7RIZpROTnfv0HTXXV7TeXFW7va4o2hgL77pVtVpriuNIjlPRwYOn9eyLP9G+4/v04796Ve//7iMtXl5UY3m9Z78UZ7vvuaGmBT7LtrS+3NDbb/+d7t69rm63PbBVJl/eFlpfpQcP8MMCwiDFwrjn1fTYYy/oh2/8ed7qvNFNtXd23qxg4tU8VWqeZnfPqd1oyat5uvblNf3LP/4/un7tK7leVXEcpWMZI5mmJdetFJ6fnRQ0qpUpuV5Vf/bX/3P+ZAFJedfrSq2iqbm6qtM1Oa6t5dsrWl/eCMtRGCsIAimKJbPQjTHv3p+83+XFFX1x7n1dvfal6vVZra+vyHMreva5N3Tk8ePyap4sy0onKeqtvCm2xPeEDMfS9QvXdPbsb3Tz5qW86/SkrZn9v+8vkD1IC/ygioJsHYO+71+3bTvat++Efvyz/6xKYShFNl64GL4s21J1qpI/f/nOtbv67a//qxpr9/Kw77he3iotSZblpF1ck3HnsWLZdlIhc/Lk83rxJz9Ve72tOG0dk5KKg2xuCsMw8h49eUHaMhUFYe8EVoVhMqa5uQU2CMK82/+9m/f03ru/0urakiqVup577k915oUnZTn2xvCM7HnRYZhXYBRDvOXYOvv2v+vatS91+/aVTU+x2Oo1od+DtMBPeh4OXlbv9WL//hM6c+ZVze7cmYwPLgTd/u0fFFCK53w2aVnWO6vnUYHpZ7z4t5ZjbZyvUaRue2PIgmmZyXAcy5Tf9mUYGz3DsnNGSq71xeEaYZD0/InCMO+2na0v30YnGYMdRWn4j6Khx8px7eSRg+ff1u3bl3vuFdvpfgL8uEql4evaOI9N05RpWpqf368XX/xzHX3iRD4nRZHt2skEo2Go5374tL69eFW3r9zWlc+v6s3f/UorK7fV6TTTR/OFaeVQJZ3hvyvPq+ngwdM6ffpFze6eyyfELL6P7OvsGPWf01lwj+OkR5mZTsjaP1t9VuEQx5snpRv0ObEsMx+yYVpJsPe7gdqNVv48+eK2hUGot/7lH3X58rm8zNI/1GTYfh+2HZt6E9CF/pFCgAewKcCPas0Z1bLiuRUdPfa0Xv7hL/OCa1YIz8aFZo9XKbIsS5W6pyhKWiq/OveJLl48K8Mw1VxfkWGacp2KzLRl3Pc7isIgeW5vsSUoLawbMhQr2c4TJ57Vkz94La9lLxbQJfXcDIsTzTVXm7p797rW1pbU6TQVBF0tLy/mN8fifpib3aVnfvBznXrujCTJq1e0srisVqPdM4Fd9txZKW3JDXtb2U3L1Pryut599+/zx4oNa6Eo7vfi7/rdT2Dbyiz0g+Tng1fVsWPP6Ke//E95AUbqneyn+L1pJ92X67N1Tc1NqbXW1K1vF/W7f/pb3b17PQ2xkVy3qiAd7xfHUc97M5QUnqen56U4kgxTu3Yd0unHX1BttpZMiFVx5HqOvKqXj00P0xazMAiT3h/BRitu9uSB7NFk/V2fk4JcpIufndcXX/xBrdaaut22oijUjh179errf6WDpw7KrTjqtLppy6uft9wZRtaFOc5/Fsdx2j3yU3388e+0vHxrYPfIrbS+Pkhh7EEmqSpup2VZ2rPnqH7ys/+SzkEQ5eE5e9pDsj5TjmvLrboyTFNBN9CXZz/Tu+/9Kj/u2efccTwFgZ9U6IWBbMdVpVJXq9VIKnXiWIZpamZmQVNTc3rtp3+uMMgmizNkWlY+10b/oyCLlStxHPf07skKz0Y6Bte2bYVhmD8SyjCSCa+Sc8rUJ394W19++b6iMFAUR1pYOKif/unfaP7AfDI79XpbQbDRitu/T7L98un77+rCxbO6d+/mpjA47nowyv0E+EEtdeOuD9nfFbfVMAzV67M6cuQpnT79Yh6E+sN4VgFo2Va+n/ortrJhVLZt5RWEWZLKAnT25IhsnoVMFsq8mqdDjx9WazVptc2eDe54jjqtjm5fuZ08NjCKZFpW3tsq+0Bns5DnCS47HnHSst/t+PmM49JGd+igG8gwDQV+sKlir8g0TbWbLZ0//7auXfsyvS9l50k5utAPC4+maWp2dpeeeurHeurlF/Pwnr3GSIdWzS7Myq26aq625FQcNe419OG/vqNPP/29Op2mPK+mZnOlpzdbpVKXaZrqdFr5+5ub262fvfE/Ja3xhSfcbGzbkGEi6QS7WQVRNiwweTJJ2DNGPgw3nrqz8T6M/HfF9W2cE8kj8KIoSp54kfZKbK418/l/8sDvWFpZXNZbv/+VFhe/zXvxjdvX445P8TNNgH+0EOABDGyBHxUcs58VC1e27ejw4Sf06g//Q15YycO7kwTXbFbmjfWacjxHbtXV1Gxdi5dv6w9v/Ua3bn2jileT61V15/ZVyTBkmpbC0JeRFkyygnu2niiKFIaBHMeVZTlqNO7JMAwdPHhaL//wl3nhLyuwZ91nQz/IJ0DLHikXx/HGZDTZTTkIdXfxts6ffyvvwmqk2xVHkSzb0enTr+jZV19VpV5RfW5Ka0traq421Wl1Nj0GL6s1L8oK7WtLa3rnnb/TnTtX81bl/v1fPC6jjtf9BDbDMDcd80G186O2ybJsHTn8hH76y7/JHxPXPwt0Nt5dSuYCqNQrsmxTc7t36NvPvtHv/um/6969m3LdqqIoULfbyQtmyeP3wp7Kmuw8dhxP1eq04jhWp72uIPR15syreuK5F+R6jipTVdlp62q2zYaRHJcwiPJZgQM/TMZlG0b+iKqsJaS/pS+OY3XW2/rovTf1zTd/VBD4CsMkcFumraee/omeff21fPKibieZ1T5Kz72sV0CxRccwku70n773gf74x3/V6urdnvOhuC+HVb4N+/39BPitBPZBDMPQwvwB/ejH/0Xz++eTlmapJ8Bn68i6klq2qW7H1zu//Y0+//wd2babXAcMMy+Ax3HSwu66lbyCbeeOvfKDrlqthjy3qlix6vVZBUFXP/rJ36g2XZVpb3RZzd6XaRnJevOnYvS26sZxnBfQk8L4xvYX32d2bcmeuhEGybPof/tP/1WdTkt+0FUUhbIsW2/84n/RvmP7ZNnJzPODnm5RPNeCbqAvP/tY5869mT4zPBr6+Rx0jLa7Bf5BZMFsZmZBJ048q5Onnh3Y+myaZj6RYLFyrece5Fj50wKKv4vT0Jx3aU4DWfG4Zd3dzbSnhWlbmt+3U+urzZ7gVZ2qaPXOqpZvr/SE7+xRlf3bmF8P7aR1NmldNvKKouz8yINY4ZGaWeVNf2twcd9J0rlP39bly+fUaCxP9Dmc1HYE+GEViZn+35mmqXptVqfPvKKXf/bznpb37KWVekUzC7NyXEfNtaZCP9Anb36kDz/8tVqtZILZ7Fw2DDMvOyQVbhut6FlZYs/eY3rlh3+eVOKl16GsV022qaZp5N3mswqi4v0se232dVYREIXJpJVhkDyJIusFlt3/oije9Pktfh34gRzXluO5aU+k5B7VarQU+kHeg0tKeiR8e/6S3nvvH7Syclt++ni5/nNi0D2iuO7+a89GRRJd6B8l9ve9AQAeDf0F/FE33eL3hpE813vPnmN64aVfbNxllQVVIy90Zs+3zlpTKnUv6S5dr+iTf/9I5869qazltlafTVra40iuU1GlUtfa2lIe5qMwUBgGsu1kvFgW3k0jKUhYlq2KV9fevcfzm2V2A05awpNQZtuWgiDsmSHfSFtQDMNQqLT11ba0sHePXqz/Ul999aGuXftSfjedcE6xgqCrTz/9N1248IFeeOGXOnzquGYXZvNgmC0/KrbeFcbg5mNno1izC7N67rk/1Xvv/SqtLOh9bM2gQtqg8HY/rXCDlputs9hyMKoQZhiG9uw5otd+8ldy0vF8m1+zsUzLsZMJBCU1ltf1b7/6tc6ff1tRGMir1FWtTiXdIdvrsh1X09M71GzaajZXCwU1Iw1yTl5wiaJQU1M75DieHnviGblVNx9Hms36nR0fKdn3pmnIq7rJTPNuMqQiK8Bn45/dipsXtLOg1u348uoVnXjsB2q3Grp69YuNY6tYZ8/+RtevX9Arr/2FDp4+KK+adOkudok0jPQZ8kE2HlbyO76efOl5tdsNnT/3thrryyMn8xp0rAb9/yAGVeAMqzTYON6Gpqd36gfP/ly7D+9OZvZOrzPFR0hm38dxMhFgq9HWx++8pQtffSDLsuU4bloYz3r4mGkrlq9uNwkSpmHKD7r5ejudphzX08rKHR09+qTqs7V88iijsK7sZ1Lv0wGy5WQ9CLJtLM6K3x+2k8oXZ6PwGyWtt3v2HtNXX76fj9UPgq5+8+v/Qy+88Gc69exT8mqelE682b/+jO3aOnz0tNbWlnThwofqdJoDj3m/Ucd+O86L+5G1tp469bIOHz29KbBmjCR191w/sx4QWXAP/ECtRitfbhwnE052u1212w11Ok25bkWWlVyTHCd5ZrfjVHpCeLfdzSto9x7dIylpJe22ulpfaerTs+/p2rUv8/VXvLpm53arWp1K123l462zc7FWm9H09E7ValNy0m74SZd8R45r5y3yWe+eYots8evsXpDtA0l68unX5Xk1Xbx4Nq/QeVQMOq8G3auyn3teTfv2n9Dzr/9Yfscv/C75vVNxNb0zmXdm+fayPnvnE3388W+1vr7SUzFpWU7aSytUGAbJfd9KIk9WGSlJtdqMTpx4To5r55/T5DUbQzZs15bj2nloN62N+0W23XnLet/93DCSeX9MKyl3tButfKLb4nW/qFjBvXp3VY3VFe3av1dLN5e069AueTVPtemaWo1WPiQrjpNhiUceP66lped1/vzbPY+n7a2sHn7t7v9+O+8b2F4EeACSNl+ox3W5ylusTFNzc7v13HN/mszmHPaOu4rjpFWx2DXWdu08uHeaHf3r3/+/+uyz36vi1VWpTuWFs+y5t0Hg5xN5RVEo160oTrvTh2Eo389mZU5a4V23qtnZ3Tp8+HEdPHI82RbT2AjvdqG1zDJlp7PEdpqdPMQn60q6vcVKwrZhGarPTenUqRdUqdR1+fL5ZBKtdLts21W309Kbb/43ffrpgp584kc68cyZ9LnlpgI/lN/xe1qY8i71hXH2YRBqz8H9eqr5E5398J+11rg39JgMujFvh2GVAaNaVLJtmJ7eqZde+ktNz0+nXQg3WlDiuPdcy8amRlGkm5du6MM//IsWF7/Nh0i02w2trTlqtRp5S3vSXdqU61bU7SQF9qnpHel4x6T1stNpyrIc7dixRy+8/nM5aZjKClLZ44XyCqc47vnesAw5dvIIumzsah72C38jI2klt11HnWZHC/vn9UT4mtYa97S8fCsde5kUHm/d+ka//ef/S6+u/bVOPPuYvKqbP2YsDiNlR7c4oZ9hJJOlPf/6j9RoLOvChQ/zMa/FkDyulWU7bbUVPiuYnznzik48+XgS3sf8jVv1tL7a1EfvvKmLF8/Kdtz0uLbSZW504TYMU2EYqVKpy3U8La/cVquZtMQZZjJ0JwiSOTIOH35SjufmLWXFLrDFoNS/fdl77unOXpicclirVtLK7ygOI/ndQAsLB/XVVx8oDH1FUSjPq8n3O3r//X9SFEU68/wzqs9NqbnW3Ji0SxthImspnlmY0bGjT6fzI2wEzvs9D7az5XZSlmVpbm63zpx5VQcPP5YPVSleH/Kvs67JhWdwZy2TktRtd5JHhKbDIFqNlpaXF3XnzlXdvXtNrVZDtu2o4tXUbK3J9zuybVemaapandHU1JxMw1QUR+p2WzJkyLId7fh0jw4dOaPlpUV9881nWl29oyDoyjStfN6FlZU7un3n6kZ3eSkfyiVJUZxcA+v1Oe3bd0L79h3X1MxsEuLCKOkVVK8ocIKk8iDY6IHRf18utvoW71Onzjwv23b0+efvqtG490iF+KJRlX+O7Wph4aBe/uEvN90rpPSz5DkK/FDfnrust//tH3Tr5tfJ/dm0ZFm2fL8jw0gm0m23YoVR76z1hoy855Zp2Tp+/Afae+hA/gjaOI7zyvssvHs1T7ZtZZf7nqflZJW7kvLHhGanwcZtYmNIjFt1FTaS8ya5zhev4eo5poaRzLkQLHX10R/+TSsrt3X69Cs69ewTmpmfkSS1GkqfdJKMt/c7vp5+6WUtLy/qypWkfDLsHoFyI8ADkLT5ZjpJoc8wDFWr03r88de0Y/fOnvCe/d5yrHySONNMbmD1mZoqU1WtL6/r33/9D/r60id56Op0mnK9qqJoSb7flpl2lQ2Cbl6QzR61ZppW2opqyjRMmZathYWD2r37sObnD2hufmeh1tzKW94HdduLDUOVeiV/9FecTjaTh/esJS2OVZut6/jJp7W+vqL19eV0u0zV67NaW1uSbbtaWbmjN9/6b7p48ZieePJH2nVwt7z0GbXdVjcfG2/kIcLaqDCIk253x0+f0erqXZ0796Y6ndbAVs5BoeFBg9ukx37Q+ly3qief/JEOPHYgH2ea9GBIw1E6dk9S3vopw9DNSzf0zpv/oKWlm3nX86wr/3pjOV9+GAZJOMsL9slsxdPTO9PZwJtSHKvi1XXk6FN65qXX8m6rWSvK/fF1QwAAIABJREFUpvCerKynAJ6J0hnR8x6i/X+TspxkHLUk7TqyW4dvPK61taXk/cVxch6bptqddb39zn9Xq/0nevLlZ+VWvJ7J8pLeARsT5GX/R1GsF197Q2trS7p27cuBBfSH3UoyqmV3WKu7lPSGOXjwtJ589qVkJuVBFUPRRuu7V/XUbXX08btv6eLFs3lviSDtdp60hCef+azw7jiuPK8mSfkTCbJtsW1HhmHq9OmX82fNZ491Kob3ScJuT3fmQuF9WGWXlE5yZ1syw0gLe/fmXf2z7r3JsiJ99tm/y7YdvfjGa3I8R6t3V3taIZNhSMlxD4NQ+44f0OMrr6VdhxvDW66/Y4MqEvqZ6ZwExfBe/Pv8Xxrci/NOWJYlp+LkoSrwg6Qi0DW0vtzQrVuXdfXqF1peXlQUhWm4s+R5VbXTSc0k5WHP73a0vHwrD/CGYeQBr1KpKw4jmYaV994JwyCfj8OynLTy1snvD1EUyoiTJyJkYdGQoUbjnr766n0tLn6jAwdOaffuw6pNTcu0TDlmMjt+dbqqTrOjoBvkXauz0G6YhmzL6hlCkAmCQMdPPi1Jaevr9nan3y6DPidS8ri42bndeuGFX2pqx9Smil/LSYJ0HMe6cPaCPvjDr3Xn9lVFhWE0SUu7lbfE246r2O+bJ0cbFWKzswvau/dY/njI7JzLeudZppVPQBr1tbZLvZ//jYq8/kqKZJ3ZPciqeuk5l024mtwfFMXK5i4oBnrDMHTr1je6fv2CoijU2Q//Wc3mql782Y9UqVfk1Ty1GpEURvnfm7ap5176mVZXbisMg55HbPb3tOz3MCt+sb22ZxATgFIbdKPPCiPFmv7+wOh5NR0+9LgOHz/VM547K4hLScE0K4C7VVfVqarqc0kr+/v/9ntdufJ5Ty15FEcKAl/N5qq63bZMy5ZlOXLdity0a73nJY9+CYKuAr8r8/9n7z2aJEnSK8GnqkaduwcnyXll8arursZMN8jOYmZEVnAZ2cMc9t/tZUR2RVZ2Zw8LATANDBoNNLpYVmVmJWcRGdwjnLsxtTl8qupm5h6ZRbIJsP6JhESEEzNTNTO1j7zvPcZh2Q6Wls7g3Xf/BJevv4fFtRVYjm0gb1nYfHYs2YQFt+iBbXsOhE3VV8ez4XgO9ep7Ewi25VioVhdMH75mfSWHkRvHcf/gOX796/+KB19/hThOVOCQZTrWUNBpxyaOE7z1zo+wsXHFQHezn8mem1nn54dacfuzgrSsCWFhY/0ybrz/oQk8eDbAycAKTYXDFugf9/HFp3+HwaBDkFSvAsuigMzzyjnmaL3vKApMJdpxfIzHAyRxBCEs+KUqrl3/CT76Nz+H49qwbAG37MFyCK7KrQkbdWZwk+NU/5txFsd72vgtbsjQNs5chm274LpSzDlKpTrSNEUYjPD553+FW7/6lHocPTt3HRarT9opLFV9fPzxf0C5VDf7fNPn/LvYLBRA8XgYY6jVFvDBR39GxGSF6mq2950LgjEnSYK7n3+Jx4+/RBiOzX2uv0fBNiVW6rVFVKstcE7VtzgOUS7XIBREnZJAHJubV3Hl5tvERJ4NENk0u/ms++o0e9X8m6qp4EqCjq6Pen0JXCWnNNQ6RYowHOPWrV/gzq9uo1wro7ZQI+UMk9jJJ23iMMK1d9/DmTM3YFn21P5/X/aqwFGfv3K5jhs3fooz565OtQhl/84SCgIER3ZLrpJopNdsBXE+3NnD7dv/gFu3foHDw60p9RAACMMxfL9qquNqZ3BdX6E8dFuEhfW1S9jcvAZhW6i3FnHx4vtYX78Ex/aANIXrlgxkOwiGSOIIMsNRwdSNnKYppFLLEMJCr9vG3bu/wu3bv0T7cBeWui9kQiSJjmsr1JbIPYOLLRvF6y6OY1y49DauX//EPCP/UC1XWeccvl/FO+/8HOuX1zMkkOpHrQu2Y+Fo+wi3b/0S7fauIrHNJFGFpZJ3dC9ppRptaSpza3ejsQy/4k2+bwvDRUIBd56RPtvbDmDq70nlfbKGZ+Hw+n1hW0aCUAhhkoc5dnmZglscj+/fxpMntzAa9WidQor79/8Z3/zmNuIwhuVYJHmaaeORsURjuYF33v0TOI6fWxteV6D5Q75m5pa3eQA/t7nNbaYzUAxwi+9Zlo1KpYnrNz4xrxUtTVND+CVsgr+V62V4JQ9f/f0XePjgU+OYp2lqINJFMiVdZdd/6+q7ZTlwvTLAGJaXz+H6tZ+gudwyEDjLFpN+tTQ1UmCve0gJwY1T6JY9OL5jfrTzKCyBlZVzaDSWzXGTvBw5DxRAUDVmOOzi7t1f4eHXd4wDmz2GrGxWbv5kCm4JvP32z3NBW/Y8ZOd61t8/xGYFY8X9Zl8rlWp4970/haXgiNk+Yu2gGOMMlmUhTYG7X3yGw8Mt1GqLcN0ShLAghEUw4yShqism343i0BybZdlIkpgQCpyj1VrDhx/+Oa69+x71Lrrk3KRSk1SJ6fOvsZHZ5IT2wPITkv89Y56FRT259aU6VX65rurR9Vuttkywdvfur3Dv0ztIZZpz1meZZiBevbiKK1c/ngrYfl+VVv37tGvRthzcuPFTNJYbRus9+/0scZ2wBSxb4MW953jw4Dc5aTgDk+UWGOMmIGNcYGnpDHy/YgjsoihEHEewbReVch2Li5u4cu0juhYYtctoZ3lWcrJYQT/1c3w6mXVaEsByLIP+WV+/bBJItu2q8ZMzPxr1cevWL/Di3gssrLVQX6rnoPrZfWh774M/RqlU/50mc14XCLzqO47j48qVj7Fx5vLMtW8S0EjTEgNQ8O54dA41uze3CE3z5N59fPXV32Fn59EkaEtTlUBOEMcRwpC4MeI4NNcTANMLD5AMarXawqVL7+PipfdQrtbM8VVqdZw//w6uXvsRGs0VaCJFmne6z1MQ2ZdlEzy/GGRyLsw6c3i4hW+++TWeP3qEarNigsc0BWzHpmeNY+WUBpJ4wqOSfUZnGfrPX7yJy5c/hKOSy3/IxhiD4/i4cf0TXHnnrRxpnU5iCkFtKMEoxJP7d3FwuJVD2FBPu54jaV6zbZfWHJNYnCgSOI6PRmPFkB7q+RNCGMJSLqb7xbP3YdaKr2eDef0/rQmTAodQ1+4s34sLju0HW3j58iElgrmgZCQYxuMB7t//NV4+3AYAOCq5Ac3TAuqHv3DzMi5det9IaM7tX5fNIfRzm9vccs6p/r9YaS1WqSzLwYUL78CvakeazXiIESmMsAQs20K1VUVtoYZ7v76HW7f+FqNxX8HgKXghciGpgrcYjAlTRQmDESzbQRQGiOIQnlemioeMsb5+GW+99UdorjaNs5slHwNgIJhFLdfs2MzYBQfLzEPW6PtAxBjqiw2cPXsTnc4BhsOegWbqY6Zx0XaCYIgHDz7F8uomGssNyETrxE766ZjMk2Np+GhzuYXLVz7CV1/9bU5K7LTzmD2H39ey10RxW7Og80JYuHjxXSydWTKIC+r1V9WHRGbiX3KUHN/B06+e4NnTrzEe9WHbjqmgJHFEJIYiH/RZlo04CgmNUaoiDEiuLQzH4Jzj0qUPcOX969BScIxT5Z8SSVStQ3ZeslX2QmIinfxz6udypj4nVKCxsnIOz57dMYFrMB6AKY4HISyMRj18880/olpvYPXCCrglTB8loBJOYGDmvkqRRAne/eineP7sDtrHO1MyYr8LO61VoxjUCWFhaekMLt94hxA6xQRVZjuWTRDlk/0OHj38DP1M24T5vFJ7EKD1J45DdE72kcrEsLqH4dhIx62uXMD6xmU0F1bQWG4YBA7nHFC8HCxhr7xviutg9v3ie8VxFU3YFnicoFptqfmx0WysoNc/RpJE4IwCkePjPXzzxRe48ckN1BZqGA/GGPZG09tX+28sN3Dt2o/wxed/bcj7ftuWXS/pUPKBTtay77muj/Pn38b5828DyGtiF6W0ipV3Spxyo92epgBLU9z76ks8ePApRqPeFBu67kWPM6SG9Gyh9oUoihBFdO1Uqy1sbFxFo7GEWm0RlmNNjc/xXKxvXkK5VMfdb/4RwXhgqusaLi9TCcEtJHLCYQBGwaU+Dv3c63YOcOvW3yIIRvjRn/4MMknQO+7rSUCaEtJAI9xO0/YWljD68QBw5cpH6PWOsL39AHEcnXqt/rZs1no06zXbcnD+/Nt468MfmdeKuVPLJt6a/Qd7eP78LqQk8lrtJziOjzAcIUmIY6LVWoPgAn6phuGwA84pIayVQQQXKJXrWFrZgMjw4aSJRKqq4gYan04SjMWlP+tfFI97dv531lqSJcGc9L+HoxB37vwD2u0dIuflIsf9cnKyj3t3PkNjpYlqqwrbdZDEUqEZFSo/TvDej/4IW1v3kCRxLiE6t3/5Ng/g5za3uZ1aPZ8VxAOA71dQqTRx9vyNqe/r7LHZBqfKml/x4JU9HL08wmf/9At0u4cqiz7Zh4YfxmlEWXPOARXMQVUaUpCWq227iKIxGvVl6sFfbcJxbYLIy1QRu9BDlnpdxVTcVewHOy1QnZovBYmNwxiLi2vwvYoh2bOEjVjJXBnJu5T6vvv9Yzx6cAs/3vhTSGkZTWJdWREWz0FGdV9wEie4cu0DPH36FU5O9qec59PO4Q+xVzlfeq6ykGnfq+D6Wz8GoKsZEyhhcbuajCgYBnjy5Gt0u0eIkwidziFc14dte4iTyPQzZqXiNGLD8ypwXR/DYc/0Ra+uXsD6hTPk6KsqaxIniLXWO0sQR4mRepppWQ+s+Nqsz2XfK8zP5uY1PHt2h6rwCkUwHvVzc9vrtvH44VdY3FykawpxJohXm1XSVtq8socbb/0U//RP/9XwQfwuKyzfNhiwLAfXb3xiAqHs93SiijEtNWkhiWJsPXmM45M92LZD10EcqlYJck5Lbh1hOEIYjrCwsIH20UsctXemqs9cWBgHA6RpiuZK06gc6PtLKJSOsPL8FkU7rcI+y06bE6NioBz1WqOp1BJCE7wDUM43h0xiPH9+F/c/vY/3/vg9BKOQ+qKjCcmbTpKlKfFlvPXex3j06IucxOWp61fmvR8S2M0KSGZ9Rptl2Wi11nDlysem2jzLsiSfaZoasjphcfUcmOzn3ldf4v69fzbyktSSkCg4ta0q+JPtaWi5ljBMkgiNxjKWl8+h2VxBudyA7RZbWqYTOs3FZVy//hN88cXfIBgPUK020eu2AQC+V4GwbNTKi6SeoVQCdHVYcDq2OI7AOEcUBbhz55cYDrv4j//5f4XjuTjaOQLjHEKkSB3LSMplLTvf2Ra2NKUWr5s3/y06nUN0u4d/kKR2nHPU6kv48Md/Bke1RGSTPVo5RhOEbj97jOPjXTNuIQiNE8chfL+Kmzf/Dc5dvQKv7JmkYBwlJjEkpSTFkHGI9u4x9ne3UB20sHp+jfrTFVt8NvjWaxS3qCJflIOdZfr7s3yorOmEQPaZLxMJmST45qtP0ekcwHV8BCEl71IZQ0oGIQjZt7//HPtP91CulcG5Gm+OIBRwyx4+/PDP8Xd/91+QKOWeuf3rsDmEfm5zm9vMasppDox+7cyZ63C9CfRwVvUdIMIhx7WJrCtO8Jv/9g/U9650WaUkmZdUwQ8TSX9LVYlXkSB8vwLfqyBNiW2a+tssXL/xCRbWF+C4NpjIVnCgYLITZ4BbYsp5nTUXr4KHpmkKKLkxHYx6fhUAsaPrqovnleG6JWh4rK7QHB/vonvYJRIukYfRyyRFksiZ+7Vdm+RuLGfqPX1cpzsKP6zykr0GZl0jtuXg3Pm3UWlqGSVm4PJ6/s13Mv2Mu493cHDwAgDUXEmMRn0Mh111TaTG4cj2rJLTO0a/f2w+5zq+gWpbjmX2JyyRuzaM7I6+XqczDBMofTaYL1bhs68X3tfz0lxeNBBppGkuEZFKur7jJMLJyT66R13iWlBQSIAqQpxT8iHr3CaJxNV33kWttvg7Ddy1fZuEgRAWFhfWsXH+wsz1RSenGGemJeXkoIOXLx9iOOwiikKMRj1CnJjvcQTBUFWiBJqNFaxvXDH3mV5P6B6XODnZh+P4qt+UKemuSQCsv/O68cwKUouJv5kVR5lOVekAoFTzsbi4aRjokyRRcPGYpPIcF+32Dh7euosojOCq1h2W6cHVwbs+JmFbuHr1RwYue9qYvk3Q/W3tu3yXqTX8xo2fwvW9mXMmFV9KsfJuOTYhn1RCV6o5ffrgAQXv4ci0pdC+ODyvDMtyTKVWq4Tocw8A1VoLH3zw7/Deu3+Ky1ffw8rGJsr1smkB0sc9a/2TUqLRWsLq6gWAMQwGXbQW1g2Mfm3tEnq9NlzXhybjNM8BDf9W16tGFT18+Bn++v/4v+FXfSyuLwCY9Eu7JXfms/hV56ZUIYJZ/cz4XSf5Xvea4/j44P3/CZVGZUq2UQgOJjgcde/2j/toH+8aKbhs4rRUquKTT/4Cb//kAyydWUJtoYZqqwq/WkK1VUWpXkKpXkK5VkKpXobru4jjANvb9/Hll3+Dp988hFTa70Lxo5jlPHuvzLiXT7Nicj271qTphM8g+3zUdrC1b5AGtfoijTlNTXtGEpPvNBx2cHS0iygIkaYK4aNkMPVUJ1GCCzcvo9Van0Pp/5XZPICf29zmduqiPstBE8KC4MQqnQ1+eCZ4zvboWVo/1eJ49MUjPHzwG0iZQPCJbEs2+GSMmz7oOApN1aJSaaLeWIbnlRHHEVVa0hSVWp0qqhnHlqksOpCBHBbI604ba9ZRe93DjjGCLlYqdVPx0dsIgxG4EKhUmhDCguNQBXA47GLnxTNCBagqoJk35bzKU4L48xdvGqbtWYHEacf7ph7a2TnJXhvCsnH58oemJ9gkTDgzlXht1K9nIxyH2Np6SBBopEqzVyEOlM63+Z76rQnhSqUaVlcvQCaJcehK5Rqaq01YtjABrx67Jq8DgDCIEIWxYaFnOvimQZnfudf1HM6aRx3oZ+ZDX3MykUiSCI7jwfMrKFcaRpeecW4qIt3uIfa3X6K+WEelWc0RFk6qkZM8AUCw0kuXPoAlvht52ZuA0RZRKrO2aVkOLl3+0EBUi0lBQJG7KZkmv+Jh0O3j8HAblkWklbp/GeaaU/+rxM7W1j202zsolapmzdD8GWlKbSsT+cnJOdLKDwAgkxThKEQcRjlJuFfN16kB+4z7ULcWpXIiAQcAq6sXqUVEJRyEYjxfWjoDxihQffbsNh5+9gBexYdfLcFSMOniMeig9OrN9+D7lZlzPSsBd9o5/TZ22nZP26ZtObhw4V00GsuU+MyQhM36vv6MluDknHgsNHx+78UOvv7q75AiNQicbB90ksSG6FJwS+m/WyqRGqO1sIabN3+Gc5evYenMCko133Cc+BUPpWoJtmPlxqfnNXvcm5vXoKHxUTRGpdJEGI4xHvdRLtdNK8jk+xTM6zWA1krqixfCwv0Hv8Gtv70FJjiWzy4DoGea5pA5zU6b/42NS1hZvfB7IzmchRZL0xSWZWNj4yrOXr2UmRt6P1c8ULKA3aMujts7ENxCpdKA4/oGMv+zP/5PuPzBZXgVPxcsa9P97VpK1vYclCq0ZgyHPezuPqYgWKY5gsCZy726l4s/NC6Y38U1spgI0tvSbQ9S/c04w8HhFuIoNM+RRCE1HMdT7RgMtu1ASolu9xCDLsmn6jakfH6ZQcYJPvro3+eOYR7I/8u3eQA/t7nNzVixOjPLyRNcYHXtIrySb15jCr6VrRClkmTjbIfYl7tHXTz45kucdA6IVVpBpCcs7jLH6Kshxwyk6dpsrsKybFN1jOMQlWpzCu4I0APT8UlnvlT1jRRMcXwyTiDjZMr5eW3wrpMBgoMLjnp9GbbtTiSLuAWm+rFrtUW0WmuwbU/1XAZot3chNSO9lXdkdWBhxpQhynJcGxubV5UsVt5JLzotbyJQm+VUFwMAy7LRaq6isVSfyB0xpiTiJkR2lmPD8R0Im0iZjvdOcHS0bbY9qZxO2grIMZdIU+p9BqMKthA21tevYHFpE83mCkqlGmmAKweXqcSBhj0Ki8PxXKVEwBGOQgRae12RHOWiY8Ymr2PiBE19bsb3cnMlSX7q7Nm3SGeacwgulKqCj3p9Ca7jI4oC9HptCFugVCsZiD9jijvAtKTAJH2kTHHp6k3Yjpfb5+vsTTtus5xB3ae5fuZCrq0g91shWFyl8MCFQOdkXzHJE/8BVwEX0hSffPIXOHfubSRJDKkC+cGwg+Gwi37/BEIIlMsNExxpPgUpSRaSscm1qCvxlmMRi7O6LmfxeOjxFe+vWa8BmYRkoVpHaJIESRRDJik2zl4w5JyWIH3y9bXLGAxOCALPObrdIzz5+gmGnSGNy3Ng2dapCQS35GJ9/bLhkcge36zjfNX/r7Psdl+XFBXCQq2+hHNnb0LYebLG0xINwiKODCEEuJLYJIRSgsFJH59//lcIo7FJ9KWpBANprTPQ/5wLOI4H23EV3JrOmeP4OH/+HSysLpognakgz0iOKllIx3fMNaIDfLdEzxbLtlCp1VGvLSJNJTqdQ7Raa4jjEIcHWyiXGwZpY1mOkZxjYAjDsVnzqtWWSlzGENzCV7d+gcHJAEkUo7ZYy82psGa3HhQTOmat5gzXrv2YEmJv4JnwXa14XvXfluXgnXd+bhL/2ctHH7ftEKR92B1h9+VTDIZdCMtWlWSOzc1r+Pm/+wtsXtvMcdsUA9Xs9cY5obL8io9abcEQGFJCle5PptF6mkxRIWSK1fdJn/zkmZN9FJyWBNBf0seVRAlkIuGVPSWD+ES1T1j0XFAymFEYwLIJVWLbdD673SOc7J+gVC3B9V2lgpIdPx3f+uV1NJsrZm3IztN3OY9z+8OxeQA/t7nN7bsZYzh37uYkyFBZ7ThKctlo0j4m/eM4jvHy4Tb2959NbS4Mx8Zx0v2KDPlAu1Jp4MyZ66hUmgZKzblQvYbCsMtnjaveey0lNzn8TB+uRfquSZTkILXAaxzajJPPBcfSyuaEKRaTwHZv94lxJD2vDF1pS5IIJwcdM59ZZ0PYwjAPG7isRjcwhjNnbkAUqq5FJzoL7X3tWE6xYrX9tKCBc4Fz5982mu46uNQs0TQmS1VbbVNNO3i5i6OjbcXSPFEZEMKCbTnGSWOMw3PLAAhmf+3aT7CwsIYXL75BEAxRry1hY+MKLGviiEElEPT/jE8CNoCY4oU1qVSoQebGpbdTfB0pST1BOf1pkpcmAmOm0sqFQKxaRcJghPF4gOGohzSVCIIher22Il+j1oFBZwDHteFVfIgMjBdKjYCC0Am6pdqqYmnpjEEh/JDz/W3stGC1aJawsb5+GV7J1R+c2oYQHF7Zhe06cDwHcRij2z2aVFOlVCoEMcAYvv76v2Nv74mponLGM3rvlCgZDrsQwkYYjo2MVBiMCJHDuQrchbkmhSVMQDTLmT1tfMVE4NQ8zYDaUhJImvXx+ZMHZp+uV8bm5jXs7j0xms1CWAjDEQ4Pt7D/fB9REFGrgS1oHEUZRABRGOHChXcm3BGvqbb9UKe8uD7M2pcO1q5e/Riu5+XXOiufrNTGOTc8Ftyiyjuxk1PS9fPP/8ZISEaRRu5wNJorcBwPiYxNgOy5JZMwE5wSeK5bQrXeVAz2+XnMBjdcCNXqxA1iwHZtIynqlVxYtoWz526a8Y9GPViWg3EwwPb2fTiujzgOkSREoKZJ9hzHM88MnfzV1u218Zf/139BqV5WyS1KLlA7gWWSvNljzgXthdeq1RbW1i7Btp3XBm1vOlCbdQ8JYWF9/TJaa63McWvUxWT/idKCH/aGODzcNvM0GJxgYWEdP/2T/4ClM0uk415IEBT3zVR0rbkoaB4tOI6P5eWziiNHP7vIlyHVAxeWY6tquSK4VYWKia/DDDKk2DqW049XP1R118F7jCiMEIcxht0Bnj95gCSJUastwvMqKJVqcN0StUEwVrjObIzHA/Q6J/DKLirNKtySa5j1cwn9ROLtmz+DZU38oVlJydPO/+8j+TO3V9s8gJ/b3OYGYBqSPcssy0a12qKKgX4IKKKwJE6M02qgao5NlZOYqhMnJ/u5/WktZM0mq/s6hWWjVKqBMQ5h2ajXl9FaayEMxzg43MJ4PIBl2SiV64aEKvvQhkwnbNN4NVzUUZrvU5ULzA5YGGNAQT5q2O9N/lfbjqIQR+0d9PvHKJfrylnjptp6tL8HYVukD53py02ihCr7qiKUhfUyxtBcWEKpVD012JhVJfw+TlnxOpiaY2itXIGVlfOmb1Q7YFr3lvrhpel5ljJVDtmWcbKjKFDfUTJKqtdP/z8cdZEoBuHhoAPGGF68uIvhsIc4ibC7+xgHBy9yJF/F8TPFLux4jknqcJHBpc+YT11hl/ranvGZXKCm5yslJ9Are3j33T9BuVzHwuIGhCDkRBiOYVlUjdOO+8H+M2zf30ZztUX639ak6p6q7QHU06hNyhRnz9yAKDBvZ8/3rHv5hyZ0svuZeZ1wgXPnbmY/mPsMV+gMYVNlc2F9Ab12F/sHzwy6hL7GYTsU5PT7xwiCETT8lgjfFCQZjIieMvuQMoElbPQHHSRRYvpbhTUdAGfHNWGEzgcCs9aHUwPjGZW6NKV1UsoUo/4IOzuPzPUwHvfx5OlXAICV5fNmH1JK9PvHGHT6RkVDI5r0/ouB8/LmKly3ZJQ9ZgVQs87bd7XiPGQrndm5siwbi4ubWFzcJJWFzPuaeM2yRU5aU8Pm9ToYhTFcnwKUxw/u4Ph4F1EUqH1SkOc4Ho6OttFWMGtthOLgSJIIYRSgVluE43gGrQPkr+2pa1xwOhZGydXscQrbguu7WFu7oPrtHRwcvICrJA6TOFIJam6uU831Mh71FUya2oAYaK5c14fnlTEa9XHnH+5AxhLVFq33XKG1sszpei6LLQn5RDXHhQvvmCRn9jNFe921/V1tVlBoWQ6uXftxrvrOGM21VMlK13MM+WWv3cPR0bYap0CzuYYf/dH/jIW11lQCJjuG015S014CAAAgAElEQVSjOaRku2278L2q0VPnghsEluZkAGhdiMKI2m2iBDLR/DpQf1Ownk1A5J+FmTVSqcskUYwkIf9ISklFEMXxMxx2VAsQkbRyQUUAS9gTaH0SYzTqYX//GcaDAI2Vhnq+KQ6YbFujTHHhravkU4kJR0xxjuaB+r8cmwfwc5vb3Kac89OcO8Y4lpfO5lilAZistmFb5hyO74BbHJApwlGAfv8YsZJ60tsuVxpKDopY2zUZlSYu08RvvV4bURBBCJsYm9X3K5WmqVRqh1cf02mSRLMeWkWH1gTPMwLi4t+pTNHvH0MIC5VKU0G5fSClvu7RqI9nz27D88okfZfEaLeJvE3GySS4tCY6vtkgrbg/LjhWVs4bnXn93qyK2/cN3mfN1ax5sAQldCrNSs5x0ZZ1XGzPNv/3j/vodA5MT7ttOZTMAQVkujKVJBE++eQvCHGg9tk+3sXW1n2kaYrhsIsnT25hb+8Z+v1j9No9yCTJjT9L9sUFm1TTDKO1mi/tjWXHqF5nYlKNT2U6cYwKSRv9Gl03+UCuViMyolKpjsXFDTiOb1oupEzQH3TQP+4RbFixsme5HHLzmnHgVzfOK4jldNWpeA5f9drrrJi8OW17QlioVppYWF42hErasokxblFChXNCRgy61K8uuGX6gxljiOPIqFNQtdKB4/hwHB+plCiVCGIsZYJExiYpkqapIQgMhkHuOIvXdTEALc6fvoZOWzvM/zrZlvktE0peJVGi1kaGr2/9EoNBB9VKE6VSHVeufIwbN/4IcRzhpLOPVmudggwhEARDjAdjc11peLeuAnLBc8fLhcCCktF6VTXthwZqsxA62fcAhaaxXVy9+jEcz82dfz2vJH82aZvRr8UxsYfHISV2K40yeu0enj+/TdX3TMsV50LJSKo2KaRwHA+t1joYYxgOe8QELyUWFzexsLABy5ncM9nzm70GJsm/aS4PPQ7N4bCxcUWxzUtEcUhrGecmEVmrLcIvVc0ap83zKhTkK9nNcTDEYHCCXq+Nh/e/MOR1uv1Hr7PFNZ6em8lUEK9/l8uNHFone56y9qr7/PvYrPup0VjG0vqqmfdUtVrp557jOYRCsgRG/RHah7sqwU9B7Lvv/jFWz6/mAtRZVkzmmjUdJCsbRgGiKMBw1DXtVCbJZwnDDp+mdB9zVX1P4gRRGBnyySwqSuV8p0yfN52Mzfa9SykRDAPc+vTvce/er9HrtfXkKbWKAHEcIgiGJnFJSTqOOI6wv/8cg84ApSrx4+iWIGiiUHU8lmPh4sX3wLn1xs7v3H5/Ng/g5za3uc18aBedFf3gX1jcmCnDpQlggEngpp2JQXeITudgykmyLAdraxfh2C5c11c9q4mprriuD87Jid3f3kGttoBKpamIiyQOD7cQB9HEmdSQNmu21vvrnFX9vk4EFL+TderUC7nPaw17TVinIb6uW8KLF9+g1zs21ZjRqIduuwducVWFn/Toa6eAsYkkn94/Y0SAZarVhaCj6Hx+nwf1aQHO1GcYw8b6FeWI5b+baCJDMYGeAkTs1mv30G7vAgDq9SXYjqu/TEFbFBqCL9ct4fr1nxiURhhO9LB1j6vvV8C5wP7uFlVHdP+6mstUt0dIcri5mEDj6XWZ2z8A85rpidYBj9K0zwb72b9lQpKAnLOctFOttoB//7/8bzh79gbCYIQgGJpzqGGNQRAgHJFMnp2ByqZp4ZyoueWcodIkmKXu8X3ddf5DHbfTgjZtuqVC2Fbu2kmV7Jn+cT1K8JUbFfTaPRzvk9RVGI0Rx1GOPVwH5nEc4uLF943mMxjDWJHUUXDvwbKcHIQ8GA/QPermpJpOG8us+dP3kE6u5V6X+UA4C6tNM9DZNOPk3799C7u7j9FqrsIv1bC4uI5O5wBbW/eANDUtRQsLG7BtjxJTJ73J/CpJxGxyIHufyyTB6tpF8N/B9fAqVAZAgfG5szdRqy1OfVdm7sni96IgMsF7HMWoLdTgeA6++uxXGI8HpOyg+FEAKK4Jbu4nxigY7nQOkCQJLl18D63WOsJojEH/BFLGMwPL0xKiYEwl06YRGVJK2K6DM5vXwbmgZ1gSm757zy2j2VxBpdKg55pi0tc2GvVwfLxr4OFaZYExBsd28eiLR2CMwa/QM8W0gxQqz1lY9KxEruO5OHv2rZnV1+znfygqI2vFZ4dGz5w/d9P4CPkAG4Z7QI8pDmPs7z83pLZra5ewcWUjl8Qs7n/Wfa3/1xaOQiKA65/g6ZOv0G33AMaIl0ao5KKY8CJYtjUhw2P0/CDJN2kQiNqyjPrZxHZ2emScII5iJFGCw509/OqX/w8eP74F23aJAyQMwIXAaNSn/auWMj0O8pE4XNdHMB5g3B9BSgm/4it/gueuccaAcBzi+ls/VonT2UnJuf3LsXkAP7e5zS3nuMyqQgH0MPX9Khr1ZfBMD1628m6cSJkSY7JyWkcDCuABKDIfciL295+h5Ndg2Y7p/dROmIbL6gr87dt/j5OTPdRqi0YO5fBwC+E4VPuUU3rZrxvzrHGeVonR85P9LuMcMknQ7R7C96uwbU8lIEJYqt/Qtl2qFqpKDGMElQzDEfonParMMRWwWToBMtGt1azTev/CttBoLBtIftFBKtoPfUAXx1ysrq1vXIbt2ZkgJzNXfMIkrasTUUBV0dGoh0TGODnZRxSFCmatgm2kEMKC65Zw+/Z/x87OY6N3btsuoiiA6xDjsJaO8rwydnYeYdgb0vFm+Bi008wtYaromROeg9DnHL6CHrv+jCGVk4VtgSo7aZoiGId48fAxjo5eot3ewcvth/jL//d/x507/6D64FMTdLtuCa5bwsHBC+w924Nf8eD6bsYBhmrbmLQmmCo/Y2i11gxk+tuez+9jxYCn6PCTo2ljdfV8jlwSgCGE0lVobhFjsl/x0X55hOfP7yJNpYHQcyZw8+a/RaNB2ty6V/jhw88oeE9T+H4FSlwJSFPTZwyQRFXJrxE5XueA+oczrTLZ8Zw2b9nxFX9rxuji52bNWRJL6vE/7OL587twHB+DYQdhOMLR0Q7iOMRgcEIVtiRGr9dGHIdgjClZxc6EpZqRqoImAcweq/oDS0tn1Z+/PRfvdZVa23bQaq3jzNkbcH136nvZqrF+TujkJQBEQYjxYAyv7EHYAu3dYxwcvDDcBgyZexbT51Gz0FOyqGy4E54++xrD4SQhor93WqISgEk6zXoOMEYkmbXmAlyXUCFghByxbReXLr2PcrmBo6OXcBzfPN/0mqMTThqNQxV62v43936Nz3/z3xCMAtOGUty3tkkSeRoJoYPQRmMJzeZqrgXjVc/872qnJciy/9u2i9W1S3By18QkuPXKnpnv5moTlWYF7aOXSJIY1VoLZ89fQ6le+l7HpZ+XcRTjcHcPnZN9hNEY3e4RDl6+xLg/QhTG5pGgg3mtpsK5CvAtMVVm1ygNPc5Zy6y+Z6OQtOiTKMHLZ8/x5Zd/g3Z7B0gJVaaT1FJK4z/o4xfcQqu5CiEsU5nnQmDnyS72nuzCrxJywfG0nKSC+StS4dZqE75fPVVSbtaaMg/y/zBtHsDPbW5zO7X6kH2fMY61tYtwM+zzwPRDW7O96yAnSSQGgxOMRj1TUdNyP5wLPHr8hdFMH4/7hsQMgIIkEhxSBzjDYQflcl3JyYXY3X6BOIxnjmPW7/yYZj/Aipn7WQ56mlI/cvvgEHEUYnPjKqrVJmyb5Irq9SXcuPFTfPzxf8TGxmX4fhWVch1a9z4MA4xG/UkgpmDaQgjjjFkFkid9DJZjoa70YU8L2rPj+L42K2CbVNcEWq01NBYXMomEyXe5qlQzxibs8Or9JIlNxUw7r6nSRtYayamUcBwfo1Efo1EPtu3CdXz4ftUcl+uWjIpBHEc4PNzCk9sPEQXRpMil54BRJdQkmzKyYsheM9mEjeCm8naabnxeJixFHMYY9Ya4+8VnGKh+fYCgzY3GClWS4sjMrxAWxuMBwnCEg/1nONk7ge3S9a97GQHkiRN5/vwuL5+bBAa/RXudwyeEheXlc6jU8ooExbWFKziwVJBVKVPs7z/PjSGKQ9y69Qt0TvaxuLCBUqmGVOblFXU1loFg01wx/C8srKPVWgNAJJl37/4Kj798hMisE/ljzwVCGam37H1kjl2Nq4iMMfNRYJ5PpUQcxxj1R7h7+5/MetZoLBtJyOP2LmKV9LOETYSXoL5uartJzPVKc6Z7oZUUXgbCyxhDY6mBUqkKwcUPXgNOs1dV7zRR3IUL76LWaOWOT/8uvpY9fqpqSghboNIoo1Qt4c7nn2I47JqAl/YzIQ3VJoQNTWzIGEMUBdh68Q36vbYJwpMkJkj0jP7p7PhmJXFPM8elXn89DsuySQ7R9RGGI4JqD7vEPK8SXWZdl9JIplq2o9qHYriuj8Ggg/uf34Wl1Cc0zLxYNdfnw8q0lBUDfNf1cebM9Zz05G8j6XvaXAlhodlYQblWMvtJ09S0wTExQWpxwdFYJuWOWM0FA0OSzB7/q/affW4xxhCOQ3Q6B6ZIECcR9vafIhyHiENSrCAWejb7Rz8nJCXmkPMVqFXL7DvzPajrfqQSBXtbL/Ho4WdGajArK8g4R7lcNwor2daHk84+pExMIK4TgLqYgTSlNhvVgqUlXbWvcfnSB2AsX6HXf2tkTHYes8ijuf3h2DyAn9vc5jaV2S+aEBZcx8fa2iV4pYkcDeN550tDSrk1gRsSVO3IBK5xHGUCVBtIU/R7x6ZCApDzfuPGT3Hx4vvwvDKq1RYuXXofZ8/cwPLyedTrS0aSZ2fnsXHGdHAg4wRxPA2TzB6rHuus90+ruqVpSoGUIu4bD8bgnOPDn/wZrn/wPkqlGhFsxRH6vWPcvfsrfPHFX5sH9GjcN/uQMjZVNn1MWiJqchz5QAGAkecjvejZSYhXQQe/ixWrM9lKBuckj+aW3MJ7+WtCKCUCgKTkWmstInliul2BrgsGZoL67Jz87I//E9bWLpGjkkQYDrtgjEjLtEOsqwmcCzx69DnGgzGSJEGRTEwmKWLFMJwLtLL639n5VOWLVKE7sgF/ESoNUPV91B/h+cNHePr0Kzx79rVytCrodA6NRFqeCZiqLIxxDEc99I97CMchpJxNrJWm+fMpLIFmc3VyP+HV5/u3EcxpY2BYX78Mt+ROqTowxqYq1qmUGHaHON47RhiOTE9nksRmLIxzvNx5hNGwZ/riLcs2MkuCW/D8CjyvQkzjQqDXa+PwcIt6kRlDGI6wvfUAg5MBoiBEMiNIzwYCGhorpVTO72Q9y1Y6i/feLEQGAETjCPe//hzto5eIorFZH8KQWilkmpgqMslZxQpKHap1NVH7nnwme08WEw1cMKyvXwF7RR/8D7VZgZM+Dtct4dy5t7G6euEVCeHTk8Z63fArPrgl0D3qot3eUVVqrki9KBkMNukp97wyLl/+0KhWJElMz5wkQqO5ilZrHa7rYzjs5nhGsvsuJoCLVpx3AOa61MgH+j6HbXuo15ZMotF1fPN3ksRK1z5GGFEPfByHqFZbJojTmvV7u08w6o/ABTctQcW1rXjss47fcmy0Wmuo1RZfmbx41fi/jZ323OGcY3XtkklQ6s8kiqDR9ZzMNoByozzxI8IAKVJYloWiFcdSvJaK7/WP+zg+3kUYEXqL+stHCikTIQyiyUHo45T5Z0OapghHIVXSY5lD5JAflHlcqHUhiRIMOwNEQYTj/UM8fvyFCcaTJMZYJavDcATXLeGdt3+Oj37057hy+SMsL5+F71cQRmNEYaAQJmPIJAHnFjqdAzDO6XgSOXVNZ58nm+eunXpPfpd7YW6/X5u+E+Y2t7n9/9pmLdaccaytX0KzuUwPKYmZDoS2rFZtoAjsdKUVmPQu1+tLBuoYRQFKpSp6vWOkqcTJyR7K5QaEsLC0dBYrmxvY29qG7bio1S5Byhjj8QD7+88QhzHSUmqIn+KUHpZxGufYjIsVCwORFtOkdVOBjmK2B4A4ThCOQ+xsP4WUCZFq+Q7On7+J4+NdAwcHgCgKMB71FfR7bDanq7DVVhXBMKDKmoLrpWleD90EP1L1EToWFhc3IYSNOI5yD9piYPFDH74zrwcuUK8vYWXlLBzXRnaqzLxxBsjUkEWlaQrbsw3Rjq646304LiE7woDgg4xzDAYdfH3rlwYqmKapCmomZE5xTFUHR7UvDIcdDE4GcDwnH6ir+ZSJRAzAUhWWWGnwWrZlEk8zA3k6UBO8Z501/ZFgFOD5/Uf45ptfI44jOKq3X1fjDg+3wJjSKbccjMZ9aPJGISzieni+j8XNRURhRD2YqueZ5j3fj63PTX2hAd+vmLl41Tl/U85Y0bnjnMPzK2g112C79hShZJqmRh7SBMNJis5hBy8ePjHXuz63+vqgvmIbiXHIuWKPJqfd9ajH+OhoG/3+iQr8NUtzBJnQ9w4OXmDQGUwYmpWsXG5MMh+YJXGijuHb1Tpm6ciHQYSXT15g++VDBMEIXAhwYSEIx2gf75o55IxlVApGRMaoEwfqfGtiOiamK4+MM7B0UtleW7uEhw8/M9wRbzpxc1oF3rYcrK5ewNmzN+B4zkxotznmQuJBm65g2h7JtT349B46nQPTG84ZrfOWRdX2SAV3o1EP9+//M4iLhN6jvvIRNjYWUK1ewbNntxHHkWlXmhXgzUp+zlpTc2NixNlC52ySUKg0aqgcNdFoDNSzwkMQDDEc9jAeDwxBI2MEj7aEjTgOaY2wXSRJhP7gBMe7bQMvp3th9jHqlqtZ50dKiUqljo3NK+h2DxHKYOZYXoWu+C5W3AbnFlqtNTi+M0k2Ze4t23XMWitsC3EYYzwYI00l4jik9rsCA382gTXLZiERjvfb6HQOjD8iZYJKpQnbtc08hOPQ+AxmG4leVxKEoxBRGIMLjlF/BMen5IPjqcQjJoE7sc6nGA/GGHSHGJwMsLV1D/v7zzNzwyGEhygcw/eruHr1Y1z56BosSyAKz+BC9ypePt7GZ5/9f+h124TucHzTejgc9hAFEZIoyak7JFGsxjAhiawt1FCpNJEkEbWvfcvzN7c/LJtX4Oc2t7kBmH6AaxPCgl+qYX39CvxqaWb10pDXiWmnKImTCekUYCCiQthot3fQbu+YioQO3m3bw8HBCzx7dhuO42FxcZ1glUmEXq8Nx3Owvn4FjkPEP712D8EwQBzHVHnNZJKTRCIaR6qqOZGG0Vnp7HhzjsCMSlqaSCSJRBxERLx1vIvnz+/gs8/+Ek++uYfhsI9et40gGCIMx0iSmCDSwYCcNdXTpon6OOdYWF9AqeorxzwDy9Wya0m+D17Pc7ncQKXSzPU+z/r9fR33076nK91nzlxHbaGWi23pe/kgfqK9LlCqlhCHEVXNwEyViTHqGeVcKPKtCcHOy5cPsbf3NJeAYYwhiSN4XhnN5irJ69hEGBgEI9y99RsMu0OEQYQkJlZ/6m1MDRkRAKPdyzXbe5ohtNODmfF3mk4Cd30vRGGE/ad7ePL0K4xGXSBNEQQjhCGRsnW7hyAeBKq09QcdUhxQlZdB/wRRFKDTOSQ2faWBzDk3iaPsec3eY45nY23tMgW3M5yu10FMv6vNcpo5F1haOotStXJqsKavaR2gRUGIgxcH6PePp8akt6HJ7DyvDMtyqGWCETQ6DMcYj/vY23uKIBiaa9P3KhQoOB6RnXFCN+y8oGSf1mDWcHmDHskk8vT/+lhmJcmKFfti8J5KifbLNp49u019rSoQHw17GI26Zg6llIqoLzY93jJNTFJjQso3mUuK62cEkimNd2F5BaVSFZzxH3y+T7MiMkcIC43mCs6dexvVeiMHk8+iGGYlf/RccMGJlT4hpFM4DvFy5yFGiqxQ35+cEfKkWl2A4/omsSPM+jEhFOWc4/h4F75fxeLiJlzXRxJnEoh8+rrTCBFdqS8+H6eqy4IbeVPdAmFZpBXfaq3CthyMx30cHm7j+HiPkBdSw8G5QRO0j3cJQh9HGA17GAy6CIIhDvf2EIwoiYnMtavnMTu3OXRA4T4VtoWFhY2pKnyxAvumrxnGGCU0Kg2IGezxjDGjDAJQ8DkejBGOQ/OstCwHtpvXsi+uGVOJrcJ6GIe03mbbmCghvUgKJYqFfrJ9KBTZRP+deF1sRTSqVBPCGMEoICm4TOCuk3rjwRj94z5G/RGePPkKW1v3VQVdyUPaHlaWz6HRXMHS0hmsrG+S3xJEsGwLftWH63sIw0CpjnCz5mkulaOXR+ifTCRtLcfO+RTZ++3MmeunPi/m9i/D5gH83OY2t1Mf/gAt9mtrF7GwtGZemwUfLkI5s6arMELYsGwHQTA0us5JEhuCOw0xlkmsnHXqCX306Avcv/M5HMfH5WvvwvEdLK2v4uzZm1hbu2T2E40jYi4OY1M9E4LD9mzTW6ePUwgB27VNP27OIdfOXWF8cZQgGodo77WxtXUPx8d7imSqiwf3/xmff/5XCIKh6YljKlANgpFh1q9WW2Z7QtjwK75h7M6dk4JcUPa3TCRc38Pa2sVTqw+vq0y8zk5z4jgXqFQaWF4+C6/sZRzebKGa9ikyzPrCEvArHoJhQERjKtjSQVcUjTEa9aD7VwuDISk5AJHSTnZcH83GChYXN6lCm8TgjFAeT59+jcFJH8FgjDiMjIb2rGqfZQsi2RMT59EMKPubMeU4p/mPyRRRGKO908ajR7eMBJBME3Xuhzg6emkqHVqFQDMBc65YpcVEVSCJJ+OXir09ey5kIVAUtoX19cu5NpTT7E1U12Y5yZxxLC5uwq/4Mx1ofT1zzsz1rgPp7LFpGTjLcuD7FcOJ4XllICWSJ01oSHORYDweqMQdV9VVggqXyw04jmeID7e27mHYG5IEVJRAJhNn26x9SprtND343PFmiRILn0mlxKAzxMutxzg52cucRyJp1FXarGa5CYTVayS7OWkFKp63XFIhS9gI4k9YWbmQO7Y3abMq1+VyHefPv43F5fWckkfxc9nnhBmzYh/XUl2WYwGcoXvYzXFJaNJCLgTBoMMRtLwgGDOJYkDrZPcJ2bL/DPv7z1CrLaDXa2Nn++mU0kQ2IZFKae7DmYmSjOlzMxicqOSwhEwTlEpVxHGCTucQne4BwmBs1DU0EWOKlIK4NDWVZsfxqJKvEGWjUR+DwUkO2VZMnmSPI/t/8XylaYp6fQnLK+dyvfDZbb4JK26Lc4FGYxmOgskXEQ3CtnLXyyRRS0kOIjucTVD7qmOe5YuAMbhqXdBkqaVS3fgFxDovSNo1m2ygrBl9zuKw1VgMJ0kiqQqekEScvq6iMMagO0DnsINHD77Ew4efIo4j+H4VXK3ZlXIdzdYams1VlMsNHB8eYf/5PgYdavvp7J/g7u1/NEG7lAmEsA0HiON46J/0EYwmFXUhuEEO5lQKOMP6+qWp8/DbSvTN7bdjcwj93OY2t1ONc6r0Li+dJce8UHWcZbqypS3nwKUpBbjIOxRaOmlShbEQx6GqRoVITiJFYNdDqfJjtBoVAMC1t99HMAooO10iVvYkSRR5WiaQkSkgXt0Xp39ToE5OoLAEmJwEfVEQ4XBnD1tb99DpHJo+Ve00+n6VSIuCkWkZSGRsoLHaqXHdErHHcmHkXibzMV1JzzL869+O55CesZLeyzI5zzon38VeFfxzzrG8fA6NhdZUIJkzmUK4mew/J/ZsgIjFqFpO+tyaoCdNUwMDF4ICXc45bKtE5E+q2mAJG47rodM9QPt4F1r3O0UKwak3tnvcRX25kYe9C319qfMNvDpoByaIkzSduv5TVSE83jvBswf3cHi4pfp0LVMJTZJowpzNGACquuuxZANuVqiW6uswf32k0Ez0amiwLIHW4jJqtUW02y+heJ7eSLCetVkVLoCc81K5TuoIno0kTmYmSwDA8d3Me5P+VcYYLGFDWDZKpSp8v2qCc50Iox5YG5wJRHGYa8mhZBH1jw+HPezuPiZdeWFDSprHQf8EvXYPpWoJkkukqUoq6OSJQhOdNmf6uDnnOdkoxpiCyUrVqkEVt91n29jff5bj/BDCQhQG5rtxEqmEFR27YZyGALcsJElEgXycILWF2X/xmIrnyXYsrK5ewKNHn+eIE9+UFc+tbbtYXb1AvfeFY3pd8kFKCYGJQgDnDG7Jhe3YaL9sYzwemMozADAwjMcDOLYHzi1IOZ4kRISFJI5Mb7xeG1qtVaRpqlQvAjx69AXWz1xAuV7OHVccUttVmkK1NZ2u7pAdl0ykkfyKooCSs15FyYUFsG1vJlzZcbxJG1QmKZWqXneukjlBMJpUrgvB76x5nfWeNtslosfd3cc4OdmfIil7E4Fccd+cc9Tri7Q+JNKsYQDABCmVZPebxNRS1j0i4kKAEvzhOJjadnGtKSYHsu+FoxCjUQ9cWHAc37TA7e8/RXO5hZIi2DMVdMZMUkybhFSJ1oTUIdT9LSUQjUPIRMLxHTAmEI0jdA47KsH7Oba370PLoxIJrQRA69ne3lO4bgmMMQwHHfKNxiEO0hT7+8+wu/vYEHW6Sqo2Us9LzyvTupCq1kDVfqVb2bLzwRhDvdWEq9RxpHx969Xc/vBsHsDPbW5zO/WBTf3nZ7C0vDn1HmPUi5mtDmWDTCklBXEWaZUyxhGpPuZZGraaTVU7YmEwQgqShtIORrv9Eg/ufYrFo000F1YAmWI0GiAah6R/6ljgCc9BY79PFVpYBN+TcWICJQA43m/j6dOvcXKyhyRJTCUwlZKkzVyf4GyKaEmTcdm2YwLTXu/IOGVCiKmqyrc5LwAFkZVyA43Gsgoc807Y66pGr7JZsESAzpPj+FheOotKc8IGrwNJ/bf+HlfOr64QCsEhbGtCWpcJ3oRwcqz6XPWSMi0XlQ1ikSIMA/MZzdrsOJ7p993dfYxzN86bg2JKAqgwUH2wuZezbSKaPTgOY6qYa4ZhRozInYMOXjx+hOcv7pImOaN+QwZivdetE7pqwjlJ2X2v0oUAACAASURBVOlqYZLE1OctiJiNglhujit7TxURLpN8Qwqv7GFl5RyO2zs5p/V1gdS3teL2ik5yq7WGar2RQ+XkkA6WQJLIHLO+DtaEsKjS7lDfb6lEKhOaaVmrVNy//2tDcqd7iSkZwsGZMI62lDGGQ1prfN9FGKSQKfVC7+w8xPLZ5dx9VzznxYp3MSjS9zwwqXjrcUuZYtQf4eDFAV68+IYCL3V9AopYTaoEDs+vFYzx/I2UKmZ9nlejoGPCVGtN9lhJ9WAZnlfGaNSb+tybNJIoW8b58+/A9V3DFF6cw+I1nL2e4pBI3dKUKpqWbcHxHIwGQ5P0BWDWgzRN4fkVRFFg7nnbdnJJMEK4ENnp+voVrKycxZdf/i0hvaIQx4eH8EquYUEHoAjVLJOIFmJyv+r7MbuuqcEhiRM0GstgjBvYfrlCCUSZStKfT6nXOk0TjEZ9c9w8c31oFAkYoXe4QqDoXme9v1nr+qzAddY6IKVEo7GCRmMF/d4xojR8I0H75PCm1xkGhkqlCdck8JA7T0w/RNSxBqMAg+4Q7cPdyfZOSU6/KuGW/Z2mKfrHfRwdvVSVbA7HpuPZ2XlMBIPuO2itUnKaAwDTbT8klxsFhOiSSWokaxljCEch4ig2KgBu4IJbHMPOEPvbO3jx4hvs7z+DENS7niQxwmAEqVo9dFuf61KyOgjHiJMIBwfPcXy8i163Dc4thUSIwbgwRQApJXy/QhwJittFDRiMMSRTvgHxDTRbq9jdeTw1n9k5m9sfrs0D+LnNbW7Gig5AqVTHysp5lOrlKWdRV3m0NJN+jXNOsmEKlipsC6VSnSqnlgOZxJDphNhIygSCTyqRjDEVtCeZ3k/6iaIQ+/vPcXS0g2q1iTRNlcSYh439y3jrow8mx2FpeHaxwv36CrVQlS49tlRK9E56ePr0K+ztPVXVVKquMsaJQVpK9PsnJgGhHTMAph+eoOIhhJAmGNbyQNlgmLEJGVGO6Z8zpMmkfcGvlLG4uImjo+2Zwdqs8/ptLPsQz18THI36EloL65j4W8UKEFV4kogIfpAqfu00NdDYIBhCWDZs7kL3q2ZJz3TVdBKojdTrAq5bUg59As5daM6EZnMFDAyd7gGSJFHkhhEldQRBUXUwnsvK6EnXB6/nPBssJRLhKISw8wmXXruH/e1dbG/fx3DYRYrUyEFlUQX6Wk6lhFeqod8/NuJXGqkRA3At0oPXLOOWYyOOEhMQZY0xGGbhNCXCr2ZzDVCV/SgKZyavvq+j/ir0ipZuq9TLufNofnMGcAbBhbkfibWZqkQTLWypOANCcF4luS8ZGxJDXYnLBj4UpEjESQTPLqNaaWIw7GI46KBWW4DrluhejkLEcYhnz+7g3IW3sHx22RBPzXL0Tws0qdddJwgBwZGREpToHnZx8HIXL18+QhCMUPKrGKQStko6xQo5IARBxFMpYVkOHMfDaNQ3zPmWsBEnESxhw3YoyDSkdqAgN8GrAxjHc9BoLP9WAvjsPl23hDNnbqDRWsyd/+JnTwsq9d9RSIkN7lgUxDsKgRCFSJLIfI8zDsf2TKCsYcUATDJICIvI7iyN+hkhCEaI41Bxh3CUy1UAhbWSc0RBZNZhulaVWkYUg3EOt1QgPVX73ty8ijPnrhumdGEruTtGBI+O7aJcaSjkVmQS3WZ+lAY8scxzyFSaZyGReKpdZa7N4hzmoNKnXBdpmsIr+ajVFgkNlpnbHxrIZ7eTPe9cWKTSYotMjkojYAqIEikxHoyx93RXISzofu8PTtA77pp2lOI+Zx1H7jUp0Wt3MRx2AdDzBIzD9ytIkhiHB1vA18DK0Tksri+g0qwCiUSgWOlL1RKkko7jgqFULyOJE+JbGQcIgwgylrBdG8PeEKP+AJ3uAQ4Pt9Hp7JM/pPTbhRCAZQMqyW9ZDkqlGhzHg0wSSBFjNOqi3d7FYHCCJInzxIb9YwCE4GCMwfdrcHyH1leZgnEYzpHivADEobGwsIGdnUczz/sPSfbO7Xdj8wB+bnOb28wFXAgLC601rKydKzg4ea1ex3Mm+qNqW9xSsMMkRalawvLyWTx79jU9FDgHV9BVy7Jyjocmt0ulBBfCVCgnjo6E43gIwzEOD7eRptK83+sdwXF9nLl80QRZrABPz9osR6XInK2drP2dbezsPMbLlw9NQAYQNJMhG0ikkJKCeg35jsIAYExJhwlIqY+JNG8pEFPw90TmigzFVoXsAzlNUzieg3KphmwVeta5/a5WRFPoYEZwgcWlTTRXm1Pwec4n512PJ4kTWDYlUoJxiN0newhG1ANP1TEd5CpIoiIgBCYs/Rpub1nEbG5ZjiG0CsMxSiWq0NZqC+h2jxQyYoxLl96HsC1DSGSmoXjes8H8rOtE9TMCQBREFHgyYNgbYfvRc2xv30cQjGDbHqQc0likRJzS8dfrS+j12jSnyDvYuvIeqeu/VKrCK5fMeRcWXSNJfxpKr8+Tfl0Ijmq1Bc8rG6m94jVedKzfhHEuUCpVUa8vwfacHN8AQBwDTHAkUQK/4pn3GMtoKuu5TifXv+P4ODp6SaSVjm8UHKjS6ip0CxEXaiuVatjYuIKjo5cU8CBFrb5E8864SQTc/+Y3KFV/jpbfUtD7/Jg0tD4bjCRxYojq9PmJI9KMtoQNcKCz28XTB/fx4sVd9PvHqFYXcObMdURRgO3t+xiN+gZppOdBpoTSWF29ANct4eRkHwBU640Fv1RFc2EF5UY5T6jGGWzHMpJXxSSl1ouvVhewu/PYsNG/adPV983Na7ngXFsOhWGLicxnRsYtG4iavzPyfSl0vze1RlmWDVehMgAKYjQaqlZbxPraJcRJpFjeE7heGY3GMjgnMsRu9xDXr3+C+lKd+BgyXAxccCI6NOOITLKGa1KyGclRx3Pg+i5sz8612sRBhM0zV+H5Vbx4cRdHR9uI48j0wgMZJIUKXoWSImVgEJZtxk7zMz3/wuJmPrlgcDwX48HkfimaPuZatQXH9TEa93OKJ28iiC/uz/PK8NzyVBJHq4nwLAeJ+sywO4LvV8x2wnCMg8MtDDsXUWnmyTKL56S41qUptbW025pAUM15KhEEQ/p+mmJn5zH295/DvuOiVKqiVKqbAPvdn30AxhgOXhzAr3hY2FhEc6WJQWeA508e4PBwC5wL9RyKYNsuRqM+0lQqFCLNAwB17iNISQlQzyvD94jzIwWtCScn+xiP+oTUYcQxYdueCeg1cqdUqqFUKUPGCZhNkH8tZaeZ6HWyXSd+uSXQbK4otYY0195RTGTO7Q/T5gH83OY2t5nBmueVsbi0SVnnQjWYYIQcwhY5p3JW5aWx0sCwtw7/6wqGw54hXZFpYpjHNXEPBXEEmU8zGulELGPBtnVFqY/j471cX+do1EcUhQhHIcr1MpjqZZ0lATULJparHMkUju8gCkI8f/KAtMXHA5U5J3glZ3niMR2w6wq8cVSQgqt+fN375jgeMdK7NqIwNozjSSYotmwr51TleAWUpBwXHH6pBtctYTTq5R682WP4vkF88f9KtUkszp5jtGaz+xGWQCpTxDExfUdBBK/skcMeJzh6eYhhjyphGi6cSA1/dSFljDimnl8NK9RkT0mSqOpCYqq4SRLDc8u4ceOnOD7exXg8QBiS03fhyluGuDAXJMp0mpioME7tzGnTTqZUxIij7hB3v/wUB4dbGAw6aDZXsLx8Ds+f30G7PTJVP40QoYqrwNtv/xwPH36GWm0BADAYdJHISVBl2y5shwIKTTFrOxbGIMhjFISZe3X6nHklH9VKE+PxAJwn5vrJjesH2qx7p9lYQaO1NBOlQxOniCMzaJMs90MWJSOTRClSHJlrmjFm+oqlnPAH6J5xLbEWhmNsb91HokjwAM1ib6NUdog8DgzDYQ+P791B//gM1q9smD5oqZEOJkinynqSTKrvURBN3VNhEKF72MX9O59jf/8ZgmAEx/FRqZDzH4YjOI6HRmMZwyGNyXVLBhatK2tvvfVH+Pu//z9pLVEYjUq5gcXNRSxtLOJ4/8RITnLOIaFbM+TMdU7YFsrlGqDm+E1yI+ht2LaHs2dvwvXdmc8RbZYtqH0mig0D/GnBJWMTQjDGSKmC0Ez0u9lcw8LCGvr9E4XMoPvNthz0em3sKUlGAAax026/VHKlIa5c/ghrm2fN+h0FEZ4+uIfhsEu99epcLa1smOA9VWRg5lmYSzylECpRKZM8AoFbAn6thGhnjJOTvVy/u74edcCONFUM44QAch0fXAhEqoeeC6ZINPOIEf0a7T8FFwzCFpCJBIduK8lzpKRpCtcrG6TCrIr+97XidzkXRCjpuur9yfrFLWHmzHxPXz+cwS+XzDYoedvFoDtAuVE24zjtWHMJrThBe/cY+/vPoCvhDIzWCkbPntG4j3K5gZOTfYWY4ybR6ro+ytUaHNeG4zuoLdYgLI5hd4Bhd2ha67QPoJOoAEyi0fcq6nkgiaDXsuF73IwPjJA3QThCMB4QskQdg+DEPN/vHyOKxtQypHhB/gd7b/YjR5bf+31ij8g9s5asnWQVd/bO2TUaSTPS1dW9uoANyLgPBvxswH7wH+O/wX4xrmEDvpJ1NRBmbU3v02Q3m82drL0q9y328MM5cTKzyJHVPSO4DdTvhUUyKzMy4sSJ3/JdSqU6hbL3iuaZ7E8bOmmUKLE9EM/qUqmOZYn7djaXOnv//iGeG+fxh4/zAv48zuM8gJfh85XKAqurl6cP9DPTYMux5CRlZqojc8g0TsQ0VodSrUhjpU6zeYlnz+7Kon06hc79vQW0fLolWZajFN1TXUfXU5aWNtnefkv5C++9eMiDLz9A03WuXfsOqxsXGHT6GKZBdakKzHNb87/PxmzCkicxaZbhFlwOnuxy/4vfMBr3BJTVchSkO45DbMOW0zkhRGUYQlCuWllkMOxgWQ5h6IN8QObFvyXhn3EY09pvEQWi+y1EcaZFkO3aBJNg7lhn4YZZllEsVlhYWOP0dFfxKmf///ct3KZNAJ1arUlzbUNBt9WS0XNbOI0gjIT2gWW89D5CxT9STY58siboFRa+HwpIseUqcR6ANEvREUmOEHPKhclMQqkuHoYTCoUK43GfCxdeo7JYkZZUQgxpjtM+O3WfOT5AikdNz1cUxmi6RhSEGJZJ6Id89sn7tNuHkGVUq4vUak3ZiIpU40H49ArhqmbzIktLm6xt7KDrOu32Ab3eiUQVJFimUNAuFKqU6uV5BXQpRGRYBnGsK2rK7DUWf4pGV6FYxem3IMsI0+Cl1539+V8aryrK8kK6WluWloIvJ9N540E3550e8p9Ny6BaXVLnwnZciVYRe0EY+rz11k84Pn7O/v4DNE04DgivbFeuH0vBqHPLqbyw7fdPaTRWVDMoDMVkstM5ots95vnzL1he3uLqbelbLvcuXdfF78SxsD5EFKHBJGDcGxFHCZZjUagUaO+3+Pyzd7Fsh0Z9lfGkT693yv7+Iw4OHisqjaEbrK7usLFxTfL5QzU9Pj3dlfuuECLMz1G9sUJ9uU6hWmTUHxOMg6lqfpLOTeFnr0uWCr2BYrGmeLV58Xi2+Py6DT5N0yiVaqyt7ah9S6ErZgpCp+BgGAZRGL2E3BEFkq4aqPn6SJKUYBJgWTa25TAe9ykUKpRKNRYWVtXnWZbLeDwgTWOERWhMu31AFAV4XokoClUxH0WBQAqQ8bOf/m9cuPgaYejz4sUXDIedGWqGoDft7LzFG7e/r3QNJr0xxUpR0YHg5edJ/p0AsiQjDmP6rR693qn0sdflFDRRgptpmqgiPv/8fC8DlDWdul5nbCUNU8ewLEKpQB6FMU7BES4cM3ZzZ4/RNC2KxSqDQRvDtJRY4O9qrvy/xezz5qV8otzALXnkzhOGoZOmopCMwkg1SeUviDWRpBSqBYpFQTtYXt4SFrO7x9SWazN8+pepBGePazL02X3ymF73mBzNkEgERBhO1DFPJ+YFwlDYgIr1IKDq1eUaXsnD8RzSNCUY+RSrRa5f/w4ffvj3TCZDSqUaliVygzD0JfonZDI5FNaCblHeI1MHHIAkifCDVFEscnqVaADbCjafpimZlqnGVqWyiJtb0Wo5/UveR7FoHgtnHYDp+TdNIaKXI+B+V8P/fAr/zYzzAv48zuM85jqtmib8a2u1JtXF6pzach6W5BVHQTTlf2aZmhrlNlGmaZLEKW5RcJQfP/6tSOSiUE3eZxO+fEItpvAxlmWjawZh5ON5Jba2brJysamm65WFCrpu0GxusbixhGEZ7D9/zJMnn7K4uMHq5gUaK425jv9siMn51KYrT94NyySOY8q1Gteuf5fT01263WPK5QZra5cpFqsc7D9iPBF8PN8fqQSwUKgwGvdV0l4oVJSatmGY1OtNPK/McNgRCuaHbYJxIL6TPpvAJhiZMUdREIl5Nn1dKhLYHAZ3tkD6unEWjqjrOpblUK+vUF2uKdSFen2S4hQcVdgnaYplCSsewefU0FINwxSWbfnEbHn5Arpu0O0cSueBiOXlLdbWrtDtHHHzje9QbpRpHbT56P3/gh+MFPxUTGRMwnDC4eFjyuUG3/7+v+HLzz/m5tu3sV17qiRszKMikEnyLJRTnfc4VcVBPm2LJhFeuSAsgqKYra3rAPT7LWrVpbkJaxgKvr7nldF1nUZjjXK5Qbt9wLNndwmCCa5bkhx1HV2XcGndpFIWKsiqOTKzcJMowfEcJoPJ2d6DutZu0aVUqpOeteE787qvk5y/ClYpJmtVqtUl4YUcxXNFviEpFUmSor2Cj5nGCUmcUqwVqdeajCcDCl6ZldVtwtDH84RQ4nDYgSyjVltmOOxIrvxEFvGOPK4UMo0ky9D1qTNDFAWUSnUGgzaW5TAa9Vhb25FFX8rz5/fY3b3P8+f3ePs7f4Kua5TqZcqN8tz60HQd27XwRz67Tx/Rah8wGLRwnAJHR0/RdYOlpU0a9RUAxuMBQTCWIoYJtu2ytLTF+vplFlYWWe5eQNN0wlDQL4JgzP7+Q6nmvs3BwSN03WBhYZ3qUlUJc6ZpKtALSUqSpDiegx4n0z1YNi7QxP3mukXJu08VzWb2Gn5dlE5eAK6sbOMUnPlGLlMovGWbwq5T14mkJkVeaM4W+md/L/IjTNOgUClMFbulKnu/35rZB4QWieAIi0IpikRjBFBFj2la3Lr1R6yubzPs9+h0jxh9LiwJReGazh1DEIw5OnqGP36H/eeP+fzzXzOe9CkUqrzxxp9w4eoV1XiYvT/y3xfrO6V1eEy3e8Jg0MLzynLdRpJ2ldurCjSJIe0wAZJklL8ZjlOgWl0UQqCmThadKZBnbFA1TQhumqaBaVtTHZcz97ymaRRKZcrlhoR8iwbIrGDgV10Ps+89+7OGJjQAHGsOAQDMNSvn16X4fbfo0missLf3kH6/JZviE6oLNdZ2VhVt659rVEdBxP7DPV68+IKMDMu0SST8PH8emJbwlx8MWiwvX2AyGVIu1Tlt7aHrAhWRRAL9lUQxft640TS8ksu1t1/HdYu8995/FoW4PxKoCU2nUKzS75/K+zcRtLA0xbRsyAwsiT6MokBM1eXPuq6LZnUi9pC8seC6RdrtQ/lstqlWF3FySzvptJKfibk9ASEmCqIxrJs5gvBl3ZKz1+N8Cv/Ni/MC/jzO4zxemkJ7XplGY/WVr9U0TRRHmbD6SpIUzci9yR3icMqBNSypkFouUKksKpg0IAXgJOQ8yxSnNYoC5dULEEQTNE2jVmuyvr2FYYnmQe+kx+GLXXq9EzyvxLK+jK7rnJzu0usd027tc3DwiFqtyfaVmyxuLAKQznTr82lHfry6fO80EUV9sVrk6muv09hf5eTkBXEc0misUl2s0txY5Wj3gEePPmY47OB5JUajniw8Sqyu7tDtHNGRsDpdN3CdAs3mJYJgjG17UuxGFHymTGQUDFMXiZhTEFOGdOYhO8uFt13hl53zKc9OJPJ/+6pxNgkrFWs0GquSpz+/XnTTwHYdxoPx3OeGQYRTdEmVn7Jo/uT2PWHoUypVcdwivd6JEBI63ZXc9gqPvvxMTEfSlHpjlRcv7tFoCOjsaNQVxW+SEgQTKpUFDNPgj/7NXyiodhxG/OanP2cyHmBaNsvLWyyvr9BYW5g+/GaK+jTJpMJwimEaOJ7N40+f8Ktf/O84ToEf/eS/pr5SxysXCIKAdvuQSnWJndev4ZXEBCQKIn77q9/w9NldgsDH90e0WntqveXoDBBFRQ4NLxar1OrNaSIu12USi7UYh5EQKTJ1aZOIfM9p0eMUHMrlBlEkJu+5rWIev09z53f9bqlUp15vzkGH88RP7BMZpn1WqFFCf9MMy7W48s4VWofH7O19ieOIiVu1Kpo8h4dPePToEyzLmTbapFVfXkDuXHmT48Pn3L//nipEhACmThhM+OyzX+F5Jcmnd6nVmnJam7CycpHhsEccRwzaA0zb5MmXX1KpLLC4vkShXMD2bLFuXZtirUSrfcC9e79WIpvlcgPfH3F8/FwUCbK4rVWXsCybfr9FtbqErht88vFPGf96QBQFlMsNbr/zlxwcPsY0bV68+JzJZMh43KdYqBBGAaVqicZqQwhlycI3yyQNJE7UPYiOouLM3reW5ah9Veh6zMPc89d9nQTdtl0WFtbmivfZ97FsU+1fWSZE/uJENMhMudcmUqTRkHB2xZNPU8IgwnYtTMsmS1PCyKffP8XzSjQaa2iaxuHh45n9fFpMh4GYnpbLdba2bhHHIdWquJ5eyeNHP/qPJHHEaNyj329JeL24b0zTouBVWFzaIPJDOl2xj2eZEFl8//2/xXWLLK+vqGby3HfPBMInjmJVaFUqiwyHHdm0FvxlzyuRJglxEsn7IVGNbHWfaIIjXastybedv75ZJqb8sRQAzI8hjkXDL/RDZes4G/n1r9dX2d9/pJ63s9SOrxL5vTn73vkxarohkBSSZjF7LEpg1JhvQuT1se1YrKzs0O2eyAK7zWTc58Pf/BTT+kuaF5eVdgBn1nHezNj7co/PP3+XwaCFZdqkcuKcpSlpJvaS/PldLi9IEUSDYqlGFIdSs8UgCoXOQppkZFmCponmiW4Y2IbB5pULPHjQJI4jxuM+cRwRJDFJHLG6ss2pfA7o8neyLCNOYrJwoqhAedFuSucBy7IxJDopTVOiMFA2lFmW4TgezY110eif1cPQNRL53DVM/aV1k4dYc/pLGhmvavicxzcrzgv48ziP83hpc7dtV3jYplPuez7NNGTnNp8SjgcTNam0bMFxzP1zkyghGAesbq9SqpdEkaS45jk3L1HK5nt7Xwq422TI5uZ1Dg4ek6YpKyuXuHnze4JPnaac7p7y61/+nxwePubmzR8QxxFhENF7cUK3e6SS87wo7HQOaT67yLU331B+s7PJwmziM8txtD2bOIypLzfI0pRHjz/BLbqcHhzx5Mkdqb4sprGt1r4QovHKaJrGw4cfKUqAmJIn6IZJFAkuZLFYo1D2SOIESxY4ieRY52iGvPhxcRn3x+o65JFlGZZjKS5bnoCeLZZ+3+65puk4bpFisfrKQs5yLHRTp1gpMGgPpsJEuj7H1dUNMRUqFMQ5ytIE1ykqUTpRcAjY+enpLj0p6KXpBqur2/zNf/c/YJgG+4/2efTlJ9QbK2xc2qZQ9pSFTj5hMG2L9376c05Pd4U9kO0wHHR4+qu7FAoV3vzOD6gsVrBde4Y/HGPZlmzsiO/Q67QEp1zT+eLOh/zp9r/Hsi2uvHOVRnOBZw8fKIu57nGXfqvPtbfepFxpcPfuL9VE3tANdMPEMC3W167Q6R5RKFQI/BEZGdXKEstbzSkPW9qtaZqG5ViEcl14JY9hZzgHOVUTcVPHcQoKeimoCi8jaL7eGng5OTZ0A9v28CT/cu71uqY0CHIaSN4wS+IE3dDR5Ws2r28SR98l/tuIfr9Ft3sk74NUTVdz4be8yNF1E13X8f0hg14H23YplxcYj3vydSlxHCpryrW1yzx+/FuiKOTp0zv0+y1ct8jKyjaJ5N0fHT3FNCw++PDvqFQWeSv6CevbW+L9kpTJ0CdNUn74539FmsQ8eXoHXdepVBapVZfZ3fsS1y1Sr68QxxHlcl0ee0SrtU9uMQaiUBoM2rz7T/8Hb7zxp9Rqy+zu3pc2U64qfJY2l1hpLnB39xR/7KsGH0zh27Zrv1K0LIkTLMuiWl1STaRZ5MnZQuurRG79OUt7OvscMW0LXbo/RH4kC59pcyf/LgaGsk6MowQ9FfteHMYYlkHBq8gps45l2SRxxO7ufSqVBZrLF9nd+1JNti3LFvQLWUSXywsEwZgoCnj48CMePza4evXbLDSXefHkIaNRV6GjHFsIuo3HPoakcBRrJV5/+4+oVBa5c+dnDIcdJpMBw0GHWrCAU3Dmvvvs+XcKDpeu3OTZo/uYhsXW5g12977k5OQFrlvEslyckjf3rBL37BQtoWkajuNJas08NSFXdD+LkpvVrPFKLqPe+JXXO8sylprrFJ9W6fdOCKMA07S/1jPjdzWMBVLKku87z17SNGkhd4ael8YJuqFhWgaWY7O40iS7JxAnGxvX6HaPabX2+adf/B232j/g4uuX5uwp8wj9kBdfvODOb3+hJuCW7ZKmwsYvzRK1phYXN2QDfkKvJ2h+3e4xk/GAJI0plxeoLTdEDpKk0y+SCZcVTROq9NXqEvv7j4ijEE0X7gP+ZEirLSiCuVCvPxmiGwKple8Rpmkxkv7vtu3h2K60TBVDDMMwRcNBQu913WB19TKv/fA1/JFP96SbXwx1TUQOYZFlk7mcB0S+5nll+ZkpSfK7r+N5fPPivIA/j/M4j7kwDQvHKeC4RZUgzhaNlmuTJWKSkicO+QM4lcqnaSwK+DiMiIKIQqVAqV6a8+3NeWfV6iJeocLe3peYpk0QTAS3SzO4ffsvWVpbERxmCdkHqCxWePPNH7Oz8zbDYYenT+9wfPxMcECKZwAAIABJREFUWbzlQnlJEtPrnZBlmfRfN7j6xmsigTD0OUVwBemT084ojCnVBFft+Pkxdz/7BW+99RMaqw1M22R/v8Du7n2ePr1DsVjDdQpousFg0KJQqHLhwi00TePk5IVSn46igE77ENsWHPicapBDvHNvacu2sFxLqsdKgaSzivRZzn80hBCR5MOJ6c48n/SrPojPNjeEzZVzRkV8+nrDNOYU9HOory0LuNlGkO0JeobrFsnI6PZOCENf6gOIdeP7Q3KHgZwvPxx2+eXf/2ccp0CpVOeP/+rfTYuAGYGmUX/Ms3uP2dt9wMHhY1y3KLnzY4rrNdI0YTjs8Ojze2zfuE7vtIdXEg2AUq2EYRrouia4umnGd//yB1RqDX7z7v/F40e/5cX//AXN5iX+7X/8GwxTZ3f3PsNhh9fe/i61Zo0Pf/0zdv/hC157/Uf8+K/+Gz7+p19wcPCIJE0olmoKun3jxvd59vSuUpleWd1m/cq64FefScjnKBRZhuM5BJNgOn2diVKpRq22TK93oigqZ5s5fwg4pKZpmJKfbFrm3HqB+cQ8R+VERqQaaFmWCR55nFKuFDFMg6OjJ0RRKKfwVel5LKCjuf7EZDKkWKzSlVzWdvuAVmtfXX+ASmWBRmOVg/2HTPwhrlvi9W9/G9ct8uTJp8Iz2S1imja93on83ZTxeMDW1g3+q7/5HwXHtuCIwjOditcZhoFbdPnhX/w1x//LcyaTAZXKAlevf4v+oM3y8hY3bnyXdvuI58/vYVk2a6uXieKQ/f0HarqZJMKHOrcOi6IQzysRhhPGox66YbKwsEp9pcHA94UDQpwoBFKWCfQCoIrfV03ZLGkl12rt/UGnakLjYTo1PPvetmcLlw09Pw6LKAiJI9GACf2QLM1wi66yekzldD5fL/nksFxpYNue4gaXSnUSyQ0OgjHlcp00rTIe90mSCNt2VBP35OQ5nlfBMAw8r0ylssDDhx+haRq97jFB6GPbDq5TJAjGjCcDdN3AnwyxHZfNnUvousXV199g69IV9p4Jv/Dm5obyiJ/95mfhy6ZlUq81sSyHXu8EwzBZW7tMEIzp908ZjbrCMlDqZ5iGJae+oni3LZd6fQXbs+eFTDVN2e6ZlkBARfJ5C+Kei81IiOiVPMaD8dz1nr1eOztvMRx2lAPC77s2zkaWpTM2eNqZIn7alFb7lC7E+ExbrJnKYoX19avS8WOMbbssLqyTpDEfffQP7O5usbKyTaPZwC17OLKh9ez+E548+ZThsCusB21PisvpVKtL+P6I8bhHksQ8f35Pfb6A1gu9FQ2BYvG8Mo4nmjW5wOzZiIIIXRe0rjDyRYNkcUMp6fd6p4xGPQR1SqjuB8FYQflt2xG2fnHIcNhhff0Kx0fPxHMdjUKxQhJHRHFImiVYlsPO1VvcePMyn75/Tzb9XkZCnEXMZVmm0DqlUl01DX7X+njV38/j//s4L+DP4zzOY27z1qWHbqVemXuNmL6L4kY3DaIwJonkxFhO5/MkQSRP0wdcMA7IEuGNPRWjsYmikHKpzuf33hVJXejjOAUajVUKxQq+P+LhvTucnLyg3d6nUKjyzjt/wfqVDbauX8Awt3nvH39GFIV0OodkWaqmj7pukCaJeqBpmiGU5IMQy7HRUqkc/yq1el3j43/6hYA115qMxz01Sc2noK5bVAX3cNhRhW5u85Jzbjc3r9Nq7TGZDNF1nSCcECcRzeYl9X7kx5J7uJqyaaJN9QEcb2oNBNMEK4dczlpT/b7Q2Nn3B7AsG88r45ULiueevybnIAaTQMC+dQ3kpC0KY2wJSTctkyQR66W+3GBhYZ00TWk0Vuh2j2d4oeJ4hXLv9LNOjp/LdSgmJp32IesbV6jUa7RPTnHdIs+e3uXw6AmmaUvLHUclSIVCGc8rUa0s0pcwzMpChXqzrtbsFAExPYdRGHP57csEk59w9+7PiaKQ8biHYRoUKkUuXrzFyckL7n78G8bjPqenu2RkfPrpP7K//4Db3/kJKyuX+OyzXwqFa8tRlkJ+MJJceYOLN3doXmhy/PyYfmtqA+ePfGEPpOWKxgaplaIHmhIE06ViulB7B8PI1fd1smweQv/7JOZnf9eyXErl+lxxkX9GPkHV9WkzKJgEUnDLFGvCNhXNxjB1xe0UehK54JpOs3mRxcUNHj36RFIvJor7XihUiEKfxaUNbNvj9HSXnZ23uX77Nd77R4unT+/geSU+effXdLpHAISBj+24uK5Af+RimaZpY7sOXskT196P0I0pWkjTNfV9itUi29tv8vTpXZ49+5wr127zzjt/weLKCqZlMpmMMAyDQb+FXjO4du07bGxc4/nzzzk4eCSFG0UDajTqUyyKxsvBwSN83cC2Xa5cuY1X8jh8ciiFAKWvuK7juDaBH069xg1daRDk1wGmXvDCim8qajh7rb7OusipT+VS/SUBO8PUsWYmommSkkRifxPW14ICUqyX5gTZNF1Dy0RBmsSpqvKq1WUcp0AUBUzGAyaTIY7tMYwjUZzJ6Xx+H4/HAwqFMsVijdGoK4s+h273mMGgxerqZXZ377O4uMHh4WOGwy5hGMgGoiWbfroQK40SNd21HBvLdnC9Eg/v3aHbPeLWrR9QqpenKvTyXESBoGQcHT1lMGjT758yGLQVMsaS+5uu6wJCnwkxT8t2CCMfx/ZIMyFud/Gi0H7Zf3SgRDZtT6ydJE5EEyETNKD8elqOJXjO8vnmFl38kf/K58Hi8hrFYlWp8M+un68aZ6f8hmEpsUnRAMsRIKh7yfZsKQyoq2eqUNwX71coF1hdvSQaoXHEYNihWKxSLNZI0zZ7ew/Z3b0PoOhZecM8SSIMwyKOY8JgrHKDTudQfI5uKk58/p0d26VaW6bXPSaKQ6lFsYrlWgTjAK/kzecL8nuPeiNGo676/mma0OufKmHT3GmHLBPX1jBlg3KGdhb66j7q91tcv/E9njy5Q+CP6PdbM7axJoVChealFSqeh2VbLx1TOAkVCm52WJH/abs2zeYFTk7Es9WQOjT5tZt9/fk0/psX5wX8eZzHecwlcUIBWsd2bSWAkydZujkVPsnh5SAf2miKx5jEIunRTYMoiDjdO0U3DSHwNurRbh/gOAVGox5HR0/FpMH2WFxcB6BYrPLw4UeKrxbHEbompqg53DpNUw6/PODo6AmTSZ9Z+zb1sNE0CoUKuq7TbF7i5tu3FXQ3P26SFGYsrfIE7Ds/+jM++OXPuXfvn9jcvM7t2/+WjasbZFnGweM9Hj36WNm85NOoXAk7jiPq9SajUY/j4+c4jofnlUjiCN8fCjheY3Eu2YkkjzH/OZEFUaiHioMbTLSXVI+zLKNUrCnF+xyC+ft2zGcnqhqCY1goF9Q0OJOKtqZlCKEq22TQGZLJ487XQhhEAmaaZWSZThSE1Js1Vla2OT3dpVpZUoiB4aCjJiymaQv4ooQ5iuZMzp+PCcIJL158gb5nkmWCR1utLlEeCz5yc/kCzbULfPTBT8nShCtXbnNy8oLBoINpWjQW1gQHMhXrNi9ABT/xjFhglnH5rSs8efIp3e4xxWKN9/7vX3Hj26+zvLrO8+f3FPdZ0zRlb9ZuH/LTv/9fuXDhFhsb11QCH4b+XKK8urrDrR/cIqdMZFkmCh5NKg7Lc53EiZi2ORbBJEBH/N/spdZyTulM8+cPSafI30c0yMTkyDQNghk+tqYLAbX8+udQaU02/xRyR9MwLZPTwzblRoVLO6/x+PGn2LbD8fFzZSFo2y793ilpGpNJ3/RZOPrS8gVWVi6xdfUSaZpSKHvCnjGNJcx+xLPnnxMEYwzd5OIbr9Nq7UlHA5EGOU6B5eUtyo0yTsGZSXhn9r85N4uUen1FFQ6tkwOWmut88sHPePH8nuTZpnheGXqn9Pun7Ny6wenprtobPK9MwSszHve4d+9doZzulsjIJErHIw4j/JHPoDNU53TWXhJE8W7aJnE0FajLOcFCQM5Q4mSvuv5fJznXdQPTsinXKy95uuuGEAIV50kUbrqp40r7zGAc4BanaJ40SedsBTNNNErSOEU3daoLNRzHo98/VZ8NEMeh1HkQitxRFCD4vMJyzPNKEt0QEIYTkiQminwOD59QrS5imqKAsi2XNI2VVWV+n6yu7lBv1vDkvtc/7RMEE7744j00TTi1BEGAG4mGj2EJaHPvtMdH7/8XWu0DNX2dTIbq+ZqmqZiipolSK9d0nTD0VUEXJxGmaVMq1XntR6+L8xQnZJmAPpsS3ZSfY3/kk8TCmnQWTZaHaZtYkUkUxnNFXL6ems2LtFr7agI8ayv2VeIsfD4/hmKxpjRz8vvItC3VhEh1HUNnOkHORDNSNwxK9RI7b+3w5MldOp1DFhc3WF7eotc7JU1iAn8ktQJMhsOuFP7z0HQhmJtlwqa0XG4QRyH9QVu8xi0SRT5RHFKvrzAYtFTzMwx9XK+MK7/Tzq0bFMoFgnHAeDDGdm0s20KTtIDQD3l49y7ttjiH9fqKQNx1DtE0XfHoNU1X7is5CtEwTOFKEwu0jynFDHu9E+7c+TmFQlmcL8PCtBws26XfP2VxcZ21y2uMggBdOpXM3IgkSaK0WcSzZOoek2VgOhbVytL0Pkzn84ZXIbzO45sT5wX8eZzHeQB5Uq7juiXK5ca8V7aMWcE3MRUU/2bZJl65oDb7OIxIogTTM4n8kP2H+5i2UGBvtfbEBMnx8P0RSRxRr69gWQ57u1+SISdhtksgLdhyr3ADk2fPhN9qLhqVC68Ib/lpYiLQAsLaa21th3d++EcsrDYwbYtBe0C/1ScKIxx3yvmbg5zpGleuv8nDhx8RBGNhT3TYFry63XukaYplO4KzajlCjEZ+vusWFbzUNC2azYvoEl7fOt3DdQvUm3VVuGoyeU3iZGp3NtMBD8aBEDCTfPJZyGESC+X+QqFKv9+ScHqhxvx1Y7Y4MAxTWJNJGyNxbDNrwhD+tbquK2h3fvxZlqmiIxfe0w0D3dBZv7jFZCL4hTvXb9E+ajEcdrBMm6PjpwJqnsSEcmqYpRpCRGqCbTlSgGybndevkSUp7/38H3n65FMuX/kWjx9/wpOndzAtmyAYs7CwyuJqky+//ADb9rhx67vsvLWjznUwDgj9ENMy1HfTdG2OrGl7QuXXth2uXn+HTz/+OUurq+y/eMalS2+gacJf3J8MVeKaJ+svXnwhYJJpiu24LCyss7f3pdBuCH2W19a4cGmNxw9eMOqOlBe8ps8nUEmUEGQBhmUKBf54Kmom/kQVL3lD618jxP1lUakssLCwLoQsZ47TMHRB7TCnPtv5d0mTVBVs+blvH7TYvLHFyqUmju2CplMsFDEtW/mmt9r7RJGwjsvXt6BqiEnWaNTl3scfC12Ky9v0W31M01ZiUCBQHbblsLt7H03TaDTW6HQOKZfr/Lf/039PZaHCoCuQMv1Wn8PHB0JXwTJf1hyYKcYsy2Zv70uKxQpBMKGxsMZo1CNNYzQ0wnDC3bu/5O5dgcIoFKbq+v3+KYZu4jgeQejLKWRCsVijsbxEv9UnTTI1Zc3h6mEQEYcxWZLiljxMy5zbx/K1K0TCzJcmavn3+LoTNuGwsEqWoWD0IEToTMtUe5SmC60E9XvoOHJ6rIp2fb6xZJgGma4LPYgswyt7LCysMRx2pItDkSSOVLHreSUcp0C7fSCLE1G8xHFIqVQXRXXvlMGgRZbpkKWKq5xlGVEcUipWmfhDZUm4sXGNW99+G1dOW72SRzgJuXLrNS7sXMMwDbUnqGZfmhEFEZ989I+02gfoui4bB9MGR5qm0hkgkvoOCa5bZDzuiwloFGJatmpebW5ep9woM+wMSZJUiPwZZyw6dQ3btYQ7jLzv0kTQPgxL/F1HNOXzZsvsWsqyjGbzEg8ffkSnc6SO7w8RhiHWdrFYEWi3mQa0bgihvzicUsXkwclzJabzXslj9dIKj++8wed3hjhOgfG4z9raDpqmUSzVlIBsPvUP/BHV2jILC6skScLS0qaEpndJs5ThsEuWJVQqi4zHPXH/BZ6Ak0v9DJETmdy8+QNqy1V0w6BYFTaC48GE0A/QDYH0O3p6RL/f4sKF19B1A8tyaLf3pbaBaMbk571aWSQIxjPPNtGUzKH0llUTOhhoxEmkmj+A8IDXTTyvws7V11naXOLhl8/onfam60Hus7kSoG5ogq4XxuRbg6aJgr9QrM4NP2b/PJ++f7PjvIA/j/M4j7mOfJJEVCqLSjk8DwGNnHbUDcvELXuYpvnS+1iOTRxLLrahk4YxwTig2bxIu30AoPzg60sbTCZDjo+fCXi0tBjLIfD5Z+cPkW73mE7nSD6kEjIy1dXOO9xpGssHucHKyiV+9O//ilK9JHikfkitWcMruXSOui91ndM0lZB2wc8UFj5LvP/+38pOeixs0CS813EKXL78Dt3uMfv7D1RR3u0es7FxjaOjJ4zHQt12aWmTNE25ePGN6UPUmFrYzRU5pHMqzpqcSiXxKxJwWUCLwiaQCYStipyvDo/V5tZElqUsLW6oRFQlAbJQUwgOSbPIIadZlk0FlQwdXR5HY7XBzls79E77DAcdoiDELXjUlxv4I5+nz+5OfZnTVCj2ghIB8ryymFpYLoVygdbeKb4/Iggm3L//GzVN+OyzX7G0tIlpOnSO20wmQ5aWNnnth69RbpQJ/VB9j+5RV1BA9GnRPrOw0XSdYrHC/v4Dfvvxz3jnOz/GK3mKWyxQAhnlSoMwmBCEPlEUKkXpLEupVZcxTIulpU0ePvyIJIkolVa4/t1r6JqAnQeT3MdcCHolSaImJrqhqWst1kp+LTR1XSzHUlQVXTcwjEwlhmc5kV8lzvIodV3HdjwWlpdeaTWZf57lCOu1XMcikzZo+SJK0xR/FAibvIJDrb7CyclzYRVVXaJeb9LrnSgKSqFQlhN4cQzFQpWVlYuUKlXGw5HwVN87wbIsJV4WxyGGIaZ9cRITRQGFQkV5Pl+78W1Wd9ZwbEvw3sOYYqWAaRkcPT0Wxejsusgy/OGEe/feJQjGrK9fxfdHhIHPjRvf5/793yh+dhyHpFE0d97y4k3XTZJEJPFhFIhmWaHMcNilVKpTaZTF5N0wMCyDLM1IUiEASJqp4/LHvrLoUtc3m1JwhLK1gPHmKv35Nfp9kvPFhXUF259+ttwbcnvRV/ikz/J0X2oi6DPrR/5uEsWsr1/l6OgpgLISc90iURRQr69wfPxspnFm4zgeYTCR96BAxHhemfG4TxSHjMcDmLFxG437lEp1ADyvxLf/+E8xbZNRdzRtZpo6mq4rO8w57rZ8XBqWweLiBqenu3ONjSxL1QQ0jkIxgZfNZ7E+hQq4nv+pCxX0H/71n9E76QmKhyWapbOisnnktJTZvTintqhmiiGsPXO18tnwikKQNVej/0MgdQzdUNPocq1GOoO8ASlmKJsgwSTAzjUT5D2WpilarBEFIZubK1x++zKf332XXu+YtbXLRFHI0tKm2Pv9ERN/iK4ZFIs1kkQIGlYqi7TbhxI5VZUUpgJR6FMoVnn79o/56IOfsrf3AFeiDwDSIJEoDpeb33mDb/35bSZ+IHnuOrqp095vc/LihPFgzPOn9/GDEaZlE0chGaIoz91nCsWqoto5TgGvUGE06jIa9bAdlzAMpBWizfXr32N3974adohngIahm+Te8Z5XZmV7FU3TGHZH+KNA7BHyPoylXkbkR2rIIpwKkKgtOWwouJTLjZnn2MtipefxzYzzAv48zuM8VOQb+OJMsZZHDr2a3eBN05xTRlewa1nIBZMAy7EEpzFJWdxYpHG0KhNn4cfa75/iS1u1PNHO4WW5ynEcR2RpimFaEh5skPv/5l7PObfNMEzVwXfdEm9//4cUKgXiMFa2VuP+WPBvTZ0kyK175BRxJuEc9yfous7y8gUePPiQNA3RNUN4bacJrdY+o1GXTz75KRcu3KRQqNDvnxJLgZgnTz7FMm0G/TZxLBLd1ZVtVi+tqKmlJq2UQBRfmqYpayVN1+fOq24aaGc8n8X1EL9vGJZK0k2zQJZN1b+/TuTX2jQtqo3Fl/zfz4ZpGjj1qSpzmqaCs5mkiisPQtBqdWOZy2/v8Mu//QfGTwZYlkPFX+DevXcZjbqUyw2Gww5hKHj/juSlel6Zen0F1y3iFguMukNO9o+YTAbohjFtsCCmhIeHT+TEM8W2HG7d/hblRpl+qy+KD13DNE1qzRqaJibCWl5gyhAQ1TEnJy8wdJPBoEMcxvRbfakQrOO6BcGrzMQ6LdkuYTiRfu+iSCiWakrn4cKFWxwdPeXChdf48Z9/jztfPKJ/2ldTMd3Qica5LZA8v7YlmiPZVCX/bAhl4ZI8/yIJnZ1Yf92i7ezv5E2LQrU4J66Vv3Z2imPaJrZjCXuwfFovJ7AAcRTTO+lRWaiwuLhBu71PksQUixUsyyWRzb40TZlMhtKOMkVDYzwZ8OGHf6/oK7kN3ZUrt6lWl2i3D4ijqRWUaVoUChVM0yKOQ0zT5lt/eVtQcl4cE4x8IdSZZtRXGkRhzMmLE1WMpWnKZDjhzgf/RLd7jKZp+P6I9bXLHBw+Znv7TTY3r/PgwYeqoWgYukQIJTNUF7kmilVlCyX2Nh3PK7GxcQ3DEq4ezExc0yQhS1OiMJZWh46aZs+Kyc0Wybo2vfcEZWAeRv311oNoXr5qbQBzBWY2N3XVVXF+tog/2yTSpN89mkZjtUGjscbuiy+U8Fiu1H5w8AhAcYwNw8SX03Rh1RjONH1EwzEIxkRyyrqwsMbR0TPCUFAqlpcvUG5UGPWFjoEQVUsxLAvDNIQA30yxc7boubhzg4ODRwwGLdXYy//bMEyJKEuV77sQsDNIU41CoSxETw2LCxdusXXzAnsP9mjttaRlmT53bmePIX/25veYpmtzr9cy+QwJ45fOd5qmbG5e5/Hj36p76feNNBO+8q5boFgtquZOfj7y55shnw1hEAkut5GvsfnmzvqVdVZXt7l//33u3XtXeaK7TpHmyiVevPiCKAqEXo60wh3028IibtgV4rxOQTRVNZ2lpU3cootl2lQqC4TBBEMX10eo07tUKgtsv7nNaDhmMvRVwypNEizHorFSZ9QbMhp1lXuK0OhwcRxP0D00XTSMAM+r4BXKPHjwIY7tYTsuQTAhTRMp0FrjwYMP5R6uy4FEKt9HI4p8ssyiWl3ELbi09lqi6WtMaTMgRAyTJIE0UyKXs/d6nutoutgzxfAmnjvf5/HNjvMC/jzO4zzmQtdEUjhnV5ZmZFo217mFKfc9//msJUwO4zNtE10+vDe2rtA6OSBNU+Hp6g8J5ZQMhD+8rgkVeiH8IpIc03awLIeczyb4gqmwa0FTvEiANEtwrCKFQoXlrWVhp+SI6VpebCRRDJom1NNnhZRkgqkDJ0d7NJuXyOSkRtN0xcPf2rqBY3ucnLwgikP2dh9QkAVHKhWSkySWokQBYe+ExcUNNq9sk0gYsZXzneMEyxWqzUkUK+ixSspkIqPP0BpmkxvLclXRmsNl82P+Ogn62Qe9aQoY40vvlc536nN9BIBCxcNybDpHHdCEV7FhislF5Ef0egNu/uAmDz9+xKNHH1Mq1en3W4AQrVpd3ebpkztKdTrnKOq6Qa22TBT5fPnFB9z7LFFCVZZpE0v1ZtHQmU4eoyhgcWlDKL0Pxi97V6eZbDJAGiXouqbW8mTos/dgTyiFywnwL3/+nzBNW6xRyxET08oio1EXkoS1tSscHDwS+gFklMsLAKytXWblwjqGucXy0RbXvn0N2zCI44TTvVN1vZNYTM50XQdzJqGSWbBKgrVpgT+bfBmG8Jj3/RGO4710fb9qvIob6TgFgRoYB3N821xcLz9mxxNK9dWlCmmS0TnqzDUToiBi1Btiuw4bF7c5Pn5Gr3eM6xTRdAMtFzeUSWZOm0l1Xf3sukVyaH+ejObe66j7KOfjVmk01jg8fCQE8jaW8IcT4QMvuds5nHfl4grDzpB+q0/3uEuvfcre/gOOj56pPa/ZvMDFq9d59He/5YMP/lY0+JJYcO6lq0cYTsjiqUNE3hAQBYXYk+I4YjIZsLq6w8bVTQAJiRZNPsPUSZOMOAzlZ0+bIMnMeiabV0Y35N4QRT6mYaGbtuRgTyfxXzXyhtTs+lBN3lcU7oAqLuf+7XfsTZquoaOTAm7RxSt5XL76FifHzxiOempibZqWaKqW68IOTjcUx3hqPRiLJom8WUxL0CryJlSrtS8L6BTTFA1sTWOOOpHEmRJlNCXqCJgWyLP7sWzEgrimuT99LtKZfy4INf8syySMfqDoHl6hzDs/+j7dow6WI2hfulTl14x5hNTsn/k5nX02v/JavAKJU6pUKZcbjMf9r71HzF7P/BhcV+hK5Bov02OSzV1dw7ItkijBdizSJBfj1ElTQSF7+nSf5sYSl1+7yf3778vrG9HpHGEapirOcxHbJE04PHzC+voVxuMB48mANEupVhdpNNYwzVMmkyEP792hUKyyvnGVO3d+TpKKxpBwsYlYXNzAKTiMBxNBcZONES0TFI/G2gInct8ul+oK+USWUaksomk6w0GbMAokKs4nCCbUasuq6M9dZJIkYjDoKOpFmiZ4nqesMJMkwnVrYqiwdEEIB/dHCiUiBDeRDT7R9LQLNrZrMRn6c01VuSBJk1TZ1J29lmfXy3l8s+K8gD+P8ziPuUizhDiOX/JVzROPVz3Y84l780ITwzTYe7CLpgnl21xBO1ecbazU6bZP8VxXPRSSJGY0EjBTXTOk52/+f5FKdpI4IkkTkiSacrzzQjNDcQN1zSCKfNbXr4rvlAiY/FkbHqfg4A8nJGEi/MNzLmaaMRn6nJy8YGFhnfv331PJoG6Y9HsnnJyUWFvdAeDw6AlBOBFQb4VOsAkDoVwfxyGuW+TajdtUFiqMeiNBRzANxf8TiIBpYjiLCsj/bdbfdzZptF0b1xET6jSJ0TU/6bPiAAAgAElEQVQBpX9VcvcvidnkLi+QcmXu/DmevyaJEyXeNFuULW8t01iq81jTaB20ENBRIcI2aA8o1Uu8cesyl9/e4d69dzk+fk65LKZsnlcSnEFNiBBWygtEkU8Y+oRhh88/75IkiZiiRgFxEosEPEvnzlt+nJqmMRp2uXLlHWzXlvoFMyJQWUbghziew7AzFIJQUUzoh4R+xOnhEYNBS05tI8V9Ho8HM40Tg4XGKnEcSqsiydmX12EwaCml8WFniFNwWL20yvqVde4+eSa93adT0zRNBX+VaTPHmGng5Enu7PXNIcx5YanP3EevSti/brwquTs7zZtdC3mRqWkaqzsrGJbB8bMj0iz3KM4Ydkfo+oTF9QXW16+QJJGYSJXr9HonpGlMGPjTaa10utD1bIamkEnhryrPnn0m0TCRPA+WOobRqCdRNClbl64QRzGhH2F7NqYpbdrSlCRNsYoupmXQPe7y6Sc/U0VWnETq3E4mQ+7f+Ugl3UmSUCxUmPhDJbSWZZnwFleTcCGwVShUASSqIBbogWtv40gR0dxuSjeERZSmZ4q6ksOmdUMXDZ/8usw0e/LrkKMBhNe3JW0bI3XevmqCblmOupdm95nZZtLZ9zzrVKAxXTf5OZqbaiPWcRIlQkyu5LH7/CYPHnxA7jjiOgWC0KdeX+HRo48VjF7TBJQ+lRNuEIU8IGy+pICYadpqb4/jkJWVS1y4uSUE1iZT1f5c0yEX30skNP1VhXESSxeUNJWNVH3amJuxxszDtl31PMv9569cuc3ldy6z/3CfyXCCbsw7pcwWY+qc5ZoZOnPFu2qqz/ROzj4b8vcTcOp90nTqePIvjbP7AIBpTcUEz74ujhKE5IWgD4WTkOqyaAoNO0NBoUuFNWjvtMf65jIr2yssLW4omk0uTJiv67xxres6/d4p43Ef1y3iOB6xdC2oVpfQNGHxGschhUKFel1Y/eWonBy9tLyyAaDEAS3bxLDEscZRLAYDnsPCwjrt9j5hFFAq1RiNhKL/5uZ1vvzyfWwgkQKm/f4pluUodBG6ztraDv1+S1LBxuqezZGQuStHmsaUSousXFojiRNGvfH0Wqag6UIElzRTxXuaZISTQD0XmGnvhX6o0AFnr+F5fLPjvIA/j/M4j7lIkoRg4ouJ6ysUz/M/84dk/pqt17ZY3V4hjhL8kc/x82ORSFky4SbPXTNqjUWePf6cOImJ44Aw9LFtIWqnG4bozAOW9PM1DZMoDsl0A8Ow8KSf/GQyUAUDgOeVldqy6xa5/MY1ob4rp4SC8yymQLZno5sG/nBC/7RPOAmVOnKaphw8FwJ5p6e7nJ7uqmmPZdokuk6rtQdAqVSn0RACS2kq4K2pFMeZTAbYthBB2ty4zut/8jqmZfLok0fCPitOxPTdNueV0GemOrM8yrMQ9vx62J6NYVqSe/f1ivZXve9s5JPe6X/lSUOqCoXZsF2b0XDM2uU1ht2haJREU4jeuD/mxWmL1370Op//5i0eP/otxWKVQqFClmXs7T2ALMPQDU5Od1XyDaKRA8KmJ0N6c7slBUclSyVfukq/fyoTL5eV7VXBBZRczPy8pvI7GFIILIliHtz5nHbrgCCcUCrVOD5+ThwFpFkqubehhGaLiX8QjAkDX1I/LHZ37+P7o7nislxukKYpu88fsNBYY3lrmTRJGXSGtA/byjopb0BUGmViadWYzlAq0jghCmbdAOZD1wxJJ7HyC/oHScrOTtd+V6SJ8PLOLazymAx9bM9mbUc4ABw/n0LTQz8Uzaw048JV4ZONbOhZli0LrWhqdaRpah3kxZqu65TLDRYXN3j+/J6CpmfiRepY+v0WQTChXKqzsL7I6e4phUoB27GExaQmLO8iPxSOEHFKr33KaNhV0+xpoyLlyZNP5fTfUJPfKA7x3BLjyUBSfFIsOfk2DIEwQr5WuC5YmGaJy5ffoXlxmTiSCBLLkHobU9iuYRpKayJv5uWw7vx6M3Peo0iomxsScp4L/+XX8etM1wzDxLQMonCelpEmKaEfYdmmEkJN45Q4ihXMP7/mC6sNgklAqV5m/co6/sjn/nv3XyoiojAiGAfUlqp878//jHZ7X0CVgwnLS1u0O4f0eidq+iqujYCpZ5lsMjClE+SiqFmWEYa+ah6YhsW1a9+ivtIgyS355LoxdIEEsGyTQqVI+6BFnM6r7+fRb/cUmiiH7OcFWf7anAKQ7w+GLjzgNVnM3fzWW/gjH9M26R530SWU/2zM3ZNpptAHqnF3huJ29lhnGwFpmlIq1V9qMHyVmN8jUgzdnNqnMaOfognUSJKI57tlm6RxQnWxSqFS4OTFCf1WnyQW9/CgPeDktMvi+iLbO2/Q658oETgQBe7KyiWlkxBFIYZEN4xGPaLQx3GLlEsCqXF6uouApyeMx30+++yXyso0f9YXi1Vqy1WGnaFYz7qOaVtYjkXkC6HezmGbJE5Y3dii1dqTz6IivZ5wTFhaWeX0ZJV254DIF8+LOAoJjLFCBwGUywtYlsvp6a7SbdA0XTWXCoWqajqtrGxTrBaVrazQJhLN2yRKFA3Msk0Buw9DZu1f80jjlNGoN2O1F6lcKr+WX3cIcB7/+vGvJ1N7HudxHv+/imkCFtPvnSju31lI/NmpMIjN3XIsNDSOnx9TWahQbpTnuvGaoUvIu5im6IZJt3uMZQk/5oJXVgVVrngeSN/WSIr8GLpBoVCm0VihUllQHEwQ0/disap+vnTpTRqrDbySR7khPO1T6fOtG0IxvVQtsri+hFv2ePbwAY8efMrx3gFHu3u028Jzt98/RdcNbMsVhYJl47pFTNOm1zvh5PiZKOwt5yWIWrFYpVSqs7y0xbd+/EOWNpeYtXvJskxN0hY3FlndXsGasQdSU+5IQG/TdH7qo6YcpvCNzhCJ4ez05Q8RcRxKCN7L/5fDpc96QR8+PWKxXiUOIxorDZyCowT5kjild9Kjc9ShVi7yxh+/zdLSJoZhMRx2GA47TMZ9wihgNO7LZHyaQCQy6RUe7wmGYVGtLlHwyiwsrJJmKUmSKH56kkRcv/491nZWsVwb27WxZSEEIgHSdMFVLtVLAvrfOaJYqlGvN+U5iNB0IVCVZZnw1NY0CVcMiGMhQJVP+3Lufp4M65qu1NKDYEyxUsYwROHaPeqqSjz3o68sVFjaWlbIB2bWViTVhGf+WUU+qc0LA00TPtN/iARsFoGTC3Cd3QcUciOKX/rdYBwwaA0wLIPlrWWK1SJxOCOqlmbEcYxX8rhw+RpkGYNhR3E0888TtA4LNIH8KcoJmusWWVu7jOsWBc9c1yVvOPdPF9DYOA4JgjGXtt+gslBR5zFNMjVRFnud+D6VhQqVuqBA5AnvtIkp7r2cv27opkKt5JBeURwlJGmslNNBTCcB5Wm/urLNxZs7wgMdKZqWVztAoVJkcX1RKI67lvSl10nihCh8tWp4HImCQUB/DYnkMOf4rr8LWfXPheeVFZVjNtI0JfRD0QAJItEYnQRSQEsgCQxDiDRuv7nD9//D97nxvRtsbq3wR999g1K9JPa6M9P6zlGXydCnebHJD3/yH/DcEpqu0x+0CcMJgT8Vm7OkUFleKOdTcF0zSLNETelnj1nTNBaXNmheEpQJYckmrFKjIEI3dCW45hQcqV0yvy+lccLR831arT3q9eYcCiWR4ok5vQfZ8Mn3B1l6Uy43uHr9W6xdXmMyGAvuu0SxzD5faktVtm5sCrqbXK/5cyLLMoJJIJtQwq0gDmPVJPvnwrLcr7QOZuNV62kqLvsKnYQsYzKcCBpbKpBkB48POHlxguM5LG0sUSiLQcKoO+Tg0T66obP95g6bmzewLYdci0HXDNXkEgipRJ33LMsEjS30pS1t3vycFqvi+WPKRpxwctnZeYuF9UWiYIpUifwQf+SrhkcUiin80taycv8YjwekacJw2OHOJ7/GcYvyOSUU+au1ZYJgMoMO0nj69C4HB48ZjaZq8qKxlCoFe9tyqFWXufzaTaGUHwqngjRJSRIBm58MJ6RpKteF8IIPRvmzCGVPKwRxE3x/KJp6smlhmtbcOsv323MI/Tcvzifw53Ee5zEXGRmHR0+4ePW6mlbnRXwSJeC9zIfSNI2nd58S+iFpLDrAK5dWKFYLHDw+VK/JH6hYBpeu3JQFWEyttoTnVQiCMV6hwmTcV2quaZpIj3kT03IoFqrouqkmGnmCrOuGEofyvDLf+rMfSLEvIfyjSb5XFsWYthDUSqIETYel9UV+/nfPydJUwP3k5xWKVcYTAS/L7WJEUq4Lm6gkYTjqkaQJ8QykP5/I5oI5t3/0IzavbWLZFvuPDqZTKAmZX9pcorHaQDd04iihfdCSiAUJj9QRSU42P12ZDccp4DpF/EDAe89en6+9HrIM3x/ROW5TqG5AkvuSi4jCCCdxAGEDlH9W76TH40e7slDWWb7QpHvUZdgbksZCG6Fz2KFYLXLl9hUOHu3z2SfvMxx2qZQbGKaFJf2w8yk3MKeiLY4vxbY9ZS0Uhv5M0pyQZSnN5g7bb26zfmWdQXuAZhk4BYdJf0yqa7gFV4kMNlbqDDtD6vUmBa+CH4x4+vSumlKsru7Qbu1PJ33S73s87uE6RQWzn210aZqA93e7xyRJzOrqNssXlhWHcdDuz03KljaXRNHYKIviXnxRdS/mSfh0mjVVpM9RBFE0FTCcPV9/iMgy4VMdRaJIe1XxF8eJoM9Y82vv8MmhaKAVHDavb/Lk0ycKTZBHkiTUlmoMO2s8fXqXZvOigD0HPt3eMYDSONDQsB2Per3J/v4jTNNWCbRAIRh4XoUo8oUvsldiOOzgukVe++EtvHKBUq2IpuvEUah4zlk2Xc/1Zo2dt3b45KOy9I63FDReXGepmyGLbcMwiaSqvG27jEY9tU/lk3tDF98hjgKyLKVeb3L1zTewHYswiKQi91Tkq9woU26U56bC+XkPJ6IwzNJUiNflJzJPvDVN6oToWKZNmqW/95ooFqsKGfCqKV0Sp6TJ9D5wi65o8s7w4/cf7WNYBpPBmP3RPr3La9SbNbrHXXn400JiPBgzaPcp1ctc/841Ood/za9+9Z8Yjbric7X5AjfnG+f3qVgnQjAsL9xmixPPLXH58m00TcMf+dSbNQaSTiMarcJfvtcZ4pWE+8rB8z0mk4FSwx8M2nS7x5RKdcLQV3tBTruxbU86awRyDc80KdBI0pjt7TdZubSCYRr0W31G3aHSZcnPm+3ZvP4nb2BaBrXlOlma8sV79xn3Rup6aJomJrHatAmfxMncNTqLdBB/T+YK268Ss3QdtQ4kxP1V6J18YjweTPBKHrqpE4cRg/YAY0mnvtpQDctxf8TpXos0yXAKDpdv3aLXO+bk5IVY24bBixdfqGutoalrnzdONE1jd/e+anJomoZl2bhuiUplkeGgQxD62LZoAL3xx2+zvLUsUHyOJRpSQUQ6DkQT2LUVrcJ2bWq1ZbrdY6LQx3WLDIcdVaSXSjXG4z7FYpXNjeuChhOH1OtNfH/EZDJU1oGW7ZBllsxrTEqlGsNBB69Q5tr171Kqlab7rjYVLgz9kCRKcIuOQpr5w4kq2ufvUdHsEHtlqgQdTdMmkw3w2df/P+y9Z6xlWXqe9+x8crrn5nsr3ModqjqH6Z7QQ3E04xk1TYkyJdCQnCRLBgj/smkLMmgYhgzBP2zBkPnDgAELtkCTlCjJpDTUcGIPZ3q6q3Oo7q5cdXM4Oe3sH2uvdfY5dWs41TMDD+D7AYW64dx99l5rnbW+8H7vexTA/+LZUQB/ZEd2ZMrkgd5q7bJ15y4ra8fxUxu4lFjDmMy2S3mYW+/dIlfOEYcRo96QynyV+oqAqIrDSAZhEUunltC0p3nnjVfI50pKDkb0oCVBUBjgB96YtVk3iIloNrfJZovkciU8T/SZR1GomIY/90u/SnW+Iiq9+20q8xVRkUgy0dlijtpijb3dXXTToDRTYnn5LJ988jqbm9exLDuBnJqqYuI4WXQ7i+NkVUa812spsjrbyYzhwG6cBO8Bq6vneeFXX6Cx1aCx3WDYHQiytygGQ6MyV8HO2Aw6Am6+c2uHKEz3rgon3ldwYW0i2JPfW6aNlpB6pavhP23lNY5jhsMe+/vrnHj4JKO+7ENOYPWhgMfaGUv0DcdjfeHNa5s4OUeQdeUcZpZnqMyVWf9knTCIaO21yBWznHr4JKsXjrG3ucPB/gZDyyafr9Dp7FMqzjA3fxyA0ahPu71LryeqFIYhEjhzc8fI5Yrs7d2l12sCYBpm0utr8PClZynXy3gjj/Z+G9O2CDyfUd9VlWHLETrKJNwPxeIMd+58mCQFhiK4C3w2Nq4qREgYBklVJZdIhvlKf1qxB2sGtpNB0wwGgy7l8iyrZ44rTebWrngWHQF3nVueI1cSrM1BUlmVjhrEqkp9WCJH0wQaQxL3GbqRJBh+tvBHua4GgzbtvTbl2fJExVS21rgjj8wU0/SwN+TuR3fJFXPYWZvZ1Vl6rR7tvVayl4zX7sLaAv1+m1Zzm5mZZfFzXVckWyIYCrHtDMNhD9cdqJ7XfL6Mrhs4TjaRktpC1xNYum5w6dLnqS4ICHe2mEPTNYbdAa2EYK9QLVKul9ENTVR+j8+zvHRaESnGcYRlOUoqTgbKsjcbxvDpUqmu9imlSW8JRQzRAmJy/qFnyJfzqs0HRHuK5dhU5ivkijky+Qz76/tEQTRO5viB6HlNmS411JNFEcfCQZcWptATn9ZBV8mCeLJvPW1yHzItY4JTRSCyNLZvbnOweaD6y1u7rXGSIv3a5PqN7SZmwl3x/MvPMRr1eeedbylJOCG3JdAnglHeUlVZBaHXBWGkJEIFKJdnOXXqcUq1MqEfsLC2KD6f3nicvKFoUZhZmqGxJVRFDMPgxo13kiRZgOeNmJlZYnf3Fv1+RyErZJXdcUSisd3eSxIJqTM0Djl9+gnmlpapLdboNbscbEoYvq5Y+0X1vZKcMz4Lq3P0e4Mk4WSqYF1qwXsjjzg8nDF/OnjXDV2sz0+ByJhYG6m14PsuvW5TyWGK35P4AoIzQVa4c8UsmqHjux6N7Sae61OeLePkBDdJ5PscbCaEcbUiD198jrdeH9HpNojjWPWuj9wBUvJVVtVBKDikPxeGYSrS2c3Na3i+i+Nk0TSdpz/zy5x89ATD3ohCOS9kUHWd1k6TKEEL5Eo5/JFHJp8jjmIefuZxrl17M+HhqFKpzBGGAdvbN7DtLPl8GdO06XQbVKvz7O3dpVaTqjxbSd+9xdzsMfb27jJy+2o/cZws5849w+r5VcIgTCr6htpXfdcnCkLsjK0+I6P+SAXv8syW/oREwjWb28TxOKEx3T4xjSo8sl8cOwrgj+zIjmxik/a9EUNNZ3v7BqunT6rXyA3cHXlkEjhfGIZ4Qw87BfsedoWj6g5dfC9QfYO+F4hD0DAIXJ/6Sp1jDx0jjiI+ePdVms1tMpk8rVZPsY4PBh3u3r2i4MB+4NHrtTFNS+nVd7sNfN9L+gkDnn76qzz2xccSZuu2qqiOekOCpIdc649why7luQrt3RZRFPPlv/k1dv/HW2xuXleM1qKvbo0g8Mlk8hTygmDHyeQpFmfQ9fUkSLQSopyccJZ9l0Khim05/PX/8t9nf32PfKXABz/4QBykYQS6RqGcpzRTwneFc3jnyh06+2011mliOMmAm258UoF8UgkOEmbp6cP2pzl8NU1Ajne2b7LxyUkW1hYVPFrGlb4rCMCIRZO81JvVTYNRX/SYukOXwA9EZblepr3bwncD1q9ukC3lqC3UOH3pLPt76+zt3aVUqpPNFun1W+R6JWw7SxxHZLMlcrmyYm/u9US1bjQaJNBm0aOeyeTp91pceOgz1BZrwvHebrK/vq+0nKW8jjf0ElI8g8p8FcPUmVma4e23txJisqSHNo5pNrcED0JS3ZHjK2H1Qss3QxB4FIsziu06jgOymQIXLj5Frpwn8APFLK6bIhExe2yOmcUZdb3tm9sTQYRmCn6IKIgmghwxv0n1yxBVFNO0CUNfBWs/S5Prqdttsr+7yczyDO7Avec1/khUkiW5oyRc812ftttG1zVy5TyleokojFTlNU7WkJ2xWXvoDNc/iOh2m5RKM5w58xQ7O7fY318nly1imBbz8yfZ2PgEgP39dWq1RdHSkoxJv9eiVJwhCH0Ggw7LK2d57leeVy0p7tCltlDl2nZTBROy1WfUHyWVTHjqiy9y4+a7uO6AcqlOu7OvKn5oY+lBqQThJsG6JOLMZPJYVkYhjzKZPLpucP78c8yuzgoOgDBCMw0CX6yv2mKR2dVZoiDiYOuAbqOTSEwmAZI7hvMz7WwnwZrnuYKbwbDuW31/0D3C890JVYzpax2aYJIkaynzXR9vJJILg84A3/UpVPIMknMkjseSc3EUcbB5wMLaAr4X8Lm/8hKmaXPlyg9FO5ZpCwkwVX3VxbkQi4SarL7L/d00LOYXTnLs2AVmFuaozFYoVAuq/700U6K5I7S7c+U8xVqRXrNHZa4s2lyqVdbWLnH16mVFBCbagIRk2fLSGfb27tDpNkRlf9RnNOordIxowRBjePr0E5w89Qi1BVF13rm9q2Qu1dgh9vtsIcvmtQ0OthrqsxJ449fKa9sZS43tT5Kg0Q1dJKU/ZQVezlf6vYLAF0SeKsE33q/kkpMBaD8Wz2aYYo/YvbNLvy0+Q1bGwht6KlllWiazq7Oc7z3H229/kyDwiGMhLVmuzNHtHuD7vqrCJ4MwwcEAkh8iSTQlhIYPPfQCX/6Pv0xnv4NhGuxt7HPmoZPc2W3R2msrRMjxh46LVopAJAZOPXaKM68/yZ07V5Q/INopFmk2twAwDDEfluWQyxUBqFTmyOfLZLMieVWuzuAHHgcHm8zMLJPJ5CmVZjj72MNoGiqZpJkihPNHvlL7kW1qg+5QEeRKhFYUxapXHl1j0B3Qau0g5TXlWS9RM9MJniP7xbKjAP7IjuzIJjZqP/DQkx6wac1ZEA6XZVsYloE7cAn9kGwhO4YMJ05GFMd0G11CPyBbzBE0uqL6ZQoo+taNLZ76i0/x+b/2BQDefP3bBIFgnjZ0g4ODDVUhkazfcSzkdjRNo9XaTXrobaJIaJ6ePfsMf+23fp3RYMTVN69x5skzaBrs3d0jW8zRORA627lSTjg4jkVptszBxgGLawv8R3/vP+cf/Ve/TafbUCQym5vXsG2hFSt0vIcUi1UyTj7ptR2SyeTpdhsYuoFlZygWa4RhwMt/5y8z6AokwtvfepvAE+z+uq5jJjDuXrNLr9UXMLggVH234jAVVR5gIjDXNE1VlNJzOF1N+1lkzeV1W+1dPv74MoXqS+TKOVUpBdHvLAkA4yjCG7lkFGu97OMP6TV7GKZBuV5m0BkQJO0W1968xrmnz1Gql3nyc5/jw8tvc/fuR9TrK5imyWDQZTjsYVsOlp1RDMEieeMShj6zs6vU6yu023ssLp5ie/sGKyvnOHnhLKWZEnbWpnOtwyOffZSt61u09lqKmU/yNchxy5cLDDpD1tYu8cEH3wekfjZ47ijhaAiVDnEY+HgIlmu5PkGwXcsex0ymwJNP/zL1lbqSVwTQY00hFAzDYPfOrugLTZAB8djLBVCkdul5Vk4ZgpgoDH2iKEgkrH4+lRPRWtETWvbd05iORRhMkixGUYQ7cMlXCirQsDKWWhNRBIN2HyfrMH9iXuwnYShaWzQIPJ9MPsPpR87z0dvv0U0CoVJpJnHYY2q1RUajHraVYX7+hOLNKBZrqiIHAi3jeUOWl8/wN//+f8qoPxLM/4ZOvpSjudPCztoq4LFsk357gGmb9Dt9csUcF567wGOXv8jlN76uWickwsLzxDpMc2FI9EPge0SxYKYfBaLCaSeyV+fPPcvq+ePkK3na+23hZCdjly/lqcyVGfWGHGw16DV7E8k9Ob5yPmS1Okr0oJXTHUeYhuAMUBXIxD4tSkciCdLvLb+eXieBHyo1kph4rKKR+l+ul36nT6GcV3siiMBS6scHfsDmtU2Wzyxj2SbPfvU5itUSd29e5fr1twQkOA4VSaAgizPH7Q6I8anXV1haOk2hUGH++BxAItcnAsR8pcDMcp3ybJnN65ucfvy0QAnsNOkm8zC7OkuuJLS7P/74dfb31+l2G9i2kP5qNLcYjnoiyaubisxQzpNpWBimxblzz7B87CSZfIbybJmt61tKb1y2WUnLV3L02j12bu9M6NFPjHkUTyR60+oWPw5CH0cRvV7zp076yXsKwxBd93HdgVD5yNjjangUy+1XmUxG5Yo5kdg0dAadAU7OESzwCVlj6AcECKLU1fMreN5nuHLlVUajHl4U0e+3sKyMQFskrW1RHCbvG6kEmwzuJdmnZdmsrpznH/zO3+Pq9jZOzmH7w21Wzq6wtbFHGESi3UcTyBeRnNboNHvMLNZYqNfY/YufJfjjgPX1j1lbu8TMzDKl0gzDwSlu3Hw3SehGFAoVVlfOUyzV0HWTdmtXtWM09rcpleoCbVGZY25hhdnVWayMlfS4x0lAHiU+WIBu6mTyGQxTp98eTKyNyWRv8n8YcffWR/ieq14XRZHicJHr48h+ce0ogD+yIzuyex2AOE4c6aTSmnKy4ijGdz00zVbERPIa6evI4N/3AuysIDBzBy66qWPGFp39Nju3d3CyDp//9c+TLeb40fe+gecNGY4MGo1tbDujoGZCWz2g1dpNdFJFf6OozMasrV3iV//uv0drr836J+vUl+u0dlusnl7mkc8dJ4hC/tk//bdU5so89ZmLDDyPK29+Qq/ZI1fMcf3t62TyGV784q/wnW/8QcIiGxIEPr4vEgmzs6vMzCzj+0IKRjdM6vUVbNum2dimM+yQy5U5ceY8n/21zzLsDsnkHK6/fV3o+Oq60L01TTKFLHEM3UZHVCVSjP8yc25YY91gGTCnnTNZmQJRSZh2nj+tc36PYxcLzdBc1WEAACAASURBVN1GY5O9zW1Oz57DDdyUAyaqmJZtCZ13LyA7vR6Sikev2aNcL3P8oWNcfeOa6i28/vZ1ZpZn6Bx0ePS5JymXZzk42ODYiafoddoJXHlIqyV6oHd376BpGpXKHLXaotCD1g08b0invc/c3HHOPPwI5XqZ2dVZdm/vUJ4t84XHH2Vn7Rg/+MHbbFzdwM7YzB2b4/zpYwC89qP3Bezf0IiiS7Tbe2xv38BxcnQ6BzhOVgSMdobZ2VVKpbr4fSYviBaThEuv18b3R/i+y8rKOR558lkBNQ9CRVImoMUWTs6hulATvAAJhFuRbCUVSM0Qa8cbjqHQcvzTVRZ34CaQzJ8N83x6Tci1IC2KIra2rvPB22Uefeo5TMsk8MZ9zyAkjbyhpwjAQj9Ad2x1rTCMaW43yJdznH36LNfevEqn0SVOSOTckYeTczh78RE+eutt9vfXufDo0wSBR7/foddr4nkj/MCjP2hTr69Qqy1hWTZhGKj2j3Z7l7m5E/zWP/qv2W93GGz2CfyAr33ls8RxTKPX4+zpY3zn668y6o9Yu7TG3EyVjGWxszzDlVc/or5S5zf/h7/Df/d3d7h181103VT9z8Sx4sfIZAoQx/iBpwizCoWqSAD6LqZpk8sVefjhFzn3zDnOPHmG9773XtJ/L+Y9V8wxszxDr9Wnvd9WChQSxQCiEjfJBzEZzEmnXFZU09KS6b/5NDYYtAWMP7X/TzNYy//jWAReTiJ/B9wTvIM8W0RFvlQv0dnvjM+dVNIq9ANuvnuTuWNzFGtFzjx5hspchXJ5jk57j2Zrh36vRa/fUgkL33fJZYvUZpaYnz9BPl/BciyOP3ScfquHnbXJlfKUZ8u4A5fmTpPl00usnVnlxOkVsrbN1Wt3FBfB1s1tvJFY16cuniWbzXNwsM3162+p+xWEhwKubxgmcRCr9gtN06nNLHLu3LMUK0WcfIbl00uKM0Ym0NOmaRqGZeK7Pu5wXMWXa0J+LcdWtmIdZoedDe1GUyGGHtTu9zdRFNJsbtPZa7N4agl36Kq9Sv6fALcA0RM/6o/IV4QsKvp4XdsJcaM7EISB3sgjW8hy+rFzVOozvPGjb9Js7iRJG13w2eSEnJyeSDhatpPcl4CmC3JRA9OwOH/hOf7B7/w9FsolttttXvuTy7zw1eeo5nIMPNHasn1rG3fgcuKRE+SKWQzLJI5hb2OfhXqNh194mMbmAdvbN2i3d5V/Ylo2p049pqTrHCeH7WTx3BGVmVkMY4nBoMNo2COKI7LZIsVCldn5ZRZOzmPaSfAeRKoVUbYuisKGg2kZuENP+W3jz+CYbBZEwjeKYnZ2b6dQCahk5/T6OArkfzHtKIA/siM7ssnKbiz6+Vx3IGDviTOQdrYCPyQKD9cZj8PkWowdN9MyyRayirU31iN0w+DKD6/w5JeepNPo8uzXnmX1/Cp/+nt/xM0b7wBQKtVVj7Gui57mfr+dQA+NpA/Z5/TpJ3jqCy/iewGb17coVPJ0DjqCDT+T4dW3PqRQyYuKd6vPa6+IvsXqQhXf9em1ujhZB98LWDq9xAvuy7x9+btsbl2ffD5NS/oXB5imxczMMsVKkRtXP1RSZwsLa/zSb3yR3Tt76KZOZ7/DrfduCY1pW2T+s4UMhXKBvfU95QSnnW9d1xh0Rzg5B6wxxFu9NnUYa4kH5LoDxQz+swrc5P2EYaCIuHzfRdfHjpc826OkOuEYogIZBaHqG5T3FEcRURiyd3eP448cZ/HUIhtXhRyfO3TZvrGFYZlYtsXquVUWvQWGPSFpKLXmo6tCS3e2vsLI7TMYdOh0DigUyjQaWzQa2ywtneLMw48we2yO88+cp7HdYPfOHvlyng/W18lYFi997inm/9Iv0RuNiOKY1mDA3YMD+p0+o96Q00+cIVPIEkVf5PL3DG7dep+MkyOTLeJ5LnpCXBYEnmDkRlTpZ2dXaTZ36HQOiOOY559/mZVzKwmjtSBBkuNqZ0Ri6+TFk2iaxtU3rk58DoFESsrCTKrswRTbuISDioSPief696mijWH2n8but6Z83+XmjXex7SznLl5S2uTp9TMajAQJmGUQeAGGFamKqExCbVzd4OSja1z8/CXuXLnD3vqeIBkMIjzXJ5N3ePiZJ9m4us76rRuYpmD0r9dXFDoik8lj21ksyyZfyROFosez12uyunqB/+Yf/33myyU+/vAmrb025XqZ2/t7NFtd9jcPmDs2h+UIR/lgq8HWjW0K1QL5cp7qfJXd27ucXF7gf/o//iG/9bd+W0F3M5m8gkZrmo5hWJRKdazASxA7NRHoe0KrOpst8sQzL3Hx8xd55tlH+N63LiuocGmmRL4i3q/b6NDabatkTOgLSTs7a4s+2KRKm0ZpSElE+cH0hh7t9h5BOCkRdcgMP9B68LwR7YMWhXKRIKU4cFgyWNO0BPo8IlvMqZ/HUYSOoUi41Hrpj8hXCpRny3QOOhNBKQgeBMPS2LqxJfTBzywzuzpLJp9h81qR2YVVDMPAG3nqs2AaFvlCBScrknNAsq4y9JoC/h5FETfeuaHG+/YHtwmDUMl0hQmRaL6UozJfJfQDRn2XTMXBztrML64yM7PA3u46N26+y3DYVQk9IU1mk8+XWVw8xezsKpZjYVqCoLA8V+HWB7exHEugdvR7A+x8OY9pmzS3mxPjm25Z0FOEdzJYTp8t8vvpBG0ml+Hqx2/gusMHWgdpu7etR4xpo7HN7u5d5k8uqHEUrxX3YRh68vOkFcn1GXaHZAuCEV+2lWi6rlRa3IGrKtCZfIb5E/O8VP9V3vvR69y+/QG2nU1aVXwhwafpghfFcgSxnBYJJFVyny995df4zd/6G2y3WpSzWd74wbtC9lXXWZmZ4a1bt3hkZQXvS0/z7T98hXw5z2On17ANg/fu3iWKIi7/4F26zR6V+Sqf+9LLXHv/Qwb9NpZlYWccNu5eo9HYUj5Nu73HcNgjky1QX56lEpZp73fY3b2D6w5YO3+B6mIN0zQY9kYi+alrCQHvuHji5BzFqeIO3QnSunTidYzE0BIE1bjHfhrhd7+1cmS/OKbFRzNzZEf2/3tLE5cISJnJyso5nn/xa9gZW0Fj01WTtGOQL+UmoH7pjV9W5vMV0UPY2mnR7/SFfFTiED3/8vMMOn3iGKoLVf7od/6ID977Ab1EQsp1B/i+i2VJyRzhMJYS8qG51Xkee+kSmUKWOx/exht5VOaqFGtFrrx6hSiKME2T6nyFKIpp77UJggDLtlhcW6S118IbetSXZ8iVBJHU2996m92tdT788Ae47oCZmWUKhSquOxDVADtLNltgcfEkBwdCh/jUqYu89BtfpLXTJFPI0jkQwbthCaZaCZWeOzZHY7tBv9W/Zy6ko97viPfJ5DMCJheEEygINV+6hj/yefPyN7lx4x0hd3ZI9jydXf9J10N6jnVdyPVcuPA8T734BZXFVyjdJGbIVwp4Qw9N18iVchP3IJ8vjkWv47ELxwj8gO0b23Qb3QnGZ9O2VF9fa1fIrA06Q7Y372BbDjPzC3SaTe7e/UhohgP5fIWlpVOsnjnOyvlVKnMVNq9t0tptKf1sTRMESMtnlmnttbBsS71Hc7upxj/wQ2qLNUa9Id1Wj1sfXufy5a8DAmqp6ya27VCrLbG6eh4n6xCGIZ1WQ6FD1s6dpzJfxbJNhr2RkJrTRVLDyljMrsxy8anzHHS6XPnhlUMdpUFHwLjlNeQYyc9V+m/sjM32rW2+++3f4+Bg474Bm4SPPoil10T6OradFWiE+gpPP/dlKnPlROYunkjemJZJviJk43zPTwIp/Z41VqwVqa/UsRyL5naT9U/WcQcuTs7BtE1G/RGD9oDrH32A7404eeYRBt0+dsZhNBgm+1GBUX9Es7nD1tY1nn7+S/y3//A3afX7tAYDXvvBu4x6QzRD5/Tjp3nvu+8y7Ilxrc4LnovOQQffCyiU88yfXFAImtnVWZZX5yg4Gf7X3/7f+f73/xDDEA5w4HtKArNcruM4OdVb2ukcMBr1uXDheU49epZzz5zDzljYGZvv/cErOBmbx3/5CeqzVW5fXae53aDfGUzMrztwFeFbFIZ0mz0xvmGEloylloLJ2xmb9n6H73zz99jZuXVowvXTrgnHyXL69JM8++Ivq/sc7zWTCRxplm3iZB3MJAhLw+hltVleJ45j8mWRdG3ttO5JEshnkNJoCycXKM+WCbyAzkGH1m5roqVDTyUT5T1qmlCdkFword22kLmzTMIgFKSnmoZhGpiWoVQBoiBUvB2j/ojAD9i6voVpGSqB5bs+g26PdmdPkJzaWSqVObKFjJinpJ0sXxHrpdvoqj1KzUeKGDJbyFJbrHGweaCIRNV46BqB60+Q2IWBaFmSlp776c+wRE9899u/x97eXfW6B2GjlyoLh5lhGMzPn+DzX/yrzK7OTrYGJe9lJPMvW8h0XcfO2CqIl88JEnkmJBJHgxGWbZHJOepng86AT959n93d2/T7beKE98EwTNXnDmDoBkvLZ/hb//1v8tUnHufj7W2ylsVWq8X2XoNBZ0CxWqCx3eTOlTti/eYcwiDCHbp4Q4+n/52nGfVHNLYaWI5Fr9lj5dwKg3afTy5f5c5Ht7l5813m5o7R73fY3b1NpTJHqVSn3d4jlytx/NQ5gV7yhU/kjzxmlusUqgUMQ/DHCBlXTVXf1Z5pGmQLWTRN9LRPcGKo+U1B55Ox7jZ7/MHv/s8iwaHpuEm74mH2aXyII/v521EF/siO7MiUpTfqbveAg90dVtaOK0dIBo5xJNiT9YTAZdQfkSlmVb/vYRn/XrOHaZmce+YcG1c32L61rQ6nH/3xj7j4+YvYtsX1t6/zl/6zv8QLWy/w+r95nTs3PmF39w5RFCnm1Up1gdXV89Rm6+imwcxiDU3XFYNzeVawzt/5/m1xv3GMVbCwHBtv5Ip+090WvuezcXWD+kodwzBU1b69PyRXyrFoHmd2fplOSwSK7fauIsZy3SFh6DMazbO6doqHao9x7ulz7K/vU52vsHtnj81rGwo6DGBnbeGEbezT7wxU9TTdfqBpGr7UetcR/dASKh+lnO8kYjYNk73GNo3Glqq6TjtHPwsIXJxU94LAw096k4lC4lj2YAunatAdYJqm0Ms1RF9eOosfJ9W0UX/E1TeusnR6iRdfepK84/Dt715m45MNNF1XlRVd16jOVwEY9Tdpt3aJ4pDBsEu/32Yw6DIa9Vlbu8i5S5eozlV4+LOPcPXy1YTRP1KOlyRS6rd63P34Lg8/e4HhYMSN924mlW5xJBqGThiMONg8QNd1ags1CuUC8ytLvPmj7ygnV080vxuNLer1JcIwwrYyHD93ikK1oOZ10B0KSbsw4uTFNSrzVfLlHJ7r896bH9PaTaSwUkgPiWIIg5BMTqBD/KSvMT0ncs1omqhcbq5fp99vTc35T1d9n14H8j3jOFYSUZ3OAd12i8pcGd3QEx31MbokSHgSnJxDHMUMu0PsjI2VsSbWV3u/TbfRVczrIukCvZZodXno+YcYdgfMrs6yeW2DfmdAq7mToDG66t50XWdp6Qz/xT/6B3zlmSe4ubdHs9+n0eok0oYGCyfmefc77+J7PrqhkSnkWDm7ovrg2/sdRgOXUW8oEDquj+VYHDQ6eKWQv/3b/wGn/p/T/Jvf/b9FlTvwieOQubkTKskjlRJOnrzI4okV1i6t8dCT59jfa1KuFvmTf/INnIyNk8+wcXWD629dU9BnhYBJ4MKapqk16nZT1VV9vHdEYaiq71EU0240aDZ3fuZSgp7nsrHxCb32Z8gWsvckltJrRAZkmiYY/Y2Rh52x0U0jgQTrE3KlojovzozAC6jMlYmjmM5BZ6xjremJ+oWNpmns3Npm984uM0sz2BmbxbUFojCm1+7RPeiqCn8YhAIFkvQMdxpdWrttwU1i6upeRKuToZLM4uwTzPu6aSiStUK1IIgxU583yzYxLZNMPkNlrqbOTZlEkAgAEIG70EC3JhrC5ZlrmAaV2TLluQpb17fwRt6h5IGGZU5U3+NU8P/j6nRRFJEtZHnn8it0Ogfqbz7NmTHdZiPnPwxDDvY3+PjDNyjNvKSQOOm/CcMxsZzaWxJ5yVxJ8KlEYXwPwZqTsVUvuuXYxFGEYRk88swTGOZTIpG306LXadPrNhm5faIoYnX1PF/+T77Mv/vCs2Rsm9dvXCdrO3xwd518NsPunV2crIPn+qx/sg4IUtaFtUXypRw3379Fjx4f/NkHnH78NE7WYdgbUq6XqdXKfO7iwzS2m+RKWbL5HO+/+wP6/Ral0gylUl0hdyzLEdw4lkltoaakK03LRDcEcmUi4ZG04QFoiRynrovP1XTwLm2s/T5eN52GVHKxlELG/eyozvuLaUcV+CM7siO7pwIPYNsZHn74RR579sWJvltgAvIoKyiWbZItiR5QGWinqylp5+7YhWMUa0VG/REbVzdobDcwLZOFkwucefIMN965gWHqnHjkJI2tAzaubbJ3d08RNqUrNCcfPUmhksdLHKqFEwvc/vA2g84AwxJybSI4iKkv18mVsmxe31JM8CDg39lChgvPXWD9k3W2bmxjWqIS4rk+xDGmLVhw+50+URAKwhjLVJDKxVNL6uu7H6/TPehQmRcoAE3XKNfLHGwe0NhuTCQ6pi2OYwbtwUTFSf58+m/kQX/l3cu89daf4nnu9OXU6x4key5lsKar+IZhsrp6nudf/CrVhdqhLLfy9bJCb1gGxWpBVa/SzyHXg2kJx+jSQ6f5o3/+bUHAk7CD246oUoJwRALPp73XobXXIgx8CpWSqtQtnFigVC+xdWNLkcRJp920hIOe3ARxFFOql8iV8mxe2xTPl/w+CmN8T8y7nOPSTIlRf0R7v02v2eP6R+/TaGyRzRaZmzvG8sljlGdF9VbTNbX+3YEryNgKWSzb5PmvPMvH71yjudNMxtSY0IMW4y/g5cPukCiMMG0Td0oSKD3eAJZj0dpt8cq3/5Cd7Zv4gXdP0JZePw+q9Xw/eSF5v9lskaee+gpnLz4y1puOY8VAL+db6ibLoFQR+JmGSAgmgb5m6IkTKz4rgRfQ7/R56DMP8YUXnuDG7i5RHNNpdLj25jU+eeMq+/vrYn9ZO8tLf/0lvvrcU+y021zb2eHWx3eozlcxDJ1SqcD+boPrb18X1UxdV5JtM0szhEFAe6+DOxTtImEQUVuqUa6XmTs2x8GmYIN//LlHqBeL3Nzb47Wvv84P/+23aLV2yGQKFItV5haOUVuokS1kWD23ysOPnWVr94BKpUhvMOQ7v/sdjKSCBiIxGni+WnMgqr1hGGEYukoGjvquWp8yWFdzm/xMrqG3Xn2F99//Hr4/uYf/tGtC03Rs22F5+SwvffnXcPsjxRA+Xe1NB/SHmWmbGKYhgvpDgtM4jjFtk8WTiwR+wO7tHQXDDnyBagn9gEC2FST94/LZTNMQ0p3Jtdxkzi3bnEAuwLgyL+YjUtVe3Zzas1PJNsnXIPgf4qRib4o5SkzA8EXwLqQgxb2KliFTVfqlRWGEk3OoL9chjtm8vjXBF5C26ZaVOI7pt/oiaZgK6KbPG03TcLIOOxvrvPHGn9Bs7kyd2T9tBV4kDuX75/Nlnn32a1z8zFOCoK4rWmQEqm7MC5Le1+I4xnIs0UZl6IRhpNoa5PxLrfNsIYudEOUFnk8cQ2W2TLFWpFAtUpkrU8sXKGQyOKbJQa9HdzRipVbF0HRefetDSrUiURTjDV36nQE7t7YVZ4nlWNRX6tiOReegw8GWOMtLMyVqi0KSMvACnn72EQxd5+Mbd3j8/GnuNhq88Z23ufHODXa31hkOBTKiUKgyt7TE7OqsWi9xFGFnHHRTBOrdRjfFvD9GORpJW6KmwbAnVHWmEydpdEV67VqOxWvf+TbvvfsdPN+dGOtpS1/rqAL/i2VHAfyRHdmRqYAtbTJYe/LpL5Ev5e+BcCvm4IRAR8Igs4WsCt5ktWg6EARRpVi9cIzKXIX2Xpv3X3kvIXaLufCsgCSLHvGYlXMrVKslbn1yl81rm6LXOudgOTaFaoFCpcCHP/yQUW+oKjuTjqlgwJ5ZmmFmscbVN6+pTLemacqRiiJRefG9gDiSh7ZN2u+MY5RsTBTG1FfqFGtFdF2n3+mzv77PqD/ic3/1swS+0J0+2Nxn/eqGer8fV+FwBy7D3lA5svL+0DRV2VSOqWXSb/V4441vcPfuRxMMstJ+Ggh9+u/lPWcyeZ577mUefvpx1Y8t44h0AA8IEr4E3iuDMdux0FLPpuYgEI636JE2VL+eCIAFe7nsJ43jeKKtQ9d19V5hKDSyozBE03WcrC0InSIBzZcOtwyGwyDEydqq6p2GIMv7CTxfVPpSHBBhEAoHPyEg1A0NPdHlFeMt+jOjICSX9K7GYcRo4OJkHZFcUmtq0smOgkhAc9X4xhPqBPLzlXbS7IzNxtUNvv3tf0q320ithcOr7w8awB+2R0jTNAGlv3D+OR5/7rOY9piRXrREGOJ7uVCSxAiMgw9ZnZTPlC1kVNAl3yMKI0a9IScvrvHCC4/x+hsfEoYhs6uznJifww8D9Ra7nQ776/uYtsXTj56jkMnwxo2b/OiPf4TlWASePzHmcSzuZXZ1lup8hatvXLtnv9MS4i135DGzOMOv/OpLNPp9thtNjs/NYlsWm80m7VYXd+Bi2iaFSoGMZbG7dYDvepw6c4zXvvc2t967haZBpphV7QSBF9BrdtGmkEwSQRJFsYJs3xO8J8zz0izbotfq8adf/784ONg8FJ2T3oMeNGCTe0ShUOHUqcd48vkvCGjxIfBoWYFPJ3LS96BpmqpK2xnRKnG/YLVcL3Py4kne//77iVqBps4md+Cqcc+VchPyc2ESKMZxjDf0MC1DnRWA4uzwXfFZD/0Q3RDtNlEY02t20RMZxzT0H8QepOmCMT2Tc9TrooQPJgwFC7+anzhGNw1M01CfA3m96nyVXDlHHEZ0Gl26je44AZJ6z+m5lN+HvkiMKeTAfVx8wxAqKDvrm7z11jfY318nDEPS+8WDBvB/npmmRS5Xolpd4Pixh3joycdx8hklPSufwTD0FNN6nNyvjpPPCKJUQ0vI2hKUgmUomVjLNrEygm/m8V96nBfOn+W16zfw/YBhb0h7t0Ucw8zyDKuLc+iaxtDz+P7Xf4SboEhOPXaK9l6Hg819lTwGcS/FWpGFE/Ps3N6lc9BR9xyFEUunFjl+/hg3PrhFc7vBytkVXnz6Im7gU8sXGPo+n2xtsXlrm+ZOU0ll2lmbTE60CvRaXTr7HbyEB2D682Mm6A4nK8j43KGrPnOHJcen/14qlvzB//m/0GhsP1B1/UHPjCP7+dpRAH9kR3Zkh2bPdV2nkK/w6MXPc+7RS/hJz7rqVYwmnYM0C65hGuogdhKHBu7tn41jEQCvnF3hrW++RRSEWI6dyM/ozB1LegYNHSLh9ARewOa1jXH/ZxwLrWnTIPRDLMeaqGjKanfg+YIR37Eg1cNPwvAtLY5jEWj1BdzX93wl+2ZYJoEXkC1mhWOed4hCUSlubDfUNUJfBBW95jh7Pv386feTQbo38vBG/sTvDvkD4eAngeu1K+/x5pvfmGIPlv+nGaJ/+go8jBM7L3z+ZSpzlQnYXrovPk6g9dPPia5h2aKqbqQqCoPOQAW26eotiGA4TIJmFbCbugrMp8dp1B8JRy5hO5dVL6mDG0UCijl3bI7aQpW7H91l0B1O9Gyng4rAD/FdH01DEMpZxjiJlXLKpcSbP/JF8K1r5Io5RbwUxwI6Hviit1ozhHZ4GESqah1HgrQN2a6SBO/SDqumWY7FsDvgu9/4F9y58+GPrbbK/x9UKup+Pa7ymrquU6su8sKLf4X54/MKQTIdWKYrxbIPWDz3pAxivpxTwY00OeZyj3n8lx7n9OI8t/b26TQ6eCMfyzapzVWp5vN0RyPWb22hGzre0GPn9k7SyiOqfCLxGKmKbZw46IIMbVPMc3KfcRSp9RjH4jMfhxH1lVmWTi8xuzhDrzug3+4LPfMkQWBnbUq1IqVaCc/zee2PX2PQ6WNYJplcZtxCkCBOhp3BxLrSksQdiGSThM+q8TTG+vPyg6cbAs3w3uuv8eab/1bJl93PVBLtAdaEDOANwyCbLbK4eIqnnv3lhAzUVwgYOV7Tgfv092n4tGEZOFlbkI/p48SaXB8zSzMsnVrkyo8+UggFmdgc9gRqRe4v6TGMwkhJdUqZNitJMgeBQI0F/hhVVKwWOPfMeZq7TW69dysJkMUYRVGMnQSKMkHsDlxVFZUEsHKvkvMZ+iFRJNp60s+XK+XQDZ1hR5DHSjj8NOpKBubT5KDuwFXcE/eruEuzbBPDMrlz/SoffvgDWq2dCcnJT7Me7hfATyeMstkCpmljWTbl8ixf/at/gyiKFBpHvl72xMvkmvy5mfAoGKaRnAuC2FHTNHzXU8gM0zYVb8DFpy+wNjeHY1kEYchBr8e1zS1uv3+b1l5LjKmU99N17IylkBembRKFQjnEtE1BjFsrsn1TsNHLcyJIkkmi8i/UdzL5DAsnFnju+Ys0+30OGoKAt1jKU8kJfpjWYEDzoI3tWDx0fJV/9S++zf7mgdJ6l60cuiEI/GzHUj7SsDdU6Mh7+UREoJ6uvstE75U33uH73/9nSqZ3unKf/jqNTvlp5QWP7GdrRwH8kR3ZkXEYaRkIp2p+/gRPPPHLzK0uimBNksxI0plDWNTT1RMJkTZtC8PQJyCLEt4lnbBMPkVYo4173qIoEgFNAk3WNA136OKPPDL5DKZtEQQBcRgJIh9NS+lJT8K5JRxXOlm6oSt2eAmr13VdBYFyh5RoAnkgRkGoAjbLNjFtK1Xtjhj2hqL/O3G4JCxWfh9F8USVRJL6ST34tAMPqEBDweBsi531TS6//m9oNLeS6gkTB65pWkLCSDdpd/Z/4vVgGGMI72FBs+TulQAAIABJREFUfC5X5Pnnf4Vzjz+aVIxltTU1d9Fk5l/OgzJdI5PLYGcsgkQ6KFfMKaiqfO9pZ1SOk3S8JTO0WBeoKpqEsCvnORVgS3jx2SfP8thDp/jmn/5IwSHlexmppE6YkFLpuiC4km0ipmlMPHOQ9NfK9WLZ5kTrAHFMryUIHHVTxzRl8BCoVg9p0mmdHgtNQzmpMtjRdZ0PXn+LH/7wXypCv7SpKqdu4Dg5DMNUcnw/qaWTOvdDj5imxcrKOV74/MsUKnkVUBDHCuGgnjE1cOk1q65lGYmcnzHR4y0tSqC0cST0uMuzZZysILls7bZo7TZV8iwKIzHmxhhaLRMH0vE3LFNUYXWBFgFRORUKHJEK5OV9yPeWSR7dEGzi1YTfQN536Afsre+zcXVDVXfTaI709Ybd4bj9ADlMU+M1/qNx5T35HgRU27RNbl+5wSuv/D6uO1CtNdMJVDlntp194DWRRulYlo1tZygWZ3j00c8xv7yi2iEk/FjsefdCveX36Uqh/JmdtSdY2eXPozDi4RceJpPPsHV9k8Z2U+ley7mWc2tYhkoWTZ9Z02Ms9+cgmdtMPsPMUo0wiNi6saX2EMldIoN1Bd3XtHsq6+raSZCtJS0jEnGSLWSYOz7PxtUNIbN6CJmf+PtxEkQmNAM/UAmBaVd+OvAHcZ6btkhCX/34La5ffyuRuhszmuu6gW1nMAxT9cT/JCaVIA5LOqTvSdcNctligjLRefHFv8y5px5i0O6rRKX82zFh2+Q8gdhfbcdS4xx4vpibFHGhk89MoKtk8kZozI9bl0gSiFGiM29nbAxTJwpjlfyVqAonK5B/vXZPJV9lQkYm8wGFxJL7TG2xxrnHz7BSq+L6YzSMrusYus71rW3e/c67tPfH8ozp5JWs1AP4rs+oP5rgjZicC30CoaV+bhl4Q49/9fv/G43G5j3r5rD9wTBMbDuDadoPfGYc2c/XjgL4IzuyI7un4po26ZQ/9tgvUZ2rqIAJJh2hNLxv+uCQBxEIx1xCjTVN9Jg7OUcF5unkwLROcJoYS0KrM3lnor9RBvpEMZ7rJ6Q2pkoeSEh34AX4I1FV1U0D27HEeycHbuiH6Aks08k5CmIfJkGgaRpKJm16DMIwZNAeTGTvZUZcOrLTTuw0okEe4GnHTf7ediwaOw3euPx1tnduKQdM/NOVAxZFIYHvERM/kDzQYdWU9L0ZhkG9vsJzz73MytnViSBevFY6JzJJk36u8fNNX99IiJ9ksmR8P5PVqMAL8F0PyxFVNgl9lL2DURAJHfckAWQYOnEsGIq9JOkT+gGFapFM3qGbkGVJ6L1cn7ou5iBIaXDbWVtVPeykepqGyqYrbumKUhyL3tthb8z2mx6CeIwuPzRpIr8UCAdNja/l2DS2DvjuN/+Avb27uN5oIkEm14NpiHv1fJc4ChkdEuj/OLtfAD99r46T45FHPssTn/msCI7TsnfyIQ+z1O/UveuaqjpNw+nT9+CNPMIgFBVRyxTkV6kgXSZs5N8KCbZQVWhDP8TKWArOLyH/Mmkm9jnxXqZtCbSM6ws0T+p9/JHYy9LjIgMLIRk2FdTJwCEMGfXdieqvDCbTpvbCdDIklQgxkuBx5/Yu3/3u79Ju76tWivSa0HUDy3IwDYsojhJ9+OiB9giZ5FOVPcvBMC2lYHLq1GMUSuWkCi0Tm5NJS3lfk8vg8KBTQqc1XSdfznPsoWNEQZRA5SPufnSXbqMr0CvJdX1XIGEsx1b8F3L/V2M6nVgClRSRyBvDNESAFsUTKCAp6XVYwjFt8gwAlHScnXWozJYpVIvceOe6qOBOBWPpFoB0205a3z09lulnSq8jiSBD02ju7fPRR6+yvX0zQWaECOlDIdMKJOshVhXan8Tud2YcNh66rmNZGeI4Ynn5DH/ha79OrpQTEmj+JFJMJi2ng3jZDx/H8T2V6dAPiMJYcZrIqrpE0ihSwSQolxX8MAzxhkJbXrY9GJapFAjkGWfaVvJ7Madyv5F7ljf0xBkWxzj5jEomS//BztjkyznsjM2gO6S931b+TDqRpeuaKHwkhQeZBEqv8bRvddi+LL+WZ+p3/vW/4Pr1t+7hy5k+MyzLwTJFwuDTnhlH9vO1owD+yI7syMhmi3jeUFUWpg9jQzdYWFzjwoXPUK3XRfCdgqGn+/JgHMge1jM/faCLapiO5dgKajxt08Fu6AequqYb+viAS3qbJcmNrKTK4Nsf+URhqA5V3/Xxhi5RJJwAKyOqPVEQgi6uN+gOBWwv6YWTFX55P2nnT6IJ3MGkFqt8hmlna3rcpsdv+mcyWdDaa/H2299kc/Nqas5MVb2SMjnqb9Ee6PDN5Uq47lgaKl2RF88ttGMrlXkef/wvcPzcKZysM25dSObhsABU/P29P0u/1krIrHRDFyzeqaq8+PtYOU+6kSRz/FCtI00TsEYJTY/CUAVe0pkDAbX3vUCwnVuGgKEmOu2WY4mKR1J1k0R4IJj2BdfDODBUKI7pylko+uR9zxeyVCkT6+H+UNfpdZ/+uWTM3rm9w2uv/mt2dm4RBB6allSYDUs55EHgE0UJ63PSVvGgzlgmk1cOvZ5UzyafZRyYFQtVnnvuZY6fP60cbRm4TVSSU4H4Yc+YnnNZOQcU6gAYO9dJkGQ5Qn4wiiLFUC73Ahmgy4BZtmsYhpHo1IsqvOf6mJYpEnCpz7NhGapXVVT0JQrCVHtJrpxPEkHjQEH2dE8k6ZJ1FXi+CESieOLzMzEW6VaN8YBPJInk/d54/yrvvPMtdnZuEYah+vxOrwnfGxHFSaXvU6yJfL7McNhLBRuGgkaLMTUplerkckWq1UVm6yvYjoOWfKZlJfmwuU//LB2cSPnFU4+dEvMYhLiJYkC5XsYbeWxc3VDzLCXm5NpJS9ZFYaSILaUyhqzCyn1cwqLF+tNEgjBJIqSTzFEU3dPGcNj5ZyS9y6WZkoLIe0NPVV3lc8v9LQzDCbnVw8YnPUbS5LimW7+GnQF3737M1atv4LpCASUKA4xE5lDsEeHEtR4koZNxcooQ7c/bH9KWyxWZnT3GpUsvcfLRNdyhq/Z2+ZwyiBffjxFe6d+L99VUsl3uwbLqLoNh2dpj2RaaNk6KpTkSJJpr2Bspn8CwDJVcGK9JcU/eyCPwQ5W8k+0jmZyjkvxSHUI+m0xKyKSyvK5Ejcj1KiUJAy+Y4H1JWzoJlR4P6ZvJZ3j1W3/K+++/gueNJj5fh+0P6TMDHtyHOLKfvx0F8Ed2ZEfGyZMXOTjYwPNGSTZ+siIvK8b5fJn5+RPU6ys4To58vkyumFVEb7JCkT4c0hni+8HqQGTUzQQuqdjCo3jiME4fUPeDQKavq2kCwirZy31PVKolgZGEtUsIv6yqj6tnAXHCKix76yeebcpJkBJF0/cyneSY1nO/HzmRCER1FSj6rs/BzjYfXvmh0PkOA0zLRtN0gsAnDMeZeRCHrp5AGweDzp+zCsZ25sxT7O7cwvPdxJnRU3MQJW0NwpnIZPKsnbzEqdOXKNaKxDHkymM1AqL4HmfrPrGIuvc4HvMSSJby9JynnWoQzpfvesSxCPRMy8QwdRV4yzGUVQhB9OQy6rtoGthZR+gNaxqhHyr5ItlDH/iBuobvenhDDytjK+Z00zJUVUz9i8bkWbKaMx7D+zvg6bGJDknwGJaBZVv4I4+bV67zxuWv0+keqEEUuuM6YRiM1wNqcNF14Rz2++2feD3A5B5hGGaqIi9bQiLiKCQmRtN08vkyZ88+w+rxs+RLeSV3JKtm00HJYZVQadOfeRmwagl6ZkzQJLWkRQAmq6NSUUKOQeAFCTLDEMmAFLQ68IRDLYN12T8venQFrFsiOyQrdBTFSuJPcnFEUaSg1JIcM83XEKWCRhXYTCU3DrXUh0VPAknLsXAHLnc+uc5rr/9rgsBjNOqrQErO12GJHE0fk3k+yJo4efIijcZWkuiLMAxLvZ9cG1EUoutCRs8ybTLZgjhD5o6zdGwNPUG33E83frqCK782bVMl9+QaMEyDhZML7NzawRu6BMGYOE4F8Mk/xSifqrRPw/2n319VshMSMRnIx5EkPZ0KTpN5ku8h0UX5stB9d3IOhXKBxnaD5nZTjYFIOE4ldFLnwXSCMP1zaRIFpGlCXqzV2uXatTdpNXeIketN7ONh6E9cU1ZgNU1nOOz+xOvh+PGHaTa38bwRpmlNIHaiKEz9H038XNN0crkStp3hxRd/jdVzq0kV253YJw/bI6d/L4NiMQYiYJdrJY1eSBOOpluspnlS+p0+tmMp3hMQbXeSB8FybMIgVAzwTsZWBJ6WJGKU6ydJakslHZmglueKHBPpT8j3mUZmjAk1J8/CQ5O8+ji5+P7l13nrrT9VXDm6LvYFDQ0jma/Dzgy5P8CD+RBH9vO3owD+yI7syLhw4Xl0TcfzXZrNLXrd5uQpmTj+6UytYRjkcmWWl05TqS6QyxXJFjIiC51kmkWWf7KalCZbmbY4jhXBjoS8i+qOfugBJRML08F86AfKWfaG3j0yKtJRkX1l0+Rl6UqBaZmi3zbR8U47OumgPe1sHRasq/tLBe3TP0uPkUxkeEOPQWdAq7XL3t5dNjY+STLoIgAKA19V0sZjIxwwy7LJ5ytkswVu3HjnftN/j128+AUMw2A0GnCwv0Gne4Cm6cL5StZDOoiTvdWz9RWMpOWiWp8hW8yRK+YSGHpAFIQcduIcFqukHTEY6xwb5iS8XfYlA+r6moYi91IyZonzJtnhpxn07awzwQ4vkzoTyaNIwPc1XZAkGSmSPd/1hQyQqqRNwt7Fc977oNM/mg7apSMmA1V36NLabXHn5hWuXnuDfr+DrE4CCRnV1GdOF59byQJdLM5w9erlewf9x9gjj3wWwzAZDLo0GpuTwV4co+nGRDuJrMIWClUWFtaYnz9BqVJV7TK5ck5VOQ+Tu7ufpQN1GbzKHuk46W9VXBHSuU99H8dj8jy5h8j7kHD39LUlj4GC2iaQcC/hWQiCQElhyZYREZzcm6RIP8N43MbtIT/umafHRiYVfdfnYGOfG9ff5dbt9wkCTxGSSehuGPjEpK6BhpZ8di3LJpcrUchXuHb9rfvew7SdPfs0pmkRhgGt1i7t9t5EAkKuB3luAKn9Qmdt7TFmZ1fJZvNk8hk1XtPPK5/53iBz3G4lKqlCcUL2JMvETZoIUQbZMuEqE0lpycnpZMJENTP13hKxkT6n0omYNFN9Wv4xzcMiZefSwfr95vswmx4nqfQRRxG9do9Wa4ednVvs76/jukNVYQ/DcKK6CknAluzrhUKVXK7EzZvv3ve9p+3SpZcwdJNev8Xe3l1Go37qPqMkkTOuzEfR+HMvIPUOtpXh4Uc+y8qJNarzVUDA09P752FJ4PHH6fCkhgxkZfuenCO5D8jXpBNsUvlF9tnHseiP94ae4ptxsg5O1sYdCqRHGoVlThUe0pwdMoGglHyS/Ufy9shnmXwG/R5/57BEk3wW2U5wsHHA1Y/f4pNPXsfzhmqe5XzA+MzQUmolMnA3TYuMk6dUrnPt2ps/8Xo4sp+/HQXwR3ZkR8bKylny+QqGYRKGAb7vMhh06Pfb+FInNJ4OMk0VxAm45Ay12hK12gL5fIVcIa8qsRLeGqX6z8Q17tX8lTYRuCRB/3TP4UQveeIsSwh9OoGgp6rqE44WY0bedE+7fP90hUxW32UlTWb0Az+cqKYBE+0Fh9n94PEy+PBGHoN2n+Gwz8HBBnt7d2k0tglDAXM8LEiTB7Om6RQKFWq1RSzLYTTqo2n6AwVsqyvnKJXqmJaN77v4vsdg0KbXbYp+uDiaXA/auK9WOgbFYo35+RPMzCxTLFfIl3IUqkUMU5+oSsue7uQyh64DWbWWJh0ySUaUrqSkx12uAem0y0qbtOnefMMysRxLXM/QJ7kVxBcTlXYVcCTrQGoPy0pQ2rHStHsrZckl76kyyaqiaZnouqiidRsdus0Oe/vrrK9/TKezrypaspImHbCYWAVpmiaYn2dnV8nlygwGbTRN58qVH/7E6wHg2LGHKBQqGIaF748IfI9ur8lg0BnvEfKB5DzJPULTMUyLYrFGuTxLLldkcfE0pZkSuWJWQdf9VA9oev4P+1rOixxjUZHVFURbtWCYY0cVUM63hLnLxJLn+ve8l6ZrAhlkW2pdyPdUSJt0BT11X77r35O8POy5flwyM216EmzIBNOwM6C112Zn5xZ3bn9AW62HVDvPIUFaek3U6ytkMnmGwx6GYT7QmqjVFqlW57HtLJqm4boDXHdAt9vETQVvMF6PumGqoF7XDYqFKvXZFWq1JfK5MvlScYI35H7BdHqMDgtw1bxPVTfl+RNHkQqcZavNNIIjnSQYJ2Wie+5F7kHpM0pWXicCrVgQnqWJ534cMi39HvfuGSmEVgLvJhYSg91ui07ngJ2dm7Rau8mZ6Av0RRhMJHLENcR8yFYH287gjvpouvFAZ8ba2iXy+QqmaeK6QzxvRKdzwGDQnpQ3ndofppPnlpWhXl9h7eRFFo6tUqgWsGxTEdRNnwXTgfz99l75O8MyhXygMVkUmOYrkSoBoiAgUFme6yskFYgkseTdAJFskEkBSYIqz5ix7OhYslIWBQ5TUhk/37g9IP2S6b0kfSaO+iLJu3H3OjduvE232yAMJxUK5P6QDtrlOQ6Cy2R2dpV8viT2B93kgw//7NB7PLL/b+wogD+yIzsyvvSl/5DLl79OGAaUSnVs28E0bXK5Ip47Ym9/nW63QZyWIkufinGsCIwMw6JQqFKpzFGrLVAoVMkXSxTKeeykT1rCFX9cQH9YxVxk8FPV6xT0DcaM5NJkv+O0ozf9Gi1ht09nxtO9krLHUQZv6fuebhE4zOma1g0GVNBpWCZxFDPsDem1uvR6TTqdA1qtXVqtXdxRnyiO7oG/SkdMOmCOk2OmtkixVBNkPN6QMAxpt/fo91sPBI99+eXf5JVXfh9N0yiXZwWhjeWQz5dx3QE7O7dot/fFeph2oJM1IYN5wzApFmvM1JaozSxSKtUpVAsUa0XFGh4m1QfpzIzXwKQTK0kIpx043TQEnFYfwyhlVUtVz2VPfkJweM8cxan3NARDvEyoiDmUENfxNaU6wmGMv/LL9HXT7zVdUZSs9NIZH3SHdPY7tJsNms0dms0tDg428dwhURwRhgFRStYnHbTruo5p2tTry1SrCwCqAtdp79Fq79HtjmUPfxL7ylf+Nq+++q/UmjBNG9tyyGQLjIY99vbu0u01778mANOyMXRR0RZJpiVq1QWxJiolCtUCmVwmCTpC1cKSDuSk3NthbScTgU0qoE/Dp+W8pRN89wuilfOcXGs6eSjfV/xArokUUdsUQzwwkUw47N7Tr5P8HqZpEgQBvWaPbqNLp7NPs7nD/v46nc6+4rwQrPmhWgvTiRzLcqjXlymX54jjEM8TJGbtZD08yJp48cW/wjvvfBuAYrFGJpPHtjPksiWC0OfgYINmc0dBcu8Z2xR017IcqtV5KpV5KpU5cWaUCqqaLD9z6Tn5cSaTL/eM89TndDrpImHSakpDybMxKZ16P4SARILoU/KSMEngd7/nmP7d9P3J30kUUhwJjpZ+r0Wn26Dd3qXR2GIw6KgK92HjL88M285Qn1kmX6ioxH0Y+LQ7+/T77QeCTH/1q3+HP/uzf45lOZST5K/j5Mhk8vS6TXZ2b9Hvd+5JPKc3SInw0zSdbKbA3Pxx6jPLFIpViuUKxZkiuWIWTdcPPTPSSdJJ5ET62ZnYE0B+1lKJmdTcyWS9TB5M7xVi7zYwLUOR4U2cG6nkjfR94PD2KPV60rKKk8M0sceZekLuKJL+7d0WjT2xN+zt3qbR3Mbzhocm9aar7RJSPzOzTK22mCTlxJnR7TZot3YfSMnmyH7+dhTAH9mRHRkvvfQbFAplfvjDf5n0ThpknDyFYhXLcshk8pimTbfbYHf3NqNhb/zHU4G8zOIaSfVNQHZrFIs14ajnK+RLRfKVPLZjITV5paMmg+Np0rs/z+G5Hzw5HUDFMRPBQNoZOwzaPvFekrnW0O/rYE0f7vcE7JahKoLe0KXb6tFtN5Xz3Ons0+02FDuwrFxMw9uks2MaFuXKHDMzi2iawWjUw3OHjNw+3U6DIBxXFXu91qHPdZh97Wt/l3yxxDf+5J8IYjQ0MtkCpVIdx/l/2XvvKEuu+77zW/nl2Ll7eqYnDyYhDwIRSIABNDNtyRK91lo68u5au157fVa2VufIx9712eO1vLLlo0AvLUIWSYkiCZAAMymSIEiAgAECRBgMMLGnezp3v5zT/lF169WrV/F190w38PucM2f6vVd169atW/f+0v3dIILBKERtm6HFpUu9gh7rC1AFRXV9rFpXXhARDscQjw0jGlP7RCSSQjQVRTQVRSiq7o3LQpmZgMaK1J+x1TOyyOJvCTuXPRvDZ6Owx063EwTN6PXTDARm44C5boKkGh3YGs1qqYrCRgGFjYJuvMnl1NBklnSo2Wx0FWSTVMret3hsCKNjM5CkACqVPKrVEmq1CnK51R5PuV8F/v3v/w2EQjE89dRfodGoged4hMJxhMNxKHIQgWAEPC8gm13Bysqsup2dnasM0OsrCBJCoShisSF9nAiHE4glY/ouAQD0UHtjUi9dMXfJKaFXwbSrg3mM6RiMgeyz+V1nBgSgO5ZYYaybOaGZnWLGkqqxBFulXBn59Tzy2Qzy+TXk8+u6ss2icZjSboTlIVATy0mIx4YwPLIXkiSjUilqfaKMfH4dzWZdHV843lefuPuujyAQjOLFF7+NZlMdZwKBMCKRJAKBMILBCGQ5iFIxi+WVK+qyLK1unU4HPMf3LP1Rl2WJCATCiMeGEE+MIJEYUftDLAxRlvT9uo0KvbH9rJ6XOexefYZc37ts3h6VfdfzTF2WQ5m3pzNjG5Fl+t5s3GMKuyCq+9SXciUUCuvI59eRz68hl1tDqZRVjXoWkRcA9AgISZSRSI4ilRoDz4uoVAqoVkuoVksoFjM9uxb4Mfp++MP/CKKo4Kmn/kpPphmNJhGJJCHLQYRCUQDA2to1rK5cRa1e6ZMbjIiipBv7gsEo4vEhRKNphMNxRCIJJNIpxIbjCEVDYBExTNEG0KPUq22Kvs+9HviuV53jOH05lur5tncAdL/rvQWO4wwGZ/u5o9s3+8szXsvKyFvIFJFbyyGf3dDGhhWsry+gWimi1W5qhtCmXljPMhpDboxoNIWxsf0IBiOolAsoV/JaBMWansiQ4zhf2woS2w8p8ARBIB4bwomT92N8fAY/fupLKFe6CpkgSLowFgiEEY2mIEnqnqBra/NoNFQBkG1ZZobjBT0RmuqhiSIYiiEUiiIUUifjeDytKnDxMNhWK+1Wu2ctu5OHjP1tFuCMWcLNQpER4/oyu+PswhiBXuGPRQqwLOGCqGZRb9abyK/1CuOlUlYPOW21mfDV0qUBprgzgZwpwsnUGIaHpyEIAgqFDEqlLBqNGiqVIur1Ss/9AsDY6Iyv9a3J5BjuvOODGJmcxLe//mjPekZBEBEOxyHLQQSDEcTjI5BlBevrC1hevqJnKm+3W72h1YbzOa4bch8KxREOx/S+EI2mEE+lkBxLIhwLgxc4NOpNPcTaLYzSKhpCfcj9irUZTuB7FXuzkm/EKNxblM0ESOP6dV7g9f3ha+Uasis55NZyyOVWkc2u6NEXXQ9aSxXA1BvqlT45Tk8WFY8NYXziIELBKIqlLHK5NdTrFU1ZK/bd8+joPt/rGROJEdx66/swPDqJH3z/Cz19gkXryHIQoWAUsVga4Hisr1/DxsYCGo266oVqN1UFwSTtGtfHqn0iqi7D0f6PRJKIJ9OIpVUvPcdxaLe6SyKMyTPN77ZZUTf3D6s8HVbnsXOMv3sRn4wKu1GRZN5eQVL7AzgOlUIFudWcNkaoylmxmEEhv4FqraR7VY2RF6ZK9/SJ0bEZBAJhlEt5VRivV1GtFrVEVr33PDa231efiEQSOHLkDIaGpvCzZ7+GhmHnC0EQEQxGoSghBIMRxGJpKEoI+fw6lpYu6X3HnDTLGGovCCIUJag+/3ACkWgSsVgawUAUwUgYwUhQX46jj/FaeHy3vdG3bZ3aTP3PlfUFq9+M55kNA+bf7P43YtVPjZ5XtgRA0pJuFnMlFHJZXWkvFjMoFjKo1kp69nj2PHuis0xK+9DQFERRQqmU0w3F5XK+b7s4juMQjaawtHTZuRMYSKcncPvtjyA1NILvf/dz2tIt9R4lSUFI6w+hcBzx+DA6nTaWli4jk1nSjQYs1N8MUzQ5jtMNfpGIahyIRpKIRJOIp5KIjyQQiUf0OYMlgWNJJI2PgSnsVmO77bttjrQyGX+BXptltzzrss3GYWPZbKcNURIgympm+MJGAZnlDHKZbj8oFDZQLGa0nQVaXRmCYVDeOY7Xx4dwOIGJiYOIRpKoVIvI5VZRrZbUOaNSRLtjzMnQxsjIXl95dIjthxR4giD0NXDHjt2DmQMn8PRTX0Gh0G9tFUUZshzUk6Ol05NQlCDyuTUsLF5ApaxmrWUh32bPEDiW4VZLBKQJeqFQTBfWotEUYtE0Yil1j1w5IIOF1LJwOXOIqpXnzWjc50VVIGq32rqF3miBZwIex6l7RPd4bSwiAYwJ1IwJ51gSr3a7jUq+rHpUC1nksisoFDOoVAp6aCJLNNWzntzkWeV1L6WIofQkRkb3QZJk5HKrWF9fRL1eQbNZ70lqZ2Z8/ADue89H8dn//C999YdIJIGbb34Ih46fwDce/yxKpVyfYCOKshqdoW0ZNTK6D4oSRC67giuzr6NcVhOsddptNJp1VfHoU7C67ab2wxjC4TgCATVjdTw+hHh8CMkx1VMvB9XM8GwdKdvzF7CPrui9HqeHuurbiukCXtcwYBayOa67B7vxOwA9yRYFke/Jfs6SlJVzZWSWM8iurSObXUWhsI5yuYBSKYtiMat5QrvnUn5UAAAgAElEQVQZovvodMBrezVzHI9EYgT79p1AQAkjX9jA6sosKtUiGo26bhBi7dstoo3JycN438d+Gf/p3/4zT32BwQw3p049iH0HjuK73/qcZZZqSVIgywFIooxYbAjDw3vACyI2NhawuHhJ356w02nrxj8zTFgHAFGQ9OzlbOeLaDSNRGIEyZEEoukY5ICsJ6Nj+RXYWMFeKeM73m2PXgWMecLY8fryGZgUOm1wsVLi2JjB/uZ5Tu8fbMkMz6tZsYvZIjKLG8hmVzWBPKuPEZVKQV+3qhv11Iv0jBEsDJ3neMQTI5iePgZFCaFQ2MDa2jyq1RKajTpqtbLeJ7r15dFutzA1dQTv+eAn8Cd/8C889weeFxAIhHHgwC2YmDiIn/3sCT2U39gmkihDVoIQRRnhUAzDw3sQCEZRLuewcO088oWNHgOwVbI9NlfIcgCBQBiKEtL7QiScgBIIQ5GDCMeiCIQD3W1F2ftkCLPuWzZhYwlkSciMBp5utFZXGexPQMpZ2dqsPfMc12f05TgO5XwZxaxqdMlkl1EsZlAuF1Au5dBg44RhbjW2GdtOVJaDSKcnMDq6D6IoqctwNhZRq1XQaNZ7QqvNxGJp3HXXR/DVr/5Hy9+tYMnvbr31fZjatx/f+fqfo1or9bQbx3GQ5QBkWe0P6fQ40ulJAMDKylUsLV5CrV7R2r2ljg/tlp5wkUWKdN9VptDHEA7FEAhG9Ii/1NAYUtqcISmSnqek1VQTxanvVXfbRiujsEVgQI/cwO6JvePMc68bf/nutnHd87sedzYucFo/EFjeEy0vQ24th42FdWQyK7pht1Ip6OMEM+4ajf7GinbQ0SNbmFFm376TiESSKJWyWF6e1XMUVKslXfFn7cwYHd2HRz75Kd9zBrG9kAJPEISeJViWgzh8+HYcO34GTz/1FTWzsIZZ+BUECZK2hVkkksTo6F6EQnHU6xVsbCxidXUOjUZNDXk0et7MaEo9C7UOBMLaesqgFq4dQTAYQzAYUb32ETXUOhBWIGrrv4wyrVHYMgrYLNtsq9nN8qpevnfP7p77NQhXxnDYZrOJZr2JaqmKSrGCWkX1bNVqZV3QqtXKqDdqqFaKmmJVQ08mdwtYtALzoE1MHkIslkajUcfa2jzW1uY1r5W6XtFOaWf3NTl5GPc9/BF854nPY27uDedOYIApUIFAGKdOPoATt5/BNx77rGOIrSCIkKUAOC2B3eTkIUSjKVSrJSwtXcbKylW9zrpwZrEekgnsLIJCfe5xyJKiCu2RhK7kR+MJRJIRBCNBKCGlLyO5MfEg25ZOvUbv+kQjxjwHxrbsDWnltaUiXSGnWW+iUqygXCijUqigXCihXM5rwlYe5XJB93ipid+6Hku7deOcFgLNcRxCoRimp2/C8PAeAMDa2jwWFi5qnpcmGvWapdKuFqUKZFNTR/DI3/kVfO3zf4aLF1926AH9GPvEiRP34dip2/G9b37eMaxSFGVIogyO5xGLDWF8fD+CwSiq1SKWl69gfX1B6xOdfu+bQSBl98OeQyAQRigUhyIHIDMvbSSJSCSujw/BWBBKUNHD0Znxhb0v5p0prDyiuvdcN6z0Ggt1Aw7Xa8xjNBtNVMtVVPIVFHNFlIsFVCpFlMs5FAoZ1OtV1GplVCtFlCt522RfOtpYyfpEOJzA1NQRpFLjAID19WtYWrqEeq2KdqeFer3a642zYO/0cbz7Qx/H1//6UVy58prjsUZYsitZUrBv5iRmZk7j2We/2ufNZW3JlHA1NwaPQCCM0dEZJJOjaDRqyOVWsbR0Wdtbvq2Pc33tYIrcYAYCWQ5AktTcLYoc1JT8ICQ5oM4jgSgC4RCUoAI5KOu7EHSV8q4xlz1H3QBgiALrMdqwvmPaSYDNNcb777Q7aLdaqFcbqFfraDWaaDQaaDRqqhG2VkG5ouY3qFTYXJLvHSc1pcyYrJLnxZ45Y2z8ACKRJNrtJtZW57G6No9Wq2GYM5xF/nh8GPfc8zH89KeP+fLAMyUxGIzi1KkHcfj4aXzriUd7lleZIxMkSdG3H0ynJzE2NqMbn1Tv/KLBO9/sSd6qz6Xa3/ryCC3kXt2aTo0aDIdj+nKtSCKiraUPqcuXTFu4Aej31gv9S3J0I1+73RO2zxt2RjH2CWaoYevjWRRRvdpAtVhBMVdCKVtCsZjVI7EqlQJqtQqq1SIqlYK2VMVChjBZi5iXPaCEMTl1CKOjM7oR59q1t1AuF9DptD2ND5OTh/DBX/oUnvjCo5SFfodBCjxBEBAEsWdSPXTodhw/eTd++uPHkckuA7Be98UmYxbi1ul0oMhBjI7NYGRkWp+MFxcvIpdbVZXaerV/7ZvdZATVCy1JChQ5qCXKEyAIEkRRgijKEAVJT47FEucwIRFQ9ykHgFqtjGaziXR6TA+VZkJ5o15DsZSFJMrgBVFXjJvNup6Fval5LRqNGur1KprNur7esNVq6UKYnqUd7DbaeoZ4szDKFHaBFxGJqtttpdMTYOtRr117SzeidNptNG0SQlk9k6mpI3jg/R/D17/8Z1hZmbUMTbSDCeccx0FRQjh16gGcvP0ufPPxR20VNqPVnud4iJIaOSHLAUxOHsbExAFIUgC53Crm599EZmNJN2yo1+J72s3S/YGu509RQhBFWU++IwgSZEmBrAQgSQHNE6wKcIIgqF4fbQ/nRrWORqMBJRiAHJDVrcK0befYVnNseynmhWs1mqrhpllHo8H6RU0PVa/VynruglazgUazrmVjrhiWcXQFccMD079jCjvP8QgEI5iYOIDx8YMIBMIolXKYm3sDy8tXdK8s+9fXdj39Qf1t794T+MDf+WV86c/+BAsL5331B9buTBiV5SBOnLgPx2++s0+JN3tv2HcCL0IQJXQ6HQSDEUxMHMTIyF7wPI9MZhlLS5eQz6+jWi2hUa9au760d4h55FjZoihpBr8QREHUI1fUiKEAZElV4kRJ0T25LDGjKIqQFBkcz+lraNluBAB0b3qr2fWCs4z1zXpTHxtYJAx75mysY32i3Wqi3qjp/aRlDoO38bAbBfJQKIaxsRmMjs5AkYMolXOYmzuH9fVrmhGkqRvI3Oh0Oti39wQe+sgn8djn/hRLS5d9jxFsrJEkGXv3nsD+/afx3HNfV/MfOFxXPZ+HKEiAptgPDU1hfHw/QqE4qtUSVlZmsb5+rRvibRo7jWHi5qR9rEz1+UrgeVH7n9cUXtY/JD2qTF2eJEKU1JwLzNA2PLxHLUeQNMWLRVmp751xZxDjmMCUrXariWargVazgWaroeV4URMNqknm1GUEal+p90etmTAaedna5URiBDzPI5dbw7Vrb6FQ2AAHTk92aWWstlomlkiM4N57P4anfvTXWN9Y6O+jHvoDoM65p069G8dO3YJvP/kXKBYzPc/eqi5siRgzTO3ZcxRDQ1PgOA7Ly7NYWDiPUimrRpTo6/SZotzuU+iN30uaXCDLAV12EAQJshzQozlkWdGjA9SxQerZR57NHYLAA6bEtUYve6ejLuepV+toVBto1htotdR3kuUjUXMOFFCtltGoV9HS+o/aD9Tf9dwWJnnIiHFpHZsXR0f3YXLiEEJawtn5+TexuHhRb7NulExvm7F2M7bh5OQhfOhX/jttzrhguSSOuHGQAk8QRE9YGqCGwR49egZHjt2BZ37yBDKZxZ7jjRNvu93u2wpGLw8cItEkJiYOYWhoCoIgoFjIYP7aW1hZmUVdS5CiFcYKt1bqDd/3CGyGZE1sf3q2DzoAfW0tU8pZtIERVcBWBSdBlPTtmIyeoJ7t24yeEFPYWk99Lf5m2X+j0TTGx/cjmRyDKEooFjO4Nv8WVtfme0LZvK67NQoU+/aewD3v+SC+/hVVeQfgSxgzejTUsMcgbj79bhy/7U5854nPI6sZdawwe0g4jgfP8Xo7xePD2Lv3OEZGpsGLPDLry7hy5bXe/mAVbmqj0LPfzOtnjQI6C9Nn92Pcf5jjer1lvV7apv6Zfcf6Qr1e1TxbpiRihogSvd529wToimYoFMPk5CGMj+9HIBBCtaoKX/Pzb6FWK4OFO5sFLmObG7/rNk0bMzOn8fBHP44vPfrHWFq63L9O0gNmL7gsB3Hy5P04evI2/PA7X0TWEK1jrhM73+wxU0OkeSSTY5icPIRUchwczyOTWcLc3Dk1x4bRo2v3/K0wvXOsLwiCqPUTocdQZfbAm/tFp9PSPZ/tTm8SNaaEMSG8p0+YoghsFbSe6Ca1T4TDcYyN7cfo6D51LXs5j4WFC1hcvIB6vaorae12SzOgestyDgAHDtyC+z/wITz++U9jaemybhTyinmMEEUJe/eewN69N+HFF7+rL5WwP793zXn3/VS98yMjezGmreGvVktYXr6CxcWLKHlIxmn0Upu/Z+3A+p9xvGD3xBs86jzrB6aIG1aOvowLbMzo5ikwLiXr277Npn5W3/Oa0SkWG8LY2Azi8SHwnIB8YQMLC+eRySyh1eqOVeZlH15IJkdx5syH8fTTX8LGxuLA/YFdU1FCuOWWh3H4+Gl875ufRy631lMfc98wKpSqMUA1qAqihKGhKUxPH0MiMYxms4mVlau4evV1bGwsWS7LYvVxGoOMDgL2vjFDmWDY3q4rZwg992c2QJgjejrtlr6OnI23rVYDjUa9G21kcmT0edeNco8BlgtHYQr75CFEInE0Gg0sLl7E1atn1eVrWt2tjLxORl9Ajcx53yd/CY/91/+MhYUL+rxH7BxIgScIokcYUz9zkEQZNx1/Fw4evhnPPfsNrK9f0383Wu7NYXF9YYbonewikSQmJw5hWPPQs/DJuatnkc2t9q+dt/PEsb/Z10aF2mZYM3ptzMdZ/cbxgm4Ft8oE31Mfm3oBgBIIY3hoCsMjexEOx6AoIWSzK1hYuID19WtoNhs9+9DaYedBMZ43M3MKdz3wfnzz8UexsjKr73vtNFn3X6errLH/ZTmI22//AA6fOInvf/OLmpDXr6x7K7/rwUrEhzG99zhGR/dBDsioV+tYXZ3DpUsvI59fV63+Tsq7FVYebtPvPcKyjcGIGYiM7WK5DZJD3cxCYwcdSJKCVGoCk5OHkU6PIxSJopDLYn7+TSwsnNd3glBP8fbc7DxQBw/eind/6CP48p9/GouLFwbqD8YyjX1CkhTccst7ceDICfz4B48hk1nSj7fyijlFCbBzeF5AIjGKPXuOIp2ehCTJqNXKWF2dw9Wrb6BQWO8Rft0E0R4MgrFlxEd/xRyjg2wNTXa/2dSpgw5kOYhkcgwTEweQSIwiGIyiWNzAwrULWFi8iLq2Nlg9xX78tcN4vwcP3op73/sInvjLz2Bx6ZJhu0X/YwSDRcIcPHgrxsb24xe/+AEqxt1KfGI0nClKEKOj+zA+th+hcBydTgflcg7z829idXVONxbofdMQYt5XruE3o9e+3Wmrhkb0zgU984KJPoXbZu5xKsN8jFoMj5CWLyCVmlCXAkgystlVLC5eQDa7glarZdkfBiGZHMUdd3wQz/z0caxvLOjKqF8Fvvu3qugqSgh33PEIZg4fw998+4vIZpf75ivv5av1EUUZo6P7dIUePIdSIY+lpcuYm3tDDzX3U2/XyC+Hud2iQOcy3OYy8+/a+CBqOUXGxw9gdHQfIrE4quUSFhcvYW7uHEqlrKkYe0Nef5V786Qwg+/jn/sM5uffHGh8ILYfUuAJgjAoC71KtywpOH3zezC97xheeP47WF296liO+Xzz9z0Was3CLwgiEokRjIxMIxJJ6eHvTLFfW5tHLreGRr3ap1CZLs4u3P3s4Am3Utj6Ppu96xaTMhO8eF5EKBRFKjWBofQEQuE4REFCq91EuVzAxsYCVlfnUCrlesINrfCiqJt/4zgeR47cidN33IPvfv0vsbBwvscTM6gwxuB5NUP4Pfd8HPsOHcIPv/sVrK3N95RvdZ5RkbPyDrPrMc+VJMlIpycxPn4AkUhC7w+VShHr69ewvDyLXG5V396OKWNW17OoTO+zNQtm5uetVk7/bE6mZKUwG40DSiCMVGpcD3OVZXWP81qtjI2NRc17tgy23t+LAmb2utu1LcdxOH78PtzxwP148ouP4urVsz3r+gdR4K36oCIHcOeZD2F65hB++uMn9XBuI+Z6Oyndxr6uCo5tKHIQQ8NTGBmeRjAUgyTKAMehUilgfX0Ba2vzKBQ2utnZDX3C8hkZ7snsKffaFr7OM/SJQDCCRGJE9aTGhiFKagK+Wq2MbGYZC4sXkM+v62OjeonesZS97+Y+oPYjwbZteV7ATTfdg1vuvhfffOwvdOG8W/ZgCrxxHBJFCUeOnEE6NY7Xz/4U5XLe1pjbX6azcqcrEZ0OAsEIRkf3IZWa0JfJtFotlEpZbKwvYCOzpO/mwLztfeVZeLzNa8yBfqVfq6y7MmcqVy+L60a6RSJJpJJjiCdGoCghsKivarWE1dWrap6IelXPDTIodm07MjKNUycfxPP/7RtYXZ3rmZ/99Ae+Z1lLd+5SlBDuuedjmJrZj6e+/xVsbFhH8xnraTeXqMd3xw+mWEYiCYyN7cfQ0BRkSdHfqVxuFSsrs9jYWNT6IUuCZ50jxPjZDttxH71jse5Jt5hfLOdBrR0EUVITwo5MY2hoCuFQHB20Ua/X1G1bFy/ouUPYkgOnOjrdg9WcceTIGdz90MP45pf+AldmX9Pb2K1diOsPKfAEQfRMvgw2NMiygptvfggHDp/Cyy/+CNeunde3/jFb/r16AuwUUj1pUKcNSVIQjw8hnZ5ELDbUs6692aijWlMTvrDt2Gq1ck/oKmcSZM0exN71d5yuLHTr0p3g1HWzakK9SETdzkjdSi2gH99ut1Eu5bCRWcLGxiJKpVyPEO7UPlZ1chN6OYMwEArFcMcdjyASi+NHP/hijyDWbVd/wrmdwCfLCu6//5cwc+wIfvL9r+PatfO68mDEj0feeDyrZzeMXf2sKGpW5ZHhabU/yIpex0a9hlI5p+6dnl1BqZzX+kN32YDx+ZufPet3VuGRRsOHMcRTEmUEghFEoykkEiOIxYYQDEYg8KIu3FdrJWxsLGJ56TKy2j7sbMs0qzb30j5ucJya8O6eez6O9EQa3/7a53Dt2lt9Hhm/4ZAsx4W5rwJqn7j7ro9i5sgxPP+T72L+2lu25XuN2uh9F3v7FusTgUAY6dQ4hoanEIkk9eUSbIlDuZzTt2MrlXJ9a8/ZPbF28eIdNPYXsyAvSwqUQBixaAqx+DCi0SQCShiClnSu3W6jWi0hm13CyspVZLMrurfT2Pf8YB5TrIR3dVeJJM6c+TDiQ3F8/1tfwMLCxb729auw2bWVIAi46aZ7kUqN4803n0ehsK63Wbee9oZJI26GYPY9i5QKhWJIJceQSI4iFIpBEFjbq3lKKpWiug2bltm9Xq/ouQMA9Croeh16jWs8z6vvObqKubEN2bIuRQ4iFI4hEknquygYl/A0mw0UixlkMovI59dRr1VcFXWr98/cplZtZD6O4zjMzJzG6OhevPKLH2F9Y6HvGQ2iwFs9U0UJ4v77fwl7Dszgpz/8BhYXLzm+33Z1tjqOzT3dcY0ZsnjE48MYGppCKjWu9QW1zzabDVS0hIHZ7CqKxYy27rzZYzywWlpjrK/Tc+oLqe+09bwM4XAcifgIYvFhxKIpyEoAHHh00Eaz2UQut4rV1Tmsrl7V92E3LgHrbxv38Hgrg5/xPkOhGO6880MYn5nAd772eczNnesx5rB7IHYOpMATBGGpwBvhOA4HD96KO+5+HxbnZnHu3M9QKuX0ra+8hHBa4dUzw2CCjyAI2jZC6rZzTJlmArxatiGpmubdDAVjCIRDfUK7KAngBQGNWgMrS/P6JC4Igr5+je2zzvZeNW7pYzfRW7Wj+b69Yi5fECQEAmEcOnQbjpw8jfOvv4aXXvo+SqVc37mDeFPsnisTjk6ffg/u+8AjOP/yObzyyg9RKuXRajVs783Ky+H2Wb1va8GDeewBQJLUNeTx+DBisSGEQ+oyBZY0zSzYdhMhqkJ4y7D7QLvdgiRJkBTVi1MtV/R1zcbM1K1WA5VKEYXCOnK5NRQK63ryIdYf3BQr9r1Te9h5rPtDVtWM/UeO3InTd5/BxVffwk9+8hXLnQMGCYc0e9jM/ZHnedx00724876HMfvWeZw9+wxKpZyn3AtOfcHKy2z3rhkVEEmUEQrHEYuldeOKLAcg8GqSO7ZuXN/+T1DXv7L17K1WS09QxnHqWuhAMAI5oEUI1RpoNKpotdREgmyrxGq1pGWRXkOhsKHtEtCNhDH3CVa+V7yOs0yJDIViOHz4dhy/4zZcfOUcnv3Z11AsWofbblaBN48Xe/YcxczMKX39ejfJnt/oD+u1017mDF25h+rdVLOSJxCJJBAMRrUtzaSesVkdIyRta9M4AmFF352CKeBsW8DcRgaF/AbqjRra2i4QTElsNuv6VpGlUk7d7lPbFs38DP2ElvsNQ2djNov8CoVimJg4hFq1hMtXXkW1WupT/P1GbbnJEIIg4uabH8Jt996P86++jjfeeFaPkGB1HOTeuvdorbAax06m3AuCgGAwilgsjXhsGJFoUt0OVZTVZ68ZYXlD0kJVuW/qiQc7nY7uNed4Xs/BI0lqX+LFrkGj3Wyh0WjoiXCLxRzyuVVkcysoFrOGRK7e5gwvvzvNN0YjUzAYwaFDt+OWe+/G7BtX8PTTX0I2u2JqW//9gdh+SIEnCMJ18gW6VtpbbnkYh06cxJU338Jbb72ASiWvJfRq2gpa7Hwn/A5FThM9m3CY8sBxPEZH9+K+d38c+0/NdEPZ+N7tweqVOv7q03+ExcVLejlW3lIvQrRTyPug98gs+JFIEvv334z9R49g4co8XnjhW1hfX3Bsi0ETVBnLMBOLpfGud30Sh289hrPPv4Jz536GcimPWr3i+Xp2ofV2CpxXbKM7NAE6FIoiFIpDFLVs49r9qdsV1XXDTb1eRbVa0o+x6g9uWHmbvS4tsPrcLVcNUQ2FYjhw4BbcdPvNWJtfw09+/FhPHza3wyDCmNnDZgfbQ3rm2EG8+YvXcOHCz1GtFFGtlSxDY53CV72G3Tthjhroja7oRt1IkoJgIALFEI6tyAEogTDa7RYKBTXTfq1W6Vlny5Qiq2sMEp20Gdh7K8sBhMMJHDhwCw6fOoG1+VU888zXsLx8Ra+LuV6bNfJ169DbDjzPY3h4GqnkGDieRza7jGIxq28v6qTM242XxmvYRc4MCmsHUZSwb99J3PvQBxFJRtBpd8Dx2nXbBkORLOHJL/wFZmdft33mW/HsvURlma+rGiLU5HyyHMDo6D6Ew3EUCxnMzZ/rM+QYzwX8RemYI3Ss6g+o6+3vvfeTmDw0hbMvvISLF19GtVpEvVbRk74Nipdxwm35jvl/jlOXhbBdK5jBh21/1+l09J0G1J1oqqjVK/ocwiK2vBr5twPjPMPGh1Aojv0zp3D8ztuQW83hxz94DAsL53vu3WxUIQ/8zoIUeIIgXCdfBvM+hMMxnDxxP46cvBUby+u4dOllZLPL+jYpVp4yszCzWYu7uVzz30bS6Uk8/MgvAwBefv4n2MgsGhKztPRj7rzvYYRiIfzlZ/4DyuWc7mkxC4pW97BdqBOuGr4fiw1h//7TGJ4Yw6U3z+IXv/gh8vm1HoXbLJyzMgbxpri1LesPsWgKt9/xCE6cuRXLV5Zx7uzzyGSWUSkXUK2VbJ+vlZfZdq2yT+XdXG9j+YnEKO5510dQKuTxyitPIZtdRqvV1DMRN5sNDA1N4vY7349QNISvP/4ZNasv17+22nxdY9s4C7TuCd7s2kaSFIRDMcTiwzh06DZMH92LK69fws+eexKrq3P69Z3aZlAF3gljGGsslsatt74Ph0+dwMrVFZw//wJyuTXd4Gf0+noN+TT/7aYk2yl/VmOP1+gYY18y7mbg5Vyrelg9J7coAysvnSwHEQpFEY8N48DBWzF5YBKX37iAF1/8DtbWrukKhFUdBzXysftwqjcbIwB1S8mRkX0YGppAvVZFLr+q7UmtKkFuCv1WYde+xu/GxmbwwMMfx9WLF/Haa08jl1vr9lUtXD+ZHMOZMx/CniPT+PJ//WPk82uWRg3jdZ2uafWb37mRbYUKQFuGNoxQKIpms6GvB2eGtK5iZr00ZtA18E73A6jjQyo1hjvv/BD2Hd2PhUsLuHD+ReQLGz3jg9f797OG3Suq8V6wjZCxWvpjtwzMj6ywGWOP05zSMz4cuAV7b5rB/FvzeO65J3VjrzGRrtVYSgr8zoIUeIIg+pLYOVnRu5ZZNTPqvn0ncfr0A5AUGdfmLmJlZRblcgHFYgb1esVSONgKTwnDaqJhAjXbsu3kyQex79BhPPGVT/eFhxmJhBP4tX/0f+Diq2/hueeeRKfT0YSJ/jXeVtfeSlRPewKhUBzp9CSmpg+B4zi8/uozuHjxJW1tXKdHEHOq02bDIe28SUbrvLr94F249cyDUEIKLr/xFhYWLqBUyiGfX1P3c9bL61fQvSi1g2AsX5YDuO229+PILSfwxc/+Yd/uCuyeACCdmsBv/LPfxas/eRnPPvs1tNvtnn10twq7UHmjsUAUZUSjaUSjSaTTk9h38CgC4QBee+E5vPraj1Eq5WHVH4z3Znxu26XAd5XBrtJ2+PCdOH3bfeA4DlcvvYW11XkUihmUSlm9T2xVezp5g3vrqrYtixyyU+DN/d5sxGGCvt09mMuzGwvtFGEnI5ooyohGkohEU0inJzA9cwRKUMFrLz2Hs2d/inK5ALs+YXX9zUTpmO/VPEaYtzYTRUnLb5IGzwuo1crakgu2X3VD92JeL3ieh6KEEAiEcfLkAwiFYvjmNz+NRqNm+7wkUcbf/fu/jfx6Hs8887iW56DYs//6dsDmOVGUIUnq0jEOHIKhKCKRJDiOQ71exfLylZ5lNGof7fcGWxmyNrMG3g6jEg90EAhEcIR2h3MAACAASURBVPz4vTh1291otdq4cv4cVlfnUCxmUSxmDOOtt7bcTLTOVnGjr88QBAmxaAqRaAqp1Dj2HTiKSDKK1198Aa++8hTyWr+wM+6Zxz4Kod9ZkAJPEIQn4dyIUSBjn2OxNI4dvQsTk4dQrZawvn4NhYK6XrxQ2ECjUd1WgcZYF0Ddb3xq6gjC4QSO3XYaLz/zLH72sydsreFs0r333k/g/o+8Dy/+zfNotZq4eOHnWFq+DMBdiNhsyCTbKiYWTSEcSSCVGkcskcLy4izeOPusnmjIWBevQvRWrme0UuLNAno6PYETJ+7H9IGDKOdKWF6+inx+TU8qxiI11HPsQ8Wt1r8PkpAvFktjauoIotEUTt17O15++nn88IdfcOgP6t+PPPKbuPej9+PHj/0QzWYdly6+jOWV2b76ea2L3dp2q3Bx1h8SiRFEIkl1W6nRNNYWl/HKK0/h2rW39HY3C+Zu3ufNrIF3v0+jkM7O55FOTeD4ifswsWcvCtmCnj2erRev1yu+6rQZOI7X18dLkoJWq4m1tXkUixmDkbKL0csXiSQwPX2Tdo9N5PPrenh693hv3nW/YwUz5CQSI4iE4xgankJyZAgr1xbw+mtP69vCsbLVe7WOhDL/ttllNr2/20U3dEzvt6qIqjkshhBQwgDHodmso1ar6MugOp026vWqnndls1i1+ejoPuzdewLBYATj+6bw4jM/xKuv/tjSgGK8/9On34MHPvRBnP/5W+A4DufPv4jLl1/pa4dBMF5TFCU91wvQNVCz5HjNZgP53BqyuRU0GnWL59OBWXl3em5b7YFn5TPMuSHGx/fjxIn7MTw+jtx6VpMhNpDLrSKfX9eVeSfMUVw7RZneKtzuhyntydQ4wuEEhoemkBobQnY1g9de/TFmr541vFPW40P3WuSB38mQAk8QRN/k60WoNHrZjEKBIIgYHd2LvXtPIB4fRq1WRqVSRLVSRC6/ilxuVU+as5WeeGO9eF7A+9//D3DzQzejXqmj3e7g5R+9iJWVq6qwAA4whcCxJD/p9ARuf98dKOVLiKaiuPLaFXzxz/+gJ/P+VqIoISQSI0jER6AEwgiFoggEwiiVcrhy5VUt6z9by99vOHHCOEFvpQJvLNtYD6OQyKIgBEHE5ORhHDx4C+LxIVSrZT3R1/r6IjKZRT3Trp2yPojS3pPEkOPxtz76D3HPx+5BrVJDu9nG8994DvPzF3rOEwSh51ye57Hv0FHc/v7bUMqVEU1FcfbZs/jcp/+tvl5zM0KNlaFC3Q98FOn0JEKhGEKhGMLRGKrlEi5efBmXLv3CFMlgLXBZ/c6OGUQY82vk671+V2njOA6SKGNi8hBmZk4hEkmiWi2hUimgXM4jk1lCNruiR75sNcZ6fOCDv4EDNx/A6twqcms5LC1cQS63qv9u9Eyxf61mA6Ik4/ipuxEIKTh460HMnZvD5//Lv/P0jg2iwLMxIpkcQygUQzAYRTgcR7mcx+XLr2B29nXU61VLw4kf48Cga57djIlWiqR1CLJ6PEsyFokkIcsBPZS53WqibVie1Wo10WjU0GjU0Gw2BjKcsuN5XsDH/vZvITWeQr1SQ6cDXHjtLHK5NYPSbtgtAJweqh6LDeGmMydRzBSRnkgju5zB5//L7+vJyfzADBqSpCAYjOrKOjptcLwAUZT0d7HZrBsM5PWe++mPfLNX3q3m4e2YM8zlA/1GPkAdA6enj2Fm5pTWzwuoVNSovo2NRWSzK31t65ZTxC7PiFqXzc031wOnPCqSpCCRGEEqNY5IOIFgKIZoPIFapYpLl36BS5deRqVS7CnPyrhmdD5s1sBHbD+i+yEEQbxTcRKIugM9AHTQ6UAXqhYWLmJh4SIUJYSRkWmMj+9HIjmKRHIUnU4HjUYV2ewK1tcXUCpl9TBWN6+hHeaJhwOH4/edQKvZRq1aR2I4gXd9/AEtq6zxHtT7EAQe4LsCe6PWQH49DwCYOjwFRQmhVMr2CHJeFHmryZHnBYTDalh8PD4MWVLACyJ4nke5XMDly69gcfESarVyX3l+BfPNGEjcPIhWv3X7Q3cbnWazgatXz+Lq1bNQlBAmJg5iz55jGB7eg3R6Eu12G/V6Bevr19TQyUIGrXbTUsB3CrHvT/DWVdR4QcTtH7gd6HRQK1URH07ggb/7IATxIf2eAEAUBXA8h1az3SfIlHKqQefwbYehBMKoVAqudbPLrG78Ts0EHMXw8B4MpScRCEYgaP2hWi1h9sprmJs/p+8u0B8G3S+YWz2n7Vzu4QTrE8YIgXqjhtnZ1zE7+7rq7Rw/iImJAxgamkI6NYEOOqjVylhfX9DHCCY8bpVwzXE8Tt1/CgDwnWe/gmIxg3c/8gmMTI9AkHqzhBsNZ+VcGeeeP4tvPvkZJBIjOHb3v8S+kzMIKGGUK3lP7cGweyYse3w6PalugRWMApyakKxSKWJ29jVcu3Ye5XK+p1wv4fpG7L73ilnQt16qYOX97/YHq3Pb7TZKpZyeZI3jWOKtmLrnOy+A4wXwvAhJCgCdNtCzpruFRqOuKfZ1Xbm3qxOgGhonDoyjXlU91yN7RzBxcKLvHOO5vNC9/1azDUEQwAs8YsPqlnFWCjy7T1VJDyAQCGtedannd5YlvNPp6Lsh1GoVZDJLqFQKaLVaPfUxP3835b3/GHtP7HbQPz619Zwz9XoFFy78HBcvvoRwKI6pqSMYnziA0dF9GB6eVtuiWsLq2jzW169p7wEb771t0emcy+TGKu9uCVw5jkMgEMHw0BSGhqcQCsXVvsepS1EWFs5j9tnXUShsWBoMrfqDU//ZDkcLsXlIgScIQsc8qZoFK6sQcaPSZp4sarUy5ubOYW7uXM+ezaFQHEPpSYyNzejrH9fWrmFjYxHFYqZnXaqXicNYr06ngw46qBYriCSi6LTaaNabqBQryK5m0Wq0DEJXq+dcQRQwPDUMOSjrCmi1VNXX8huvZ8ZKmGVlh0NqqCvbj7bTaaNRr6HRrCOfX8fa+jWsrc2jVivb3q+bp9WOrVDa+p+3c7bhbghmb3+p1cq4dOkXuHz5FQSDEYyO7sPIyD5EInGMjx/E9J6bIIgSSqUslpYuY3V1TjfwqMKsfTi9lYLM6tDptFEr1yArElrNNurVOirFCoqZoqqYafVlW0W122102h0EwgGkx1PgBB6NuhqBUSlWtDDetuk67b6/7ZT4YCCCoeEpjI7OIBpNAVC9aY1GFYXCBlZX57C8dBnFUtZDf3AyptjnLbieqNfjdCHd2EcqlSIuXnwJly69jFAohpGRaQwNTSEYjGJ8fD+mp28Cz/MoFrNYXZ3TBXbzrhdeFXv9mA6PRq2OQCQIWVYQDsfQarawOreqHaf1hVZbzZjebKPVbEEJKeAFAePjBxCJJCEpEoqZIpot/x5g47GhYAxDw1MYGZ5GJJoEADTqNdQbNeTza2qfWJlFuZzvG2e692a/Bt3u+ps18JmVQK+GTWb4ZUq83XGMer1qyJfQzQ6uKCEoSlDfQpSdo2YOl8GB07dtY9nAWRnNZgOtVkPfUaBRbyIUC6sGvHYb5XwVG0sZlPNloNMx3CP0TPTx4TiSY0lEkxEoIQWdTge1cg2hUBSKHICkRRAY14h3OuqY00HHsE2pYa13p41avYpqtYhKpWi5FaOTwcb4jOyU995jev++XuND7/V4few1zv3FUhbn3nwOb51/AeFwHKOj+7TopCj27DmKAwduAQAUChtYWb6CNW18sJsPzHQNvb3/b1f0j1uyUrvjA4EwhoamMDKyF4n4iLrtrRZ9UixmsLY2j6WlyygU1vuWs/W+m879ob9u/YYrYmdAIfQEQfgOf7MSVP0omJIkIxpNIREfQTiS0BMHhbT9u2u1MrLZZaytXUMut4pKpdA3sTsJnxzH4cyZD+OBj79XFbqDMqqlKlbnVpFdyaFZb+h7f/Oa512UJSRG4hjZOwpeUPd5FkQBz3zjR3jmma96bhtFCSGVHEN6aBKp1AQUJahvPVWpFLRkTXlks8vI59d0wY3V23xP3c/+Jl4z2xEOaacgdn+3TphkRpYDSCRGkE5N6HvyqiG0cSghBZViFSsrs7oCV6tV9H28e6/Vi9EL/+ADv4L3/dr70ag3IckiKkW1P9SrqpesUW+qSaFkEe1WGxwHxIfiSI6lIIg8KsUqlKCCH/7VD/D97/+55X2Yhb9OpwNFCSGZHMXw8B6MDO9FNBlDo95EuVhAuVxAuZxDqZTHxsYCMpllRyMOK1P7y7Jt+0Nnrb2g25HEzomuF9u+Hxu/Yxm0U6lxhMOqR1MND41CUmRUyyWsrS1gdfUqstllvU94fT94XsDdd30U7/3UI1hf3ECj1oAoi8guZ1EulMFxHMq5EhqNhrZjRUsN7T22B4FIEM16E6IsYmgijacfexrf+96jFh7O/v6gepODSKXGkU5PYGRkGqFIFI1aA+VyXltKUEC5lEMmu4xsdsW1T7CyrdrRD4NmoXfz/NvVy6hQmM9zilRwiw7ieV7fclMUZW0rNdWrrS6f6h6j7t2tKv8H9t+MUDiOVrMBWVFQr9WwsHgBCwsXepPSaco3x/HYs+cokslRBIMR1GtVtDstVKtlzM+/qXn+W/qOJ916ttFutdDQjHbq2v6G57b3gpuy5qWNt2MNvBvGMctpbgkEwkgmR5FIjCISSSAQiCAcjiMUikCQRJQLRayszmJl5SpyuVV9SY5T9njr+gy+G4rxHKtdVuzC+iUpoC+jGhmZRiKdQrPRQqVURqmU1eeNjY0lZDKLqFSKjk4FpznDyWhjbnsKod9ZkAJPEIRJEXL3Ijkd41eQ5Dh1TWw4kkA4nNBDCsPhOKLRlOrlkiTUajUUChvIZpeQySyjUNhArVbWFXvj9TiORzgcx/j4fgSUMHhBxNT0IRy984hm5e/oHhRe4NFpdyAF1H1dX/zeC5ibOwcWhrmyPItKtQiWcZrdu6KEEI2mkEyOIpkcRzw+BCUYQL1aR7mUQ76woWfiZxmWi8VsjzffiwdsUMF8M5OvVYZpL9ew+t1KQHcjEAgjGk0hGklCCYTVz5Ek4okRRBNRiLKESrGCzLq6DCOTWUIut6orOkxYN14zGk1hevo4wuEYBF7E3qMHcfTMUV3gZyGpgiCg3W5D1MKon33iWcxeelMP9V9euoyctl0U6xNMKYtEkrqyPjQygVA0iFarjVK2iFxuTdtGraj1hyzy+XXdOOUFL8YcL8qOX+Ec2HoBHfDeH3iehywHtfFAM/gpYUSiScTjQwhHYxAlAeVCBZnMMjKZRWxsLFnuhKFeV+0b0WgKe/YcRSSShCCI2HNgBoduO6yPC816Q19O0W62ICkygrEgXvrez3H5whvodDqoVktYXZlFVls73w317/aJVGoMqdQE0ukxhOJhNOsNFHNF5HKrKBYzhj6R0z4XesY1qzHCzVBjdZwbm93322zQMz9rL4Zfu2O8KvdOmJVDpsALggCBF8FpeVCMymO9XkWplLNVkEKhqN4W6jW684S6NV4L7XarZ+7Ybry8Y17qsp1r4J2w689WfaDTUXMGBINRRKMphMMJKEoQoVBMdRIkRhBOhAEApWxJX5aTzSyhYMhyb1Sm+yNbnBV8p6R5ZkOXcc6QpADC4RgSiVEMpScxPDKFSDIKjgOKuRLy2Q3k8+solbKoVksolbIo5DdQrhR68uJshcHXy1x+o5cWEL2QAk8QxJZ44M2/M9yEBKsJSBBEKEoQihKCLKvhkYoc0AT2YcRiaQTDEcgBGZ12G9VSDcVCBsVSFpVKEZVKAdFoCpVKEY1GVdtOCTh06Daced99iKVjffdS2CjgqSe+jYWFC5AkRVUWwgnEYkMolrJahIAaJsnxqoe+XCygkFcn2YKmLDSbddTrVVSrJdRq5YE8K26eK3Pdncphv29nFnonIcBO8PWDKEoIBMIIBCJan1AQUMKIxYdVL0w6jVAsBEkW0Wq1UVgvIJ9Vd0AoFrOoVApIJEZRq5XRajVQLGbAcTxuuule3PuxdyExnOiL8NhYXMcPvvQdzM6ehSwpiMXSCIXjiMWGUCisIxSMIZqMIRQLQ5QE1UNSKCO3kUEms6wp6wU0GjXU61VUKgVUK0XUB0hs1duOg0VimI1GN0qBN9YFNsnM7M7p9dDLWuRORA9VDgTCiMXSSCRGEUukEI6FIUgCmvUmStki8nm1TzCBeHh4j57pXF1n38bRo3fizg/cjcRIvE8Zza3m8aPHvou5uXOQJAWx2BBCoShCwRiKpSxCoSii8QRCsSB4QUCr0UQpX0Y+m0E2u4J8nvWJOur1ijpGVEt9fcKrYc+rkuy1HL+JItk1vZRt9b/5WHN55u+cIkoGUeS792KtGBp/t/vNCbvnuFVKvBeDyGbYLgV+uwy/xnJlSUEgGNEcAkHdKZBIjKjjQyqOYDQIQeBR13Le5DPryBc2kMutoFzOI5EYgaKE9GSJpVIOtVpFn49kOQAWWVSrldFqNgCOQzw+rEcFCIKIVkvdqSIUiiI1NIZYKgolqC63KOXLyK/n1PEht4ZCMaNHZajJPYt9S/js+pX9Mb1zhnnssDP8GctR75M88DsJUuAJgvC8h6tXvCqgfuB5HqIgQZRkPSySrS2U5SCCwQgi4QRC4RiCwQiCgShkRYGkyBBlNd2HHJAQTUXBcRyajZaeNIcXeDQbTeRWc6hX62g1WqjVyvokWixkUCrnUC4XUK+robrtdgutVlNNktSoo9lqbMmexYO03XZ5U5w8X16xUjQYfhUN4zmCIEIUZciSAkGUIAoSeEGAJMpQAmFEo0lEIiktrDKGUDQIOSBDCal9AgAC4QDiwzGIsqRfp91Sw1vrlTpyazlUSzXUyjXUKjVUS1U9g77RYNRoVNFut9X1tI06Gs26njxrM21n136DCLRmRed6h9Bb1c2In/bp95B1DB5VUd9qSxQkcDwPSZIRUMJ6lA+L7AiGQ5AUCbIiQQ4q4EUeSlBBNBnR+wgT0NttNY9Cbi2HWrmGRq2BaqmKWqWKaqWIYimLcjmHYjGHaqWAeqOmrp1vN9Fs1FHXEqpZrWfeTLu5td92eeDtFHgvirixXnbjg5PH3a58p3Pd2s2qDKcxy0oJ8nsN83l2xg7z/ZrvzfiduRxzXf28Z9fbA+/0vDYzfgLoW1YhSTJ4XtTzKKge+yQikSTC4QSC4ZA6ZwQVCJIAJahAkkVwPAdBFCEHZfB8d91+q9FCo95Q/6/VUa/UUSlW9XmjWMygUMigWMzoBsRms4F2u4lms2GbcHHQ+zV8AyflHXCPfGHHkgd+Z0EKPEEQ2yKcD6p0GI+3szKbJxwmvPMcr61v7IZBsnBwDhw66BX6ndbEsXWLasib+nfPOkifePGqsXqZz9kKA8hmw2P94MUTb2f13ypjD88LEAQJHNfd0o7nBX0NrBWWz6ijrndVBTW2nrWt9xEWHusHr31BvfzmcyBYteuNUODtlDHGVo0RVrA+wf6xa3XHCm+RAGDCLDp6G7ZaLXTaLXTQHSPMBgZWX7f78PIObOUYYTx3s/vA2435VmO2mwK/mfP9eMqdFBvjMV4MJ3aKsldDgp0i7+VY7Uq2/dhNid/sGLHVMgTDvFvBdmCUH9iOMEa5QTvI4/aqXbkBQM/yCWb4Z/OIevzm5jyvc62dMd6PIYg88DsLUuAJghho8vVq1d+MEu92fXOZrD5OwqBVvcznb1Yo9qNY2NVpq4WVnSGMbX1khrFsJy+k+brWQnU3bNN83HY+Gzu2s72uhwLv5NUxf8dwG0t4nu9ZH+6lDlblermmkzLKcVxfRv0b0S+20hA2iAfeWAcnA82gHmqr8s3vpB+F3apcq3P9GgGcxhhrZdtbGawOXsvzc09ufWS3zBl2c/ag87DXerkpwZsZD8zji1dZy248cns3rcoy/mY0ShA7A48mZ4IgiF7YwO42STkJFE6Tq9tvTIi2Osf8vVMdzeWYvWF+62b+3asAsVmFfyfhxVvFjrNra6c29NOP7OpnJXxZKSV257uVv1nMApYXYdCtv96o/uLn+k7P3UppdsOu7bwa9KzGErOR0OvzscPPczGOcXZKpnnM9aqEDgq7hl0Zfp+XVfnmcqwNcO5lmevkRQF2e752yrtT3eyOt6uD2zl29THXfbNGj+uNl3fLLItYtf0g/dupbcwyg9Xvm5mneucl7xEIdte0et6sbb2MfdfLOEl4hxR4giA8sVVKi5UAZoWTV8xN+HZT/t2URSdF06puTuX5nXT9KAM3elIdVHC2+97J4+lUht928CL42wn2Xq5lJTBvlaDspuA61ed69xevAqjb+8a+czrHjFejj1Xd7MYDs8HJ6nura1ld1+s4aDxv0PfNS1tttn96UVqd+oFXLyO7H699ye76ZqOAk4Jj9dmpb9v1La8GYWNbmOto/s2urk7l2xmsdwOsr1q9b3aGHuP/ftjseGnuE1ZGI7t6+n0nvc5XVt87Gc2InQsp8ARBeMJOaTULK37OtcIsJJu/d1Ku3L6zu57xbyeLtN25m7G2my3tVucNMpl6VQy8luW1fK8eJ/M5duU5CaV2ypR1Gf19ya7OmxGm7Iw9Tt4hL+ezvwcVvrdaIBvEYAfYK8puiqbdO2L1jLwYfYxleVGsrOrqZhQwn2e85qBeNT8GPq9sRXlWY6fZCOc0vlqVZf7O6rP5WXh9r93eI6vPVnOT0z15vV8nvIyxXg0ibv11JyttXow2W/1euMkpTr+Z+4vxWdgZi6z+92KI8NIfnOpsN2f6NSIQ1xdS4AmCGAg3gdrq+EGFEfPxXhQ9tzq5WaCdznUrw0qAd2oXO4XNS328lrsZnNrbygBihVeh0+54JyHDrCiY66ee6z/8cJBj7NrFXD+3sq3eF6+GJad6bRV+rmulRGzGwGT3vP2WZ6ekmX/bjNDsJKw7le8VP0K53zI2g5Vy6NV4Yfe7lUJkdS077Iw65vP7xw53z6VV/zPW0auB26pvO80hVoqWU7va1cl8vRuluLnNl+ZjvY7Hfq9vda5RKbdqd+NvxjLsxhIrZd5uXLHqf16eu582Mo9/Wz1nEFsLKfAEQWwaOwHE7VjzJOEkSLHPTt4Or3U1W8OtJt1BhGynydSuvEEFPLvP1xuvQqrduW7YCexWBiSnvjQodsYLN8OOuV5Goc+qXD9GHPPxOx0nA4sbdoKtkxDtNgY51dPq/TL+G5RBn7d57DP/ZnevXg1pbtf3g3FMtbqW+Z7tPnsZRweZA8z1czvHrR/Z9UG7cpzqxY6zM3w4YTfuObW31fE7Aatx3ep342e34wYdK63maLfnYpYnvBoZ7eYzo9HAqm5213erk9255nrslH5B9EMKPEEQA+MmtPi1ojtZl81le8HOIm38zU5YdPK8eL2eWWmzqouTscCLQLoTcBLY/XpIzB4OO0HIrt+YGUSJM/7tJPT6NeqYy7c6ZjN9e6fj9R3y8h7ZGbWcjF3G8vzUy6qv2fUTpz4xqJHGTej3w3b3Gy/jq/EdN372Ukcng41XI6j5XPMY48U4YDUuOY3zbnUyX9c8Dlqd62QUsvreTuH0UsZ24NbOTv3ejyHHqwHFfKxdv7JSdK36ITvOa5vaGSmNZXrtS3bnG8v2OzcTOwtS4AmCGBi3ycnLBGxVjtny62S5NmMlUDlZze2EAbcJ0wtWk68XAd9q0vXinbpeeDEsmIVjJ4+Im1Lr5O1wq4dfw4tV3/N7XbfjjP1gpxhhths7D5JXI51RmdnMO+DHq2Q0IpnHAyvjklMf91PXQfrEjVTEzFg9Iy9zhd8xwuqZOGHVf8zn2SnkdnOQ2dBoV67VfQyq/PsxfFjVe6coZk7t6fd8J4PuVr8L5v7Crmk3v7uNC+bjnOYjqzL9Pk/WJ3ZKPyAGgxR4giA2hZu3xOk3O+HFLBRtladzqxlUMLATNPwKsDcKv0ox4G54cBIorARWr3VwE6jM3hIvHg8vBgyr8p3q9k4TqOzaxeoYO/y8f34Uai99cTuwUwz8nuvnvOuBU93M77ZXj6PxNy/vjlt7ejnfSfl3U8z8GBMHMUpt9hgvHtntYjN914vhxEt5fu7drv+afxukTZ0MX1ZGTCeDh1PbvFMMx29nSIEnCGJTDOKBt/vNiwXbS3l2SpdbOU6Tsds1nRjknm6EArFVbMZrbcbJy+Q1osGtfLfvzUqFF0+rU7m74RluNU4GHS+eU6tzBhH0/Xj4jOe5HWOOqthMf2dlvl36iZVSbuWxtHqvzEqM13nDq4fSWBeraxvLsPJcen1GdgYJ87X8vgtuCqxfQ9CNYLN1czOObncdnDzaXrzpVpjfCyvF284I6mdOI3YvpMATBOGJzXq77LATQLZighlE0DLXw+nzoGX59SzuVGv5Vnr93BQXK0HbScnZrGK/1UIlu66V4vJOxK/is13XtxL23aIurKKD/HiO7crdrBKxW7BSyK3e7c2wFXOI+ZmbjTQMJwXO6ly36BM/ET5mrJRZN94OY5FdJIefc7cLNyOKkxHYj/HfS5TJbhonCGdIgScIwhNePMJevQJ+yt+M4cBK0PbCZhR/N2VgkAl0p066Xtr2RgiH7Ll76bN23ovN9GW/OHn0/XiqdyJbZSxx87wO0jZ2z9iPl8ysjHrxfrnVZae+74PiRRHZjn5vjogwKneb7Zd2USHbjZd+5Kf/7sQxZdA6+YnO2uy1NluOlznTaX71G+W22+cRoh9S4AmCuC4Mogj7EbbcQjH9Xtv896DlbDYKYDfgpOT6DQ11+s7vs7ALhfVTph8PiN15Vn3Zzms3SIjlTmar+7zX6AwrrIxpXtvRrzLn57lupbK623AyXAz6vLw8q83i95m51cmuDDdv/VbUbafxdpsnrZ6v05xk1x+8GPfc+pHV9YjdCSnwBEFsGVsRdmwlxPnx0F0PhcHv8X6Fr904wQ4aYWE+181w49VrZ3dNN6+r337kFoLtFgXip93e5zSCGAAAIABJREFUiUKYk1Js/t6L4W4rFBq3tvdqTBjUODRInXYCXpQLu3dpEAXWOJ84KbV244aTUdjN2OBUZ68GJ+MxTv3ZTbGzut/dqNh7wdwWfu5zq73xfsZr47y3mfpY9Zm367N+p0MKPEEQ24IfL6mb0uvVA28MkzSX4dVyvVkFml3fizJphR9BbCfh5nEc1NPpVI5ZCPYTDj/oc2bXNAr5VnU2HufmfXHzmLkpHLuVrRSY3Z618TnZPbvN1sfPePNONMYwrNrdSbn3GsXjhPGdNH5nVz+3ssz9yclYaP7bHInjpPxbGaecxjljXdzqtBPYjvqY28Hv3ONV3vBTH6v/rerrJrv4ifZwm4N3Wl8g/EEKPEEQ28JmhFKzgOSG+Vg378agnq+t8MZvht0i6G8mDNhJuLG6hpuQYifMuAk5Toq0V+OEV4XBTVgzC5a7pR+YGcSo5eYNdTP4ONXF7ly/BkOn76zOs7qX3fpMN4NblISb4uLVKGv87EcZcuofg5bjx7Bp1bfslDyrz+y7rTCAbBfXq9/bGYncnAfs3M1c1+877uQAcHuWTsbgQcdKYmdCCjxBEFuKX8u0cULyq3Qz3LxZfhUHs4A0iFKwVZPjThS63NiMV9PsvXbydLtd3+wFH8R74fY8vXq5vApgb2fM9+7nfTc/Q6d2tzrXymvqdk2n752MjF766VZGH2xledcLp+foVem0Mtw6HWOl/Fp5rK2u7ad9ncYKt3HIbrwznus0RtrVd7f0DzvDqVv9nSIcNoubUc54HS9GPK+GIS/Xc/qeFPS3N6TAEwSxpXhVjs3Ku513wcr76qdsL3Uy19/OC+pFuLASnLx69HaLkDUITgK5m8JvFIrMx9opMHbXGVSBthLMnDw1ZmXTXE8/QuHbDS9GLitl324sMPcJP14qczmbEaKdxgin626G3e7Bd3ofnAwy5mPY31Z9hL2LVn3DaQyxuqbbOOamWHvp8+xvq7axM4JZzafm+9sN2LWZ21jr5F22mzMGqZcdmzUYWD1HO1nEL+9ko/HbGVLgCYLYcpwEZzcB3Emx8Sts2QlsW113s4Blvh/zPTkpsU7C6m7EfF92gpjVfZsFWLu28OrtMCvVbmV5EbzNApfdta3uwa9gtdv7ghknZZdh9+yNBhUn5d6pTOPvTv3CjxDtxfi3VYL5VnoZbzR+DCdu46dTe9r1FS9GRKt+4mRM8GPMdVL2reYxdg/GengxYu4W3PqCVwO93fPyMvZ4nVecPjsZjNyuYXcPXuvoZuQgdjekwBMEseV4nWjchBnzd26Trxcvr5uQb/e7lRfVrc52vztd452CUfGy8y45eaHcBCjjNayUbDth2qti7yacOxmi7K65mwXuQbBTyq2+szNsOXlcjcc6CbBWRjZjWU51tsKrMcBcP7fy7Mp6u/QbJ2Oe+bPbHOHlOubvvJxrHj+8zAlO5ZrLczIIeL0/u/rsdpyM63afvSr6Vvg1/nspy22O82vodTLcWBmAiLcPXOft+JYTBEEQBEEQBEEQxNsM8sATBEEQBEEQBEEQxC6AFHiCIAiCIAiCIAiC2AWQAk8QBEEQBEEQBEEQuwBS4AmCIAiCIAiCIAhiF0AKPEEQBEEQBEEQBEHsAkiBJwiCIAiCIAiCIIhdACnwBEEQBEEQBEEQBLELIAWeIAiCIAiCIAiCIHYBpMATBEEQBEEQBEEQxC5AvNEVIAjixsNx3I2uArHNdDodz8dSf3j746c/ANQn3gnQGEEYof5AGPE7ZxDbC3ngCYIgCIIgCIIgCGIXQAo8QRAEQRAEQRAEQewCSIEnCIIgCIIgCIIgiF0AKfAEQRAEQRAEQRAEsQsgBZ4gCIIgCIIgCIIgdgGkwBMEQRAEQRAEQRDELoAUeIIgCIIgCIIgCILYBZACTxAEQRAEQRAEQRC7AFLgCYIgCIIgCIIgCGIXQAo8QRAEQRAEQRAEQewCSIEnCIIgCIIgCIIgiF0AKfAEQRAEQRAEQRAEsQsgBZ4gCIIgCIIgCIIgdgGkwBMEQRAEQRAEQRDELoAUeIIgCIIgCIIgCILYBZACTxAEQRAEQRAEQRC7AFLgCYLYJXDaP4KwgvoHQRAEQRBvf0iBJwhih8NheGgPfvlXfht/77//XYyN7QcpakQvHP7gC4/hE5/4p1DkoPoNx+PUqQdx883vAfUXgiAIgiDeLog3ugIEQRBmeF6AJMoAx2F0dB/+9Wf/CL/2ngcBAP/ft+7H//OPfwcXLrx4Q+tIXB8UOYgOOggoYVSqRTQatb5jRkamEYoG0Ww2tG843HvvJ/Ddv/k8grKMU6cexKuvPnV9K04QBEEQBLENkAJPEMSOIhyO48yZD+PWB+6CIPJ47ns/wf0nb8Ll1RXkK1Wc/enryGQWb3Q1ievE//Tb/zea9Sb+53/yq/jf/+G/wZNf/2OIooRms64fs7Iyi//hwx/QPycSo/jtP/wdKJIEALj3oQ+QAk8QBEEQxNsCUuAJgtgxzMycwkd/9R/g937nN5EMh3FldRVXXpvFRx/6JQDA6uoclpYu3eBaEtcPDr/727+OVCSC/3bpIs69+RxSqTGcOvVuvPDCt1AsZizPmhg/gMlkCi9duYJOp4OXn33mOtebIAiCIAhieyAFniCIHUEwGMWX/uaruG1mRv+ugw5ymQ3ynr6D+aNHH8M//vW/jd//F3+K8+dfwNGjd+E3/6/fwoEvHMOTX/4MVlZm+865dPkV/Kv/9f/Fq68+hXa7hdnZ129AzQmC2EkochCSHECjUUOtVr7R1SEIghgYUuAJgtgRjIxM46bJSf1zq93GuYVFvPjid25grYgbSwef/ff/DpIi4ctf/vcAgPn5N/H4Hz6Oh//ew8it5fDlv/79vrOq1SKeeOI/Xe/KEgSxQ5mYOIi77voIxvaPIbucwVe/8kcol/M3uloEQRADwXU6nc6NrgRBEDcWjrvxWboVJYR//SefxcPvvhOnp6fx1Lk38Cf/6lFLBY3wj5+hfif0BydEUcaBAzdD4EWcfYPC4wfB79S/0/sEsXneTmOEkURiFL/5v/0e/un/8qsYTyRQrtVw6vjduHjxpRtdtR3N27U/EINB6uLOgjzwBEHsCGq1Mv7NP/ktPPWuT+LIbTfhpaefw49+9IUbXS3iOiGKMk6ffjcmJg6h2azj29/+DDqdtuWxzWYdb775/HWuIUEQuwmO4xEIhPGe93wKv/r3/xbGEwntew6iKEHdXpKUEoIgdh/kgScIgqzn7wB2ujclkRjF//mZz+DBM6fRbLXx3tvfhbW1+etej3cK5IEnzOz0McIPgUAEd931ETzw8ffinnffhoeOH4fA8wCAJ1/6OX79fR+l8cWFt1N/IDYPqYs7C/LAEwRBEDecSqWA13/yGj71gXfj0soKBIGmJ4Ig/CMIIm655WH88//4z/HQ8eOQBKHn91a7g5MnH4AgCHjppe9jfX3hBtWUIAhiMEhCIgiCIG44tVoZf/XofwDHcVi6soxMZulGV4kgiF3I0NAUPvk/fgrvPXFC97obefDYMQz/6e9BEUX82ocvkgL//7N332FyleXfwL+nTN/Zvskm2dRN7wktoSZBehEUKSKiKCqCIj8RXhQRBVFEQEFBRAHBQhUklNAFAiRgQkjvbbMl26fPnPa8f5yZ2d00SDY7Zyb7/VzXXLCzszP3zDw559xPuR8iKjhM4ImIKC90du7EP/5yB3RDg6YlnQ6HiApQUVEZps4cv8fkHQBK/X4Mq6jALT9/ANu3r85xdEREvccEnoioj0ybNhcnfeGLaKlrQfWoapQNLMOKd1bg6cfv5j7EexGOtDkdQp+5+Z5HMO3oyfjVd3+GDz980elwiA5NQkA3jL3+ujMexyVfuBL/W7IAsVgoh4ERER0cTOCJiPpAbe0MzH/jKZT4/TBMEy5VhSJJ2HjS0TA0A0/863anQ6QcGzNzDE6bOhUvHD6LCTxRH0kko9i8aQcwffoef//db9+KRYvn510naiBQgmt+fif+9/piLFjwoNPhEFEeYwJPRNQHWlrqMKS8HPIu1XnHDxqEY849Gs/92593F5B08AUCJXhl6YdoCoXw73ufhaxI+OC/C5wOi/LEWWddheoRg/DE3+5GdfVIaFoSW7eucDqsghaJtGPVwpWInPE5BL3e7P3hRAK/+v2jeOWlR/Ly2Dt+/CzccNVXEL38PJxywiYsW/am0yERUZ7a8wIhIiLqlXC4FRd/5cdoCYd73O9WVYwcPRSjRk1zKDLKpVgshIqiIpx7+OF46K8/x7bV21FXt8bpsCgP3Hr/Y3jqmbvwx7uvR1NLPZavfA9/eeFfTodV8CKRdrz2/BN44r8Le9z/s18+gPt//VO0tzc6FNm+7WzaAq/bjQHFJXjkPw+jtnaG0yERUZ7iCDwRUR95/J+34/2Fz+NzZ1yI4vIgAKBlRyteefFv3IO4H2mJRDB+8GB4XC7836XnIRlL4ubvf83psMhBV1zza1x3+UXZLc5cioKGjg7cfs1vHY7s0GBaJizDzP78v82b8d6rryEUanEwqn3bUb8el3/3Fjx4308xZehQPLbgSZx77EnYuXOr06ERUZ5hAk9E1GcEtm9fg8XvvIpVq94DIJwOiHJKwtlnX4WZI4YDAKx0ca3a6bUOx0XOkTBxwmxceuUXe+xP3h6N4upv/RKvvfZI9nE8Xhy4uro1eOaeJzBlfC0OHzkSb779P9TXr3c6rE/10J9uBiQJf/7DTzBpyBB89cof4Y6brnQ6LCLKM5xCT0TUhzxuL95Z9DJmTD/R6VAopyTMOupM3PbH6xDw2OtwH33zbUyfciwuOf44h2Mjp0ycMBtPvPo4jqodnb0voWn47R//iaefvhOKoqJmyFgcccRpGDFiioORFjbTNPDqaw/jpOmH45vf/gU2frwRupZyOqzPQODRB2/FX158DUVeL44/czYUhWNtRNQTE3gioj5mCQHV5XY6DMqhIUNG4/ZHfoMJQ4Zk73vgJ3dhw4b/ORgVOe3bN1+PMQOrsz93xGJ4/J33cM8t1wEASksH4Pu33ooPP3wR3/7Jj50K85ARi4Xw6F9/gUcfuBXtHc6sfZdlBX5/MQKBEvj9xZ+akBuGjn/c8VcYponxgwdj7twv5yhSIioU7NYjIupDAgJNoU7UjpmKjz56yelwKEdmzjwFI6uqeuxCYFrmPv6C+gNfkRehRBxSQkJdezse/P3jePTPv0I8bhe7NAwdbQ2t+N/mzahbV+dwtIeOlJZw7LVHj56J875xOTx+D7Skhmcfehir17y/j78QWLr0VbyyYjlmjx6DKbMPw+uvP5qzeIko/zGBJyLqQ0IILFm/CR6/x+lQKIdMU4cl7DXMCU3Diro6tLQwIevvfv6tq7Dyq1fAMi089bc/7FagLBxuw4N33oJ//ule7lZwiBg5cip+ce03oMgytrW2YtGCdz4lgQc0LYnn/vwCTrn3x5gwewIkSYYQVo4iJqJ8xwSeiKgPWZaJxS8sxqa1q5wOhXLof/9bgDeXXYDzj5uNJ955H/fd8Bvu702or9+Ae371f3v9vRAW2tsb83arM9p/bW0N+PdHHyHg8eC5h17C0qWvferf6LqGd15/HgvXfxFVA8oRDJYjHG7NQbREVAgkIQTLnBL1c1K3ab50aNqfQz3bw8ExadKx+PxXv4p/P/wQ1q5d5HQ4PezvqT9XbSIQKMHQoRNQUTEYjY2bsG3bKpimkZPX7u94jOgbHo8fNTXjoKou7NixDrFY6DP9naKomDZtHo6aeyIef+hudHQ09XGkPbE9UHdMF/MLE3gi4sm3H+DFGHWXbwm8JMkYNWoaPnfm+Zh99iyMH16Dj1dtxNLXl2LjytVYtOh5JBKRPo2hv+Mxgrpje6DumC7mFybwRMSTbz/AizHqLt8S+JohY/HN63+MKy49BwOKS7L3JzQNy7Zvx6svv4cXH3uShSD7EI8R1B3bA3XHdDG/cA08EREROUp1eeAP+qHKSo/7fW43Zo8ejcmX12Dj0o1M4Pu5qsqhOOXMS+EL+gAADZvr8PrrjyKVijscGRFR7jCBJyIiIkc1NmzEn395O/zFflz5hTMAALFUEs8v/RjvPvMuNnyyCmvWfNDr1/F6i5BMRnv9PJR7VVXD8H+33Y7zzpoLr8sFAGgOhzHjmcNx67XfdDg6IqLcYQJPRJQDHrcPp552Oc664mysfHcFHvvTHWhra3A6LKK8kNISiEY7IKyurbJW7tiBu6++FWvWfIBotKPXr3HZd36O0y87DeFQFE/e+S8sWPBgr5+Tcufya2/EN84/HVXFxdn7asrLUXP5eXjr2Zfw3nv/djA66itutxfjxh2F4uIKrFj+NsKRNqdDInKc7HQARET9gayoqBk7FF/93Byc/eWTMWHC0U6HRJQ3vN4inPGFr+Ocecdk7xtaXoHv/PKH+PcH7+DKH90BeZfp9fvrK987D+cefji+Ou8E/O6hn+Pr37q5l1EfHLNnn4MLLroeQ4dOcDqUvHXCCRfi3PNO7JG8Z5QFinDY8cc6EBXlQnX1KFzyf1finr/fifO+cjWKisqcDonIcUzgiYhyQNMSWLt0OVyKgoElJRg4cJjTITmqpmY8fvXgv3D9L+9DVVX/+ixkWcGIEVOcDiOvTJ16As779tmoKS/P3lddWoqL5xyHkyZPxi0/uwKK0rtJg/99ZRFMy4Iiyxg3aBB+efvVuPmeR3D88ef3NvwDdvrp38YT8/+C391/A37/70eZxO/FjONmYVhlxR5/J4RAZ3NnjiOiXHGpbpRVl2HmiBG46RdXYO7ci3t9LCAqdEzgiYhywOsN4Jgz5gAAqoJBDB49xNmAHDZ9+lyceeoxuOmHl2HmzJN6Pbq6L2PHHoEZ0z+HQKDk0x/cxyZOPAZvrlyBD5a9i1eWL8fZZ3/P6ZDywuDBY3D0mDE97pMlCQ2dHfj5vX/D5ZfeBMPQe/Uazdube1RSHlRaiuu+fRHu/+ddOPfca3r13AfqgmsvwtCKClSXlODUqVNx69/ux5QpJ6CsrNqRePKVy+2CLO35ktW0LPz3tadzHBHlSiTagZ1bmwAAwysrccF1F6K2dobDURE5iwk8EVGOpJIaAKCquBiDRw92OBpnDR03AhOH1MDv8WDkhNHw+3efGnswfPfa3+Dj5e/i3UXzsWTDGtz/n5dx+unf7pPX+nQSvn7d1Thu/HhUl5Tgc5Mn46d3/wBz5nzZoXjyh8fnQbHPt9v9LeEI7rv1Z3j22d9DCGsPf/nZ7WkXJJ/bjXGDBuGi6y9ARUXu/01e1G3qt8/txsUnHId3Fr2En/zu3pzHks8+efd/aArteZTd43LhxvvvxsCBI3IbFOVEc/M2rHpvdfbnC4+ejS9e9k12clG/xgSeiBzSv/aN1fUUNi3blP1ZkvvX+99VW30b6tvbAQCnf/VkDBhw8KfRf/fa3+Ce238Iv8eDgMeLcYMG4Ttnn4r/d9c1jk1VHj5+GOT0nsmyJMHv8SDINZ2or9uExxd9gLq2ngWqjqytxeU/uhEnnfQ1SHsZgf2s1n2yAqa1eyeAIssYVlnhyFKOtmhXRXxLCLyyfDkOn3IMFjw2P+ex5LN3Fz6N5dvq9vj9yZKEb5x2Ep56e0H2Pq+3CEceeQbOO/9ajB8/Cy6XJ5fh0kHW1rwTW1qaAdj/Xm+97nL89ol/7PPfrKq6MWnSsZgx4yRUVtbs5yv27/Mz5T8m8ESUUyccfwHe37ABm5ubcN9zL2HChNm9vjDPZ4qiYurUOTjhhAtxytdPAQAs3rQRr/7jBYcjc1a4swMtkQgAYGRVFXy+4EF/jXFHjIO1h2FXzTAQj4cO+ut9Fq88+lqPnzvjcWyvW72XR/cfCxc+javOPA9Pvvzf3X5367XfxGNP3gVVdfXqNSKRth5T6HfV2xH+A/HmylXZ/9+0cyeu+sKl2LR5GV5//dGcx5LPEokInv3dv1HX1gZLCJiWBc0wkNJ1pHQdsVQKy5avg6q6cfLJl6GxbScWL34BTz1xB95evAA33vVn1NSMTz+bhPHjZ2H27HMO6XPPoaS5eSuWbdue/VmWJFx20jxc8PXv72X2loTa2ulYufJdLF36KtZsXo37//MyTjj+Avh8wX1+7xMnHI3trS0HGKmUfm52AFAfE0TU7wHI2e3W+x8TKV3PvvaVP7pDuFyenMaQu5skrrvljz0+a9OyxF8WvC48Hn9OY8m39jBmzOHi4dffyr7m3/77tqipGZ/93Oxb715j5syTxfW33S9awmEhhBDxVEqsqNsuTjvtW461icrKmux7jqdS4nf/es6ROPL1GPH9G+4SbZGIiCWTwrSs7Ot/tGlTr48TM2acJGLJ5G7vLRSPiz8++6Lweoty/j3Mm/cVsXDdOvHSsmXi6KPPdaxd7m+bcCrGs866Stz/n5fF966/U5x44iUCgBg8eLSorh4lAIjy8kHijkee3GPMj7zxlhg+fJI47bRviYaODrFqxw7hcfsc/czz+ZZP7aG4uFLcdNdfexwTMi6+9CdCVd09Hu/zBcVj77y722PbIhHx5KJF4oKLrhdVVcOE11sk/P5i0f18M27ckeKT7dv3O0ZFUcXJJ18mfnjzvWLOnC8Lr7dIyLLi+PfoRHugvsdvhIhyehL49V8fF4ZpCiGEaOzsFCNHTnX8xNR3N0k8tXhx9nNO6bpYuG6d+NrlN+f1yTcX8bhcHnHjb/8iNMPIvu7Dr78lRo2aJiZPPl6MHn3YQXmdkpIqYVqWiKdS4qrrfpu+WHOmPSiKKmpHTRdtkYgQQoiPt24V06fPcySWfD1GVFbWiLPOukqcf+F14n+bNwshhEhqmpgx/XOit506gwbVimgykX1PhmmKtQ0N4nvX3yl8vqBj7SJfbvnYHvb3NmTIGPH6ypV7jDmcSIgjjzxD/GfJEmFalnh95Urhdnsdjzlfb/nWHubN+4p4e82a3ZL4T7ZvF4FASY/HlpVVi/ZodK/xRpMJ8c7ateK/q1eLLc3NYtCg2l7F5nH7xHnnX9vjNd9es0acc84PDpkBCsovnDtERDn10UsfYl1jIwDg461b0dnZ/Jn/1u32ori4EiUlVXC7vX0V4kHV2tQOzTBgCYGVO3bg1qt/i0cevNnpsByn6yl88PLb+Gjz5ux9XztxDtZvWIpnX38Sp33x4BR283oDWLhuHQzLwpJ3FyIeDx+U5z0Q06bNwz9ffRrlRUVIaBr++/7HWLbsTcfiyUetrTswf/4fsGHt0ux65/c2rMemzctgX0ceOMsye/y8pqEepx59Cu69/YdIJCK9em7KD0IIaIaxx98FPB5MmHo4hldWQpYkvPHCezDNPT+W8s+77z6FB257FIs2bkRHLIbmcAgrd9ThmWdeh6Fr3R4pYerUOSgLBPb6XAGPF8eNG4cTJkxAWzQKSerdlPdzz7sa9zzwkx6vefz48fjnE7fjjDOu6NVzE+0JE3giyqn58+/Du0tXQjdNeFwqfL6iT/0bRVFRUTEYc+dejB/+8k5cf8fvMXv2OfC4d69anV8E7vzhjfj7W+/gjVWrcNfPHsSCBQ86HVTeWLToebz//rIeF9yNnZ248pIb8Mqzj3dbs3rgdu7ciotOPAtCCNSOm9yr5yoqKsPQoRMOaL2+LCs45fwv4sjaWgBAQtOw+gOufd+bk754LkYNGAAAmDdxEiZOmI3erisNh9ugGXYSbwmBRSvXYevWFb0NlfJIKhXHhnXb9vi7ho4OhNvCSOk61jY0YP7f/wHTNPf4WMo/up7CPx/7Fa48/zu47c5HcMP1v8eJhx2HX1zzDaS0RI/HtrU17LHg4Z4MLCnBrFlno6gXxUSnzZ2GYt/ugwoelwvX3n5FAVyrUKFhAk9EOaVpSaxdvAYdsSjGDxqMz1/wTUyccDT2dXE+ePAYXHHDL/CLP96Ar190Bo4+djomzJgGXx9tPXYwbdy4BJefejKu+Pwl+MejtzkdTl6JxUJ468k3sHz79myxuXAigdlnHo9/vfIkbvvHnw/KhU9T0xY8Mv81fLLk3V48i4QvXPA93P7EX3H88efv919PmDAbP7rq4uzPmmmiccuOXsRzaBs9czTKi7o69077ynlQFKVXz5lIRLCmoQGAPVLbuKmxV89H+ScSacfLD7+A5XU9K9a3R6N4asHb+PDDF/D8s2/h6q//FGvXLkJvZ3VQ7i1b9iZ++7Or8NCffobm5m3Y/TsU2LLlEyzauBGd8TgaOzuh76Ojpqa8HA///VaceuplkOUDO8Yse3MZwonkbvfLkoQx1QMxYuSUA3peor1RnQ6AiPqf1R8uR0s4gkk1Nbjvruvx3MWfw6VzT0E40nMLKUVRMWTIWEybOhfB8iDe/WAZ1n+0Hh9/sBD19esRjXY49A4+u+rqUSgqKsOWLZ84HUpeevvtx/Hvp2Zi+BUXoqq4GBOHDMHN3/8aAGD8oEG4OlCy2+jK/rIsE1df8Pn9+htFUVFcXAlZtvu5BwwYjutuvhybmptRXFq+3zFcdsM1PaZXNnV2YvHiF/f7efqLxs1NiKVSCHrtUa1j5x12UCqGP//0G5j1/0Yjrml49z9cvnCo0bQkFi58Gj+9youTLjkJJQNKEQ/FsWnZJjz32MNoaNiEX/7ocqfDpD6WSiVw+7X3YsqxU5GMJ3H2BZ/DCRPsrUNTuo6OeBwpXc8+fmtLCwaPGXLAU+lXLn8PsVRqj7+TIH2mmYZE+4MJPBHl3ML3nsHLb5yGEReehYDHi3MOOwzHHPtFvPHGo5AgYfiIyVi//iO4XF4cccSpOPWbp+HVR17FhnVLMHr0DEw9YjbmnXsWtq/ejhf/8+fdEv+Dwe32Ytq0eYjHw1i1aiFkWcHAgSPg9Qawffvqz7h2UsJ3b7wZlTWVuO3KH2BH/fqDHmehi8VCePyBP2LUtFG4eN7x8Lnd2d+9unIlOjqaPvU5qqtHYebMk1ANGlujAAAgAElEQVRRPQA7tmzG++/9u9dJ/5FHnom555wO1a1CkiWMmDQCH63biHuv+xWWLn11v5/v2FnTsv/fGongsYefR0vL9n38Rf/22hPzMeuEGZg7cSJcioLZo8dkO1N649lHHkLl4Ao0b2/B4sX9eyvHQ1U02oHnn78Xb7zxKMpKB6K9o8nR2heUe4ahYf78P2D+fMDvL8bmTzYj9YvLcPjIkXhhyVJ88Nz7SMa6Eu6Na1bi449fO+CaCNu2rUJnLLbH36mKgmHDJmHduo8wfvwstDRv47UA9RoTeCLKuXg8jH/87k+Yd8IRmDliBADge7/6Lqa+NAOSJGHk5BH42eXfRXPzNixf/g4GvDoA1SOqMX3eN/Cti85CZdBeg9wUCiHaGcaCV/4CXd9z7/dnVVs7A6ecexGSsSSKK4ohSRLmnHMslr2/EnfcsAqHHXYKTr/0XBSVFeE/9z2NN958rMfJvqpqGDxuL1rbGpBMRgEAJSWV+OE3z0cslcKvFR5u92bLluX48013Y9SwQThh/AQo6URt6dvLPvVvPW4fPn/B5bjm+ksxproaS7dswXcv7MCSJa/sVrRsf1xy/bfwjTNOglu1v7eNO3fizBPOxrp1Hx7Q821va8ORtbXojMfxm989hofv4XKKfVm06Hnc++MqDHvgRowfPBhCCHzhvB/gpfkP9qrDbv36j/CL730HkUj7QYyW8lEsFkIsFnI6DHJYPB7GK6/8FTt3bsW4ydPxyUcL8cnyt3p1fthVNNqBBQvex8RvDIHf4+nxuyKvF1/58cUYOLwap331ZLz34iI88Nub9jmDsKJiMHQt1SeDE3Ro4BUlETli5cqF+P2tD+MXv/4ehldW4rRp03DaNHuUMqXraL/ll3j8D3/GJ5+8hU2//xhTphyPq3/702zyDgDVJSX48k8uxpKlr6ChYWOv4pk06Vjc8rMrIEkSygIBJDQNblVFZyiC8y+5Bl++8gs4btw4KLIMYQnE4iEMGToaZQPLUFlTiUGjBsHtdaGzOYRtq7fh/ddfxUlfOAcelwsPzX+11/Ed6j766CU8dPt0TP3D/8t+x0fMnYHLvvPz7GO0pI5N61aisXETAMDj8WHMmMNw5qWnYNygQdnHlZYOwDeu/AXefPGpdPXy/ecr8vWYTvnw354/4OQdAO78/q1Yfv7nsWXFVsx/9gGEQi0H/Fz9gWFoWLDgrxj34ETcdN03UOzz4da7r8GRZxyJ5u3NWPLmIrzz9hOfaaZFMFiOsWOPwKTpR2HHls14882/5+AdEFG+SCQi+OCD5/DBB8/12Ws8cuedOPzYqTh5yhTI3c4dLkXBOYcfjlmjR2NoRQWKfT68t+B4eNxeHHPGiehs6URLXQtWrXgfHR1NGD16Jk7/6hdgWRYeu/vedK0Gop4kIQQreBD1c73dQuVABQIlOOvzV+DOP1yHwWU9K8BGkkm8tXo1XvnXG3ji4d9hzOjDcNtDv8bciRN7PC6WSuLGW/6E++/4ca+mTU+adCyee+NpjB44sMf921pboRkGxlRXZ+/b2tKCzS3NGFJWjhK/H+WBQHakFgBawmEs2boVM0cMx6ufrMDPvnYVNm92dg38/hzqnWoPxcWV+PmfHsR3v3Qm3KqKlK6jOdw19dWwTGxtacXOsD2q5lFdGFJWhvGDB6PY58PKHXW473f/QvWIalx64en4f1fficf/eTsOpFDVKad8Az+95zpIkoRlqzbg7h/dhI0bl/Tq/ZWXD0I43AbD0D79wX1sf0/9TrWJAQOG42+vPY+TJk/OzsxIaBqW123HO+9+jEXzF+Hdd55CS2sdAKCmZjzOPO9SlA+qgKzIcHvdGDh8AEYMH4yx1dVY8MESXPH508HiZbsrhGME5Q7bw/77/g134Tc/vwoel2uvj2kJh/Hce4sRKA7gi0cegXAigfZYDOsaGxGOxTGsqhKHjxwJRZbx0ief4EcXfgubNn2cw3exZ0wX8wsTeCJy9OTr8wVx6qnfxAOP3Iyq4p5V5S0h0NTZiVeXfgJd03Hh3OOyRa2629baillTjkJT0+bdfvdZud1ezDnhIlx43SWYMWYUpg8ffsDPlfGn5xfgt//344I7+TrZHoYOnYAf/uZXuOr8s7IJ22fVEYth5Y4dGFNdjeqSEsw54UK8/c4TBxSHzxdEbe0MAEAo1IKGhg27rY90uTwYNKgWRx55GsYdNR7rFq/Fog/mo6Fx00GdntkXCiWBB4DDDjsFd//j9zhm7NgeI1sJTcOWlhYs3bwFaz5YAwAYPnEYTj/6CAQ8HkiSBJciw+f2ZP/ulj8+hpuuuhRM4HdXKMcIyg22h/03ccLReGXhfNSU773QqSUEYqkUZMnej35fLCEwdcrxWLVq4cEOdb8xXcwvTOCJyPGTr8ftw7wTL8Hfn7yzx9ZRGbppQjeM3daWZXTG45gydkavC8OoqhsDBgyDzxfEpEnH4vu3fRsnTpp0QM+1ZMsWXHjyl3o9anuwFNLF2IABw3HVTbfgp1decsDP8dbq1Thn1vF9sobQ4/bhlFO/ie/f9m34PR5UlxSj1B9AZzyGxs4QdoZCeOGvL+GJx+7K2zW4hZTAS5KMSZOOxZ+eeRDHjB272+9Ny0I4Yc++8ajqXo8Ty7ZtwwUnfwnr13/UZ7G6XB5UV49CIFCCaKQdHo8fw4ZPgmnqaGrags2bP8mLGRh7UkjHCOp7bA/7T1XdmD3787jj4dtwVO3oXj/fguXLcc6Rs5FKxQ9CdL3DdDHPCCLq92APRzl6c7k84ogjThf/WPjefsX+/NIlYt68rwiXy3PQ46muHiXOOvNK8fHWrZ85ns3NO8Utf3xMjBt3pJAk2fHPNXMrtPYwePBo8d769fsVd8aSLVvE1KlzBCD1SWyVlTXiXx+8v9fXNy1L7Ax1ilNPvVyoqtvxz7K37SEf2oQkyWLatLmiORQ64DYxffo8IctKn8VYVlYtbvj1A2JNfb1Y39go1tTXi7UNDWJrS4vY0tws1jc2ih/85G7h9RY5/nn2tk04HStvbA/5elMUVYwefZh4f8OG/foMd7Vo4wZRO2q64+/nQNoD9T1+I0Tk+Ikhc5MkWRQXV4ozzviO+POLr4j2aHSfcT/48muidtR0oShqn8XkdnvF3LkXf+pn2BGLiWt++ntRXT1K+HxB0VfJYy5Ovk7Hat8kUVMzXvzhmRc+c9wdsZi49ud/EIMG1fZZ54kkyeKww04RKV3fZyzLtm0TEycek3ft4EDaQ760CUmSxaRJx4rnly7Zr9jfXLVKTJ06p0+Td7fbK8499xoRTSb2GcvN9zwi/P5ixz/L3rYJp2Plje0hv2+SKCurFvc999J+fY5CCNEWiYjfPPykGDZsosin8wflF34jROT4iWHXmywrwuPxi9raGeLG3/5FbG9t7RHv+sZG8f0b7hIDBgzPwQlOEhMnHL3Pz+/ep54XEyceI9xur+Of3cE4+Toda/ebx+0Ts2Z9Xrz48cf7jPnlTz4Rc+Z8OSejm8OGTdxnLCvqtotZR53Vpx1LuWwP+dUmJOH1FonPfe6r4r7nXvrUTr67/vFvMWTIGNHXxwmP2ycuuOj6fcZy33MvidpR0/NqZs6BtgmnY+WN7aEQbj5fUPzgxt99ps/w461bxfTp84TfX3zQZxTmuj1Q3+MaeCLK6/VrkiRjwIBhmDPvAgwePRirFi3DokXPIxLtgBBWTmIIBEpw2VU34ZoffgXrGpsQiscR7oigbs12tO5oxQtP/w11dWtyEsuB2p9Dff61Bwl+fxCnnfZNzLlwDqZNGYvjxo1DaySC5XXb8farH+Kxe36HLVtWwL7W6FuVlTX4w/yncMGsWT3ujyST+NuLr+Pu627E5s3LcxLLgdrfU38+tglZllFcXImLvn4Nzrr0VEwbNgyDy8qwqbkZb3+yEi//5WW89srfcrJlnyTJmDnzJLz29jMoCwSy9zeFQnj8pbfw19vuxrp1i6HrqT6P5UAV9jGCDja2h4PD7fbiuOO+hNO+eja+eNoJGFFVlf1dJJnE/CVL8cxdz+D11x9FONzqYKT7xnQxvzCBJyKefPuBQ+lizOPxo6qyBuFIu6MXPH5/MWprZ8Dvt/et37Ztda92Qsilwk/g6WA7lI4R1HtsDwdf93NGff1G7Nix1umQPjOmi/mFCTwR8eTbD/BijLpjAk+74jGCumN7oO6YLuaX/dtkl4iIiIiIiIgcwQSeiIiIiIiIqAAwgSciIiIiIiIqAEzgiYiIiIiIiAoAE3giIiIiIiKiAsAEnoiIiIiIiKgAMIEnIiIiIiIiKgBM4ImIiIiIiIgKABN4IiIiIiIiogLABJ6IiIiIiIioADCBJyIiIiIiIioATOCJiIiIiIiICgATeCIiIiIiIqICwASeiIiIiIiIqAAwgSciIiIiIiIqAEzgiYiIiIiIiAoAE3giIiIiIiKiAsAEnoiIiIiIiKgAMIEnIiIiIiIiKgBM4ImIiIiIiIgKABN4IiIiIiIiogLABJ6IiIiIiIioADCBJyIiIiIiIioATOCJiIiIiIiICgATeCIiIiIiIqICwASeiIiIiIiIqAAwgSciIiIiIiIqAEzgiYiIiIiIiAoAE3giIiIiIiKiAsAEnoiIiIiIiKgAMIEnIiIiIiIiKgBM4ImIiIiIiIgKABN4IiIiIiIiogLABJ6IiIiIiIioADCBJyIiIiIiIioATOCJiIiIiIiICgATeCIiIiIiIqICwASeiIiIiIiIqAAwgSciIiIiIiIqAEzgiYiIiIiIiAoAE3giIiIiIiKiAsAEnoiIiIiIiKgAMIEnIiIiIiIiKgBM4ImIiIiIiIgKABN4IiIiIiIiogLABJ6IiIiIiIioADCBJyIiIiIiIioATOCJiIiIiIiICgATeCIiIiIiIqICwASeiIiIiIiIqABIQgjhdBBEREREREREtG8cgSciIiIiIiIqAEzgiYiIiIiIiAoAE3giIiIiIiKiAsAEnoiIiIiIiKgAMIEnIiIiIiIiKgBM4ImIiIiIiIgKABN4IiIiIiIiogLABJ6IiIiIiIioADCBJyIiIiIiIioAqtMBEJHzJElyOgTqY0KIz/xYtodD3/60B4Btoj/gMYK6Y3ug7vb3nEF9iyPwRERERERERAWACTwRERERERFRAWACT0RERERERFQAmMATERERERERFQAm8EREREREREQFgAk8ERERERERUQFgAk9ERERERERUAJjAExERERERERUAJvBEREREREREBYAJPBEREREREVEBYAJPREREREREVACYwBMREREREREVACbwRERERERERAWACTwRERERERFRAWACT0RERIcACZIkA5CcDoSIiKjPqE4HQET06STIsgxZViBJEoQQME0DQggAwungKKfs5EyS7DbhdvvgUt0Q6GoTsixDUVwQwoJh6NC0BEzTBNvKoUmSZKiqC4rigizLUBUXLGEhlYrDMHQAgKKoUGQFpmWm24nlcNREREQHhgk8EeUlSZKhKCpU1Y1gURmqqoaiqmoogsXl6OxsQVPTFrS3NyCZjMEwNOi6lk7oM38vZZN9XqwXMimbrNuJmhuBQDGCwQoEAiUoKamCx+OHZZnQtCQSiTC83iD8/iAGDh4K0zDR0daMlSvfRUtLHQxDc/oN0UEjQVVdcLk82U4bRVEhSRIsy4IsK9D1FCzTQLC4AmVl1bBMA61t9YhGO2CahtNvgIhyIjMrh524dGhgAk9EeUaC1xtAWdlAlJYOQE3NOJSUVMBfEoA34EWoJYRIuD174Q4AhuGGLCchSfYFvc8XRLCoDJqeQijUgng8zMStIEnw+YpQUlIFt9uLysoaeL0BaFoS8VgIup5CR0cTVNWdHnU1sx05fn8QqlvFmJmjEQ3VwOXyYPHi+ejo2AnLMp1+Y9RLkiTD7fbC7fZCkmQIYdnfqxCAJNn/BaCqLkiqG5Ikw+crgt9fAt3QoOspxOMR8IKe6FBld/x2Z3foc+YeFT4m8ESURyQUB8sxdtyRmDzjKBRXFsPQDUTaI4iHYoh2RBGLhdAZakY43IpUKgHLNCAg4HZ74XK54fUG4PUWIRgsgxACqupCIhGB3QPPk3Yh8Xh8qKkZhxEjJqOkrBLxaATRaAdisU4Ypo5EImqPsFpmdrYFAPh8RfB5ixAPxdDZEgIAGLoGRXFBkrg+utBJkgyXy53twMsk65IkAelOPEVWYVoGDF2DJSwoigqfrwhDh49FONyKSKQdqVSco/BEh6TMrC37eN99dh7RoYAJPBHlDa83gCOPOgNzvngSAiVF6NjZgbaGNpi6gXC4A9FoB0KhFrS3NyKRiMIyDVjCghAWJEnAsuyp8pZloq2tEZZlIB6P8ORdgGRZQXFxJWYefiJ8RT5EOyKQZRmGoSOVSiCZjCGViiOZjME0dQghIEkSFFmFsCx0hlrg8fgRDrdD05JobNyERCKSbSNUmDLr3WVZhWka2aUysqxASk+TlWUFiuoCDECH3cFjWfbsjIYdm+Dx+BEIlCIW62QC3y9w+nT/0pW8Z879XSPvRIcGJvBElBckSUZ19UhMmX0YSqpKYeomhGUhEYkjFo4hEmlHW1s94rFQeuTMTtrsi3MLkmRBkiTEYmGkUgloqQQMU4eup9IX6Tx5FwpJkhEIlGDkyCkwNB3RDgOxWASaZs+4cLu90PWU3YljmTB0DQICkiTDlEwICLS0bEck0gYJEgzTQCzWiXg8zHoIBax7sTqg66I8M8omywoUWU0n60loWhJaKgEBgXg8jLa2eni9AciystvUWjq0ZGqouN1eeDx+qOk2k0rFkdIS0LTkQToW7O+MHp6H+ta+ps1n78ltSER9gAk8EeUFt9uLmppxiIViqN9QDwAINXeipb4FTU2b0dZWj0ikA4ahZdcwm6aRHYUHAMs0ACkJRVGzF2isPl5YZFmB1xtAefkgJJMxbN++Fj5fEXRdQyTSDgAQ6VkX2XXPkgRJIN0uTFiWgWQyhmjUHmHljgWHgvROFJJ9cS6EBQgBKb0zhSKr9qg7kF1WYegaTMuESFekb2mpgywrUFV3+nGsi3EoytQ7KCsbiAFVwzFocC2KiktgWRZadu5AS0sd6uvXIxYLpXcpONDjQqbjqGuqdqYeQ/f/z3QyZRJJHov6Std0+d0/7wx+7nRoYAJPRI6TZQUlJVVIJCJYu2wZAhtKoSgK4vEImpu3o62tPlttPnMytiwTlmnATE+P7T4SZyfvmRM1T9iFIjPyHgyWQ5JkhMNtUJQQFEXNjrhnvmPD0KGlEl1T4iUJwhLZtpC/3z9rMRyIzC4EAgLIJEiyAkVR4HJ54Uon5ZqezHbaZI4NlmXBsuwtBTPHCfsCn7MxDjWSJMPvD2LQoNEYPnwiBg0djuqR1QiWB6ElNVTWV6BsazVcLje2bVud3Y3gwI4XAoDUYyaIEN0LZFo9kshMuwO4Jruv8fOlQx0TeCJylF1N2gchBHbu3AaPxweP2wczvX49Hg9B05K7XGTZCXzXns72iEZ+nbN3nVqZV8HlIXv3geLiCni9Rdl1y4ahIZGIIJWK9+iYycy+EOha45jfI+1d+9fbbyEfY8xPkiT3SH4yI+8ulxteTwBujxdCCMTSOxOYht4jebePDV2ft51QOfNeeuIx4uCS4PcHUVs7A0OHjkf5wCpUj6jGwOEDECwPwjBMWKaFaGcMAwYMR3t7E1KpeHomj3WAHTqZtiX16ETuPgKcfWSPRseOvIPP/h521X0tPD93OlQwgSciRymKCkVRkEoXJbN/VrNTYPXMlPnMCTg7gmFlR1vz74Qs9Ug4ZFnp5UXioU9VXfD7g7sUJ5Oh60l73WoqAV1PZT+/rpEtq8f/56eu9sCptPsnk7zvcmd65N0Dt8cLRXEhHg9D05LZWTn53Zlj27XQFsBtrnrD6w1g1KjpGDv+cBSVFMFf4kewPIiSAaUoLS+Gphtob2iHEAKyrMDvD8KlutPHld5uLZnpSOxKGPc02s5dMPravjrnDoV/U1K3Y8ah8H7oQDGBJyLHSJIMWZbTo2R2NWghLJiGDgEBXddgWUY28c08HkD6vvw9icmyDFVxZaf52sloCqlUAvkas3MkKLICwL7YNQwdlmVPg06lEtC0RHZUtXuSXkiJcLZSejaBz+yYwE6dPeuqJN09iZcgZdexK4oLuq4hmYxldyOwLKsgkncgU3TPbvdWukMy0z4yMwfos3G7vRgyeDRGjJgCf9CP0oGlqKqpRNXQKgwYUA6f241QPA5ZlaGoCjweP4qLK9He3oR4IoKD91nve3ZHz6n0TMT6xqH6eWZ23Oh+DcRzR3/FBJ6IHCWEsKdCC6XHyIW9brWrAJl9/66JTz6eqO0TrMvlhc9XBJfLY1+oKwpisTBM04BhsHhWd7IsQ5IV6LoGWY5DkiSYpg5dS0E3tGxi1jXjokshXABLkgSX6oai2vvQ2x0UZvp3crqN80Ksiz3Cbs9c6VoisevoZaZIZSIRhWnq9rKKPO/Y62JfjCuqC4qiwjD0bI0PWZYAGNk2QvumKCpKSwdi2PBJcLncKK4oxvCJwzFoZDWqioPwuT1IahpSmg5DM+DyuODxeeFyeZBMRvtgK8GuKfU97wO6L6XJtOfCabOUe9Iejnsi3RmcL0uByAlM4InIIV1TwSxYkK1uly+SBKRHobqvI9z1//PxgkeSpHQV9cEYMmQ0PB4/dF2DJElIxCPYsnUFOjubkY+xOyPdDiwzO0VeggTTMtJFx/a+9CBf28CuPB4/Skoq4Xb7YJo64nF7SzzTNID0aLxpMoHPyBSsy+iq6q3YO06YdnIrQcp27GQK1RVKm7A7+TwIBErh9wcRCrVmOy4B+ziiaUzgP52EQKAUxcWV6RkMQPmgctSOH4bhlVUIej0wTAvN4TBM08zO6vD4PGhs3NSHW0vuvQ1KkgRFUSFLMhTVlZ51pPXorC6ENkx9y64P5M2eA3ft0Mt0cLLzt39iAk9EDuhejdcCIMMUZrciVcj+rrC2gZHgdnlQWVmDKVOOR+WggQiUBiCEQCqWRLg1jFC4BbFYJ3Q95XSwecUSFqz0aHvGnmZYdB+NyM8ZGD1JkoyqqqGYMH4WioJlSKXi2LFjHZqatqQrYJuQLBMsrmSzl8nY+7R376yTuy2xsGBBSyWytRLszr58rYexZz5fEaoHjsTIUVORSERRVjYQmpZCKNSMUKgVumZClhWOwn8Kt9sDj8cPl8sNw9AQKC2Cx+dGkceL8kAAfrcbcU2zpx1bdqewntKxduUSNDZu7oPR90+XWU7j9Qbg8wXh9QYQjXZkO6JMU0csFuJ338+5XR643V4A9paXpqn3SNjtY6QM0yyc4x4dPEzgichxXYXJ0GPkrdDIsgy3x4fy8mqUVpRj7BFjMWzCMOzcthP16+vhLfJhZMdUxOMRNDVtAU+6NpFOwLrLtIOuNX92QpfZB9wwe7N/c+64XG4MGTIWtZPHQXGpCLXae08nk7F0TYQ4hKXAlIyC6JDoa7tutSWElU3oM/dZlgkhCQhDpGdr7L60Ir9J8PtLUFs7Ax5vAH5/CYaNHAfLtLBm1WLEYmF28H0GkiRDUVwQwspuKSnLMrSUjmgqCd00YAkXdNNANJlEZ0sIodYQ2ptasWPHOqRScUdj93j8GDJkDCoqhiAUaoaWSsLj8SFYXIGFC59BIhFFIRzj6OCTZQWK6som8JljoX2eTNcGgZQu+JuvywmpLzGBJyLH7HrSyezNvPckPp9PUhJU1WVva+X2QXGpqBxcgfJgEXzjPBCmhfoN9RgwqAaNDdXYuXMrT7rYdYuf7tJFCyV7fXwmkVdkFaZlwEqvf87vNgEEg+UYOXoiygdXIBFNIFgeRKyzBH5fMVwuTzaJ6NpejnbdVcCeibNrtfauZQcHtoe3c1TVhfLyalQNHoyRU0bCNEyoLgXRzhgadlRBUdbbF+5CQOu28wL1JMsyLNOAlkpA01OQJAnRjgiat+7E1kE7UOoPoLrEQkcshpZQGG0NbYiHYmhp2Y6O9kbHPtdMMVa324eKiiEYOWEMYqHBSEYT8ATs733OnIvw9tuPIx4POxIjOcmumRLwl0BKL/kwTTO7G48Fq9sjJZ47+ikm8ESUY11ToPe0pU73PZ8tC+lCLfk/RUyWZXg9AXi8AaiqG6HWTrTsaEFRWRCyIsHj90B1u2AaJiBJcLu9jo4A5Yeugk7A7tstybIMl9sLRbFPVW6XF26PF4ahIxrtSK+Rz992IcsKhgwZi6HjajD+qPHQkhpWvLMCpQNLoda5s+9LkhVOlwawp4JNgN0uum8tmOngyyyxyTymUASD5Rg/fhZmzJuOqqFVSESTiIaiEAIYMrQWoVALOjubkYhHEA63IqUlnA45D9kdOqZlIqUlEA7bo+qxWCfa24fAMEx4i3zQhg1GZzyO1vpWRNojSMZS6Ay1pGfw5D7mTCe1EAIQlr323TCRSqQQLA9CS2oYf9QE6JqOpqYtWLHibRY97WdkWYbHG7CvE1weWMLKFvU0JQMQ6U5OSUBRXFDE7uvj6dDHBJ6IHJVZ25rRfQptIe2Zqygq3B4ffL4i6HoKyWQMq95bjWTMvjBrb2pH46YGdLa1ALALm3FLub0Twr44KSmphKq6kUhEIctKtlq3YThxAb5/BgwYjomTZ2HKCVMxfeRwAEDjpgYkownIsj27QJHt07AQar+vRp9J0DMJTtfP9sWpfV/340LX7wqFqroxefJxOP5LJ2DkuGHwqCpaAURDUUTaw1BUGRMnz0Jnexui0Q40NGxA/Y71TOL3ILucQlhIJOztAxOJKFKpBFTFheKK4uzSi3g4js6dHdi0dhXa2hqyxQKdYlkmND2FWKwTLTuaoaoqoqEYYpEw2hrbUFxRjJO/9AVs27YS7e2NjsZKuaWqLqiqCxACqVQiW9DV2sM2qpl18ayh0v8wgSciR9iFqeTdpne2+D0AACAASURBVFDv+v+FMLKWWYupKCp0PQVNS0DTkjANE83bm9FS14JoRwTh9hBMy4DXG4CiqPuYPt4/dO+sych8HplKzRIkqKobLpc7XeDJgq5rQDrBEyI/L1xcLg/GjTsSU+dMxZCKcpT6A2jq7ESwvBiNWxrtdYsQkBU1vZWYK12F3+nInbWnDozMv5PMvukCIlt8rPvWk/Znl88foIThwybi+LNPxshxw1AZDMKyLDSkdMQ6Y4h0RO33Iksor6pEZfVA+H1BhMNtSLXWI7/fWy71LGRp3+ytJjMde4FACZq2DEbV0CoEy4OoW1eHTWtXY/PmZQiHWhycPp8p1CqQTMbQ0lIHw9ARDFbA5XIjlYpjy4rNGH/UBJRUlmDu3Ivwn//8gaPw/URmhpGmJbP1XtBtQEOCBAGRPXdKKJxBDjq4mMATkWMsy8qOuGX+C6BHElMISa4k2evfFUWFLMvptdmA6lLgD/oghEBncyeisc7sntUul6ffr137tO9V11NIpuLp9e4GDEODrqVgmDpEj2Qm35J4CQMHjsS0o4/EhJljUV5UhPZYDA2dnYi0hxEKtaKjYydSKXsk3uu1dypIJCL9fipkpk30rEQvZ65hYe0ybX7XTqB8TuLdbg+mTJ2D0TNGY3BZKeIpDXUtrWje3ox1H65Fa1MTLGGiuLgS5YPKESwPoqg0gMamzejsbGYS182uu1Fk24RlwjA0hMNtqNuyARACnoAXm1avxvbtaxCJdEB35HOUsm1VlpVsUqZpKWhaEqFQCyzLXiYSCJSicVMj3B4XSgaUwuPx8bsHkH/H+YMvs6sGAEiynJ2haFlmtrBdZhtNABDI1Ao5tD8X2h0TeCJyTM/q4z0rqe5pXXS+kmUFiqLC5fJAUVzweHz2Gn5TAJIEU7e3B0ql4jBNe6QoM02uf+/1LNI7D+zluxYCWioBSZKzVbkzo6/d98vOtymEHrcXo0fPxPijxmNoeTmEENje1ooNKzdj2VufoKOjEZFIW3ZdtyzJ8Hj98PmC9uyCPHkfudVzJCkzXTRT8CvzfWeK23VvK3K6yGFmr+T83EtbwqBBtZg4eyLKy4oRS6XQ2N6Jhg0NWPbmMjQ3bkdnqBl+fwl8vmJYlgVFVeDyuBHwF0NRVCZx6Lk7xa7HCyFE9viQiIfR2lqPeDwCSZLQ2dmMZDLmUAeZlJ1RpMgKJFmBotiJma4nEYm0w+crgmWZUFV3ej97CYloEsGyIpSXD0YsFkZ+tWcn9J/37/UG4E//uxdCIJWK92i/PXfq6D+fC3VhAk9EOWYnW59lnXthnJgkWJaJRCICVXWhuFhBKpVAMhlDqKMdniYPDE2HntJhpddoJhIR6LrG6W9pe/qeMwWqND0F0zKysxosy+iRqAH5l8T7/MUYNWE8SgeUAgDaolE07GhB3bo67GzcZu/zne6QUBQXJFmBx+NHSUkV4vEwEzV0rYfPHB8yo/H2qLuM7C4FsgxZzlzKGLsl9/lCVV0YNmwihBDYsb0JiqKgtb4FH7/+Merq1qG1dQc0LQVdS8Hlcts7LqgKTN1ALB7uOS2pn8p837sm8ZljgSzLkNLH42QqDoRaEI+Hs7N3EomII7UzMjO0fN4iuNyedMxWurq4gUQikh159/uD8PuLIcsSEtEEXG4V5eXVaGrazK0FD3n2sS6zfVwiHoElTOhaCh5vAC6XJ31usNuwvX1cfh7vqO8xgSeiHOu2nmsvFae7j67k30ja7oQQ2b29JUlGIhFFJNKG+vr1qKurQEXFYMiyndhHIm1IJmNIJqMOTeXMT3sahRfCsqfEWmZ6qqDYZYR19w4g5y9mJHi9AUAItO5ogSxJSCVSqN+wAxuWrUMo1AItXZAss+RClmVYwkpf6Lv7bQLffYqxLMmQFTW9NMXe6ztTvDCzrZz9WPsx9n2ZpB7ZJClfjh2KokLXklixcBnWLl4LRZERDnegvn49mpu3Q9dT2bYASYKWSiARjyCZiqG1dQesflzc0CZ1+/eiwu32wuVyZ4+73Tv0RHrJTUpL9lh+IxxJeOzdNDweP4qCZfD7S2CaOuLxMFIpu1ZK5hjm8wXh8wXttfENSQTjpQiUBFBZWQOXy8MEvh9QFDVbH0dRXUjF4jAtA5qWgKq6soVOu/aFZwLfXzGBJ6Kc29uU6V23hCqE5B3oilfXU5AkGS5X5oTrzo4WuVwexOIhGIYGTUtCSyUcr4TsvH3PvrD3vrWylaR3nS7YPXnPl1F4eyq3idXLliIWimPE5OFwedzYsGQD6urWoq2tHrFYKD1iaCcUqZRst4tU0rG4ndW1PlhRVKiqGx6PH4FAKYLBMrjdXiSTMcSinYjGQkil4nZCJgSEZcI0pewFLYBs5frda0w4eCwRAlu3rcKO+g1QVZe9Z3mkA4lkNFuQT1FURCLtSCZjCIda4PHUIaUlEQ63FsSuC33HHsG2lyip8Hjs/dN9viLoWgpt7Q2Ix8PQUl2V+k1D77YdqYlkMgZdT6UToFy1g0y7to9fpmlkl1EZhgbLNHpsZxcKNUMICz5fEKrqQiIRRXGsEolENL3lZH7MMDr05NfnmtltJZmMQTc0mKYOSZJhpes7ZI4XTNz7NybwRJRDXaPu3ZPXQlrvvieZPcszJ1ldT0GW5OzFoqGnoKiu9Oigmp0enk8XDU7acyLeZW8dHbsWsupqR4BTn60QAtFoh13tOtyKlp318PmK0Ni4GR3tjYhGO7Nb/8iyAiFUyJKSHjFMwLIM5NsFZV/Lrg9WVAQCJaiqGoqBA0egqqoGxRXFME0L0Y4oduxYh4aGTemRJ3uNvICAZRr2f7vVRZBlZS/rRZ3oNJNgWiY62huBdGyZzodMMUYJXdPBDUNDKhVHPBGBoWtIpRIFe2w8GDLJuz3q7kFp6UAMGDAcwWA5AMDjDaClpQ6dnTuh6yl7yy3ZgiUsGLoGw9SzybtTszLsZVbR9NahgGnq0HUNwsosDbIgLAumaSKVisPrCQAAkskYotGOfv39942eMwHzY7aOXb/BbsOafT1hZraQs49bu9ZwYLvov5jAE5Hjep6EMqOohaP7KEtmSpuQZchQoGmJ7PRYj8efLshlOpRI5JO910DYfQnF7r/P/G7XWgqZizEnk/hkMgbTsJOGeDwMVXUjFutELNoJ3dCyF2Hd1zBKkpRNPpy/kMwt+9+GD4FAKWpqxmH6kcdg9MwxqBpaBbfHhXBbGI2bmyCr9vIUw9DshMywdyPIJMGZmRrA7p1CsqwAQsAw9XQ9hdx+xt2L8u2xkJoEwDJhARBChyyb6anfevrx/atNZNhbdKpwqW64XB54PX6UlFQiECjBkFHD4Pa54fMVpde42+vdrXSV7q5pxma3kfdcfo52kU7LMmEaeraieKaQaaYDSggByRJIaXang2noMPw6DFOHx+NHJNLez2dgAF3XBAfv++u+ZMduKwf3+Q+EPfPMSBc8lKGoruwykL0n6/3z2NDfMYEnohzpmajtfXu47o8rjBNT9wtFWbLTCcuSIMsWXKoEIQl72qSuQZLl7PTf/s6etSBltxDcdW37p31G3R+bqURu/2x/F85UnLZHgnVDQzwWys7GsBNHI9vRk1mznVnHCCA7Mt/fKIoKrzeA0tIBGDVqCqYcPxWzj5yMYRWVUGQJ7dEYXkotQtHGIgSD5QiHW6EqLvtzS49iS5AgpdtAZnTbXjOtZEdw7ToU8XQnQG47Srq+10znUreibJljXrdOB7tN2DUg+mObyJBlGW63F6rLDVV1wx8ogc8XROXAgagYUgFDM1AxpALt7UMQDrdC1zXo6HlM3rVuRm6J7IwrJd0m7ZoOXXUuMjMvJEnOFis0LXu6vcvlRTJpbz1aKOfDg0/q05HyzAy6TKFUJ9n1dDQg3V73VPdll7/IeYyUH5jAE1HO7K1wHbC3qWCFMZVYdDvZCklk7oRlAYZpj7xketAz1bT3VX3/0GdfMCmKCjmzPtQChPj0C6g9j77L6QQ+U7U8U6XXqQsyO4k3TB1Cs5NLAZEtuJYZkbP3NDe7jcj3z2TNrhvhhd8fRPngClQNrcKwikqUBwLQTBOmFYE34EUsHIPb7cvuoy1JEoQk2cm7JENRFCiKC6apw4Sd/Pl8Remt2YrgdvsQibRh585tOV4L3VOm7WYKsrlc7mzyZnbbZQHpxK8/tokMWVbgdnuz23OWlFShqmooxhw+FoNGVqO1vhVCCFRWDkJnZxPi8UjXCLcl0gm85eiMp0xnQmZkNdthkz1vZDov08erdLE6w9CRSiXs9fKOHcvyQ2aJTaYgYe90dQh07XKh5EnhS7v2ixACSL/PnkvI+u+xgHpiAk9EOZG5YN3VrtXEC/li1R7x6T59t2vqW+ai3V7L6UM8LvfbvX27J++qy52+WEGPi+xddyMA9l5xXgjLHrmSupJg+4LX2Q6g7t+7qroR8JdAUV3ZbaNM07SLsGXWcxdw2z9w9uyJTKLt8rigqPZxwrBMtEUiWNPQgM6dHdBTOmKxTui6fWHbfau5zAW+vW+yvZZYVVwoLq5EWVk1AoESlJYMQCTagUCgFNu2rUQiEc3ZBXv3DidZVtL/BlxQVRcCgVKUlQ2EYeiIRjsQibTbiWd6BLk/s2dQuOH3F6O8fBBqasZhynGTMeOYKRhRVYWPXOsRbo/AE/CitLQakXA7Uv+fvTuNtSNP7/v+q6pTVWc/5+4bL8nm1st0T8/0aDSjGctSZElxIsiyYiFxohhOAtjyCweIASOAXwRIgLxJ7CB5EQeJYTmG4k2SIclaRiNp5Jnu2Xqb3ru5r3fhXc++1poXdc65l70NySbZrOH3AwzYzWmSh/fUrVO////5P8+gqyjyJuXpn/731WhBb7SzapiW4tH7e3gs4uR1jns1xB/8vHwUJQtzGbluftLE7e4XZIwPbCSMvzeT7u/jBZ/xNfPpVG0Q2vHDEOABPBDvn+t8eMfho0Law9BV/HYcDpqGMfq7yhjtEh7suGezBc3PH9XiwmPa3rmuK1fekOc9ap3HR2PCTGvScdwwTPmGMWlEFo9Gqn1UiP+wB/JYsTQ6Y2wY0UNT4WAaphw3p7m5VZ048aw8b6D9/U3t72+q32/LG426iuP0TF24t+LJDOyZmRUVqwUV3aws01AUS8Mg0NDz1dpvKQiG6o6aAEqHm0caMo2kiWQ4Ov8sScYoJFcqc5qZW9Ls8ozCcFkrrcc0Pb2kXq+ltRtn1WrtyfOH93WX9mDHz5RlWgcl4fmy5ueP6vTjX1Crvq+9/Y1Jh/rBsDv5Gj2y4liZjK25uVXNzx/VZ776GX3xpz+vr545IzeT0ZWdHa0VspKShUHTysi0Moq8h6vx33hxN5AvSweL1qZhjhYaDu53MgxZZkYZ25Fl2ZI0qeJ69CSLn5XKnBYXH1Mm42jtxlnt1zbvYnFrXPVifeD/uTXER6OfOzjW9eADfTqeffDpIcADeCAMw5A1Kn2VDp8BvrWc/PDq+EFJ28PvcEneeGftoDlOJMuyVS7P6MzpL+r0Fx7XxdfmtLt7Q/v7m5/2S3/gMhlH5fKMSsUp2U52svPY7TbkDfsKo4Py9w8rmX+/ceOfjGVLxkFH71vDvjFqIPhgdlzHD4OOm1O5PKPFxROaW1xRu5HsIFtWJtltbdXUH3TkewMF8hWG6bje76U4jpXLFXXkzKqOPL6qo7OzyjmuTEMq53LKZ11lHHvSW2A8Cz6KDhZqwiiQf2i0nEbjw3x/oHJ5RpXZigzD0NKJJbk5R0995Sn1Wj299fwb6vVbWls7p83NS+p06vf975uxHRWLU5qeXtLy8ilVKnOaPzqv8kxZpfKUSqVpbWxc1M72NfWi9iO9Cx+EvgwZymWLmlmc19EnV/W5Y8dUyecVjM4sx1Gs0E+6tw+HvdH9NjNZPH1YPkPev6AwPlJjGMahZoVJubhpJY/n45FzD9NixIM0XvheXHxMx449rerclHK5ot5559tqNvd0J/dyy7Jk21mNRwu+v+ppvPBujb72iuNbFpUPKrseBMI7Ph4BHsADYZqWbCcr0zCT8T6j0SiGcVBmPC4tHZ8RjOJI0p2O/vn0PvjGZ7Ft25Xr5OS4WRmGpTgOZVm2jh37jL78i1/Rc19+WuWZst5777uPXIBPdlvLOn36Czr15DMyDEP7N3e1vnFBW1tX1Bh3Fj/0cDV+oHr/GLDDnerjOFZohLJGgS6bLUzOS453OiVN5kF/8nOUH/u3nOyuJWfzLQWBp1a9LtvOqlqdn4zEyroFDb2+ms1dtVp7j+QuWzQ6ZrL02JI+/8wZrU5Py7EseWGoVr+vdrcnK5Mshtm2O+ovcXBU4qAJ4sE1Y8iYHF/pdOo6WjqmbCGr+aPzWj2+pILryjQMnX7ulNYvrGvj0tP6/p//ic6de1mDQee+/D2THhjGpER3ampRJz/zpBYfW5TiWL4XqDxdUmW/omp1XpK0tnb2Pl+rD7ekl0QyJtDNu3Jzrmrdrsq5nFr9vnqDoWo3a/KHnhwnp2KhKknyvIHCMNBg0JE37N8y/eHTctBs0xw1VswmDfoytnxvmMyIj8YzviMFfpAsTI1G4D2K4jiWZWVULE6pMlPV0mOLWn18Vb1eW++884L8Ub+AH8ayMirkK8rlS4pGo/rG10QcR5MmmOM+GuPjOMNhT77vjfoq3M71Y7xv4fhun0UI7/h4BHgAD4RhGHLdnGw7OxkDZY46so930kwjGZuSsWxZGXsyD9n3Pd3ZiJfDu/gPZvfl8Ega18mpUKwqk3EkSbbtyHGyWj5yQk8+d0ZPLC3pwsI1uU5uEj4eJdlsQavHzuixzz6mKAhl2Zb6g7Z6vaZ6vZaiyJY37E/OiN5y1l16388dXBNRFE7Kk207q2y2oBMnntX8/DHNrc6pOlfVjbM39O7b39fFi6+OZjLfnwclw0geCCWp329pe/uaJOnMU5/XdHZKudJpeQNPw95Qeze3deXKm2q19u7La3nYhaOd8lwxq+WpqvKOI8Mw1Oh29f33zmvz8qa2r22r120mVRr+QGEYKopGjSGNg1Fy0sH1EUWRut2Gbt68osfDZ1SZK6s0VdRytaqFymhHvlrVVLWsbD6rXvMn1WjsamPjwuic/b26NsYjqsbVIr7i0a7wkTNHtHxqWVEYqrnbVL+YU3GqpEKlqHp9S1tbVzQc9u7R60ifOI6SsYxhoG6zq73NfV2vljTwPJmGoX6nLyfnKFvMKd6P5WYLctysMhk3+TXdhlqtfXU69dG95fZC2L2/LyQVQJmMI9fNy3Vzox/zkiTP7su0LA0GXcWjBZ5o1Mvh/QuXj5pgNIKvUCmoujAlJ+foSz/1M6rXt3Tjxns/9D21bVfT00taWDgu0zTV6TTV77c0HPZHFV+BLDMzOnKTkWVmZI0qI8ZTDMaNEX+Y8Xn9KBr3v5EI47gfCPAAHohMxlG1Mq9SeVpRlDyU9brNpHzYT1bCx7vyppOR42STsWxmRqYZ3OaIl4NZ4OOzboc7AN97t84gN0czi2PFCgJfrpuTZdmanV1R1i3o+DPHVc7l1PM87a3vqtNtjFbr78NLe0gdLmm1XVvZ6ZJa+y3Zdnay8+H7w0kDr3HfhFs6/X/EWfEoihRGobIZR9XqvE6f/oKWjx3TE196QqefPamcbevKk6uyXVvdbkMbGxfuWw+CyQJDFMlxcspmCyoUqhr0BppbndPc6pwa23UN+0MFnq/w4qfXFf3TFoaBhsO+Bt2husOhvDCUaUibjbrq23Wtn1vT9fNXtLe/oX6/I88bKB5dG8lUh0hGrKQ52KGd+DiO5HtD9fttOa6tbDGnqWpJi9WqyrmcLNOQm8loZWpK23MVzazMqFye0e5udtIo715L7mnJWMF+r604jnV0ZUGVXE5vW9ekrZpyxeyk2uBR3Xk9bDjsqdttqN/u68qbV+T1Pe0dX5Cbc2WYhjIZS27OUak0PSmTtjOOHNfVcNjX/v5Nrd14T74/TK6dj+01cdBX4aCZ2cExnMTdfZ+Od94LhbKmppZUqczKNC31ei31ei2FgS/fGiqI/Ulgtyzrka7A0KgaK5crauHYvJZPLmluuqp8Ka/dtV11Ow3t7W985AJHNlvU8eNP6+jqk8rmihoMuioWW2o2d9Vs7t5yHt7zBgp8T4E82bEry7InfSsyGee27gkZy1YuX5bvD0YTBPx79pUADiPAA3ggstmCTp3+glZOHJNpmvKHvpp7Te3vb2hvb127u2saDnuKolDFQkVutpCUFvrD0fiY2yt/fH+H2eTcc1LCf79myCY/mqM/z5Lr5jQzs6TZ2SOamVtSsVqQk3VUmi6p1e/r2vqW3v72O9rf37inryUdkvPqdtZWeaasXDGn/pFZ1bYWVattqtEo3FIymuyuHHxtx7stH7ezYZqW5ueP6tTTT+joU8d07DPH9NjcnErZrKI41uYTNzX77hFtbV2VNPzI3+dujSsxHCerqakFzcysKJstqFKZU6Fc0LGnjmn+2Lz6xxdU29xXu9aWpEf2YS+OI9VqN3XhBxf08ulldU8MZVsZXdnZTcKUZSoM/VFZtD/ZnUzetlDj8YzjmfCH+yVEcSTfG2jt3JpmlmdVdLMq53LKOY7M0ZnXjGVp2B3o3Cvvqlbbuq8z4seNG8dVRo2dhga+p5WpKflDX1EUa9AdqL5dV7O5N2nY9yjz/aEajV3ValuK49HXZ6umxRNLyUJH1lEUxnJdV44zpyiKNbVQVWWuqjAINV9fVKk0rWvX3tbe3rq63eYtRzAOT0I53GzVMMwPfE8m15XxQxYBPkw8WaT2fW9UVeAfhEQZsp2s7NF596QZo6/A//RL/z9tvV5LGxsXFYZf1fRUWQuVinRMeu7nv6B+v6tz517UxsbF0eLMeOEjo+mpJX322Z/W0uoxOTlHw+5A7jCrQqGifL4sx8mq06nL8wbyvH6yYGy7k18//r0Mw1AUBvph77dpWnKzBRULFQ2G9uS6up/3Ezy6CPAAHhjHyWnl1LIsO6Nhb6hCtaBsPtl5HQ576vUcxXGkfKGiIPCSZnCWrTDwb6MB2a2zXcedzg3DlKHwHpcgHuy83/Jnjs5qe95QcRyrWp3TwrEFlWfLyhWzKk0V1Wi0tXlpU1s3Lyc7zQ9Jg6UHqdttKPQDnTlzTDPFos7mXXWbPdV3amo29yY7Hd6wr0ih4veV0n8c0zRVLE7p5JnP6um/+Iw+//QZzRaLOjI9rSiO1PM85Yo5maY5Ckf3vlR2MjIxjiehs1ioauHYgqoLVRWqBS1UytoMQnkDT83dpm7evPxIl8m22zWtXbms9fOnFAahbMeW1x+q2+rKzbmqVGbkONnJzvr4WjBNM+lAPxrNdfg6GU+EiBVrbe28Vm8eVbPflyRZpinTMGSZpvwgUHOvOSqzbt6XqozxNTE5X5uxFQRD7dzY0eVzN7SzU9f+5p42LmyoudfUxvUrun793UdwSsUHBYGnen1LlpVRvX5TW1sVzdxY0oUfXNT04pT6nYHCIJTnJc0hc8Wsjj/9mKYWqgqDSPWdunKlvOaXl7W1fkO12pb6/bbq9W01GjuKomByH052381ReH//juu4M/hHT8P4OHEcKwg89XotxXGs7GiRevz7Scln5HgBKgi8SRO1R1kYhmq3a2rX2hr6gXKOo8eXl1V7sqP61jOjI3imWs09yTCUyxW1snJGR46e1sqpZWWLOQVeIH/oyTAM+V6gvXVHmYytYnFqsojT6dRG590DeV5/tKGQfO2D21hIKxQqOnnic1o5clq7u2va2LikWm1T47GW9+6zhgZ3IMADeECSmcuBqgtTKk0VFfih8ht5xWGkbrujcnlGuVxJUlJ2HIZBUmKqW3dHPvyh6YOzXcc7KKN/uevd93En41t/7mCR4P2d5zMZW66TVak0rZmVWS2eWNTpZ09qplRUdzjUpbPX9fa339bVa28/sivznjdQfW9fXhBodWZa5VxuNALKlJvL6tqVd7W1dVWt5q407CmMQkkffIi9dRf+ICA5tqt8OS/byajgulqZmpJr2xp4nvbaba1fWNf6+vl7VCZ967U3uS5kKIyCUSOtZBxYp97Wyc+dVKmaXAuS1Nxt6tq1d9Xvt+/Ba0mvfr+j9fXzWjv3VNIvI+/KNA0pTpqXGZY5qcwYl8lLUhwbMkZl9LEOukQbxnjxztBg0FWjsaPta9vq9gca+J6K2WT0WBCFOru+odf+7HW98sofq9/v6N4+aGv0OuPRuVhfzmiXT5Ka+zVdfuOysoWsmntNbV3d1PrGBW1vX1WzuXOPXkf6dTp1maal4aCrbq6lbrehbLag7W1b2WxBxUJVhpnsmLu5iqrzFR07uaJqvqCLNzaSXhsZS/7QV7U6p0ZjV66bGzW1HIzOmkej6Qah4jj40Ptzct3dXYAa7/j7/lCmkSwgjku4DcOU47iT8D4u4Q9vY+f3R1+sWm1Tl948r6d/8mmZR46olHV1YnFBNxanNLMwr2731GSBr1pd0Kknn9HK6RWtnFrW4tEFlXM5hVGk69dv6ublTVkZS1P9qjJOsoAy7A9V366r1aip10tK7MdHe5Iz8B9fBZHJODp9+sf0c7/yy1o4tqALr5zXqfqzev2Vb2l9/XyyaD35PT7JiLiHYzwqPn0EeAAPxHDY097eevJwXshK3YFMKwnkuUJexeK06vUtdbtN+f5A3nAwGQtlWhnZox22cNRU5qN2P8bBfdwsyjTMTzTjebxDMi5rHI8HO9jhNyad5w3DSDrQu3llLFuBH6hYLero7IxOzi+o2e/rvdcvaufmDTXq24/szkoQ+Lpw/mW984P/QD9+8oSOz81poVLR4lRF+XJexUpRmbcyuhZ4CqNAkTdQHGvy9ZY0uQbePwZIkjx/qOZeU629lq7v7erI1JQylqVGr6fXXnlP5994U3t7H31u8qPd+vA0vhZs21UmY08e0CdNGc3k/Gq/31G7cl2yOAAAIABJREFUU9djU2eUL+dVyedlGoZcx1YUxep2m7d9RORHV/KQvnl1TaXpkorVgrKFrPqdgZo7DQ26vUOB5v2/NJ70TDg8PjCOQnn+UBnbURzH2tu+qa0rN7V7/Jiq+YIs09Reu6PzL5/X669/4xOE9w8+VH/UyMMoSjpgyzC0u7smSdrfv6lCoazhsK9Op6Hd3TW12zV53u112H4UhGGgfr+THKeKQvX7LbluXlm3IFXnZVmWstlCspDq2jItS1nbUcF1tTg3rdrMvho7TdmuLStjKjtI/ttstpAc6fKHCoJkjOP4Xv/R18LddxaPouQ69Ue7+1bGnuz6e8Ok2iKKQ/ne8NDOLfr9jjY3L2rt7A3dPLaici6naj6v6cVpFSoFuW5udGwpp0plVrZra3pxWs89+4SOzswo7zgyTVPPHj2qtc/s6/yNDe1t7ivwAg17Q7X2Wxr2hvIGQ7Va++p2G+p06pPjDh//nhtaXX1CX/nZn9dX//KPa7ZUVrFa0NkXz+nE/meTxpveQNJgUi2QfG7dzVGMgz+ThZ1HGwEewAMRRZE21i+o3+7piSOfVXc4VL8zUGWuonatPdn5ONz8JWn4ZMkc7aSPO8OGYTAZBTZ+IHq/cbDzgrsP74ZhKpstKJstqt9vT7pBW5Yt23YmIT75uYNQHyvWcNhTfauuXqun7nCYdEz2kpLZS5df09Ab6FH9AI7jWK12TZuXNrXTaqmSy6vguvryyVPKOa4CL1C71lK7U5/sjh2cTT04D684VhgdHI8YPxj1+22de+9lzR+dVxTFKrpZrc7M6M0bN/Tt33lBL738R3fV2XtcBj0O6OMFm1JpWrlcUWHgazjsa+j1FceRTNNKuhsbhkqlaZWmSyrPlrU8NaWMaWprr6br713XtWvv6FG9Fg5rt2uq7W/KH56Wk3VVmk4qcob9ocIoGDWFTB5bDs4pG5Nz72PJP0eKlZTJx3GsKAzU6TS0fmFdW19oaqlalWEYevnyZX33j76p9fXzutsH6fF1cVDWbx1qvPjB4x9Jk8tkYadW21Iu11GjsT0ZnxkE3uiBn2viMM/rq9czlcsVZRpJT5NMxlEUBfK8gUzDUrGUkyQ195ramW+q73lq9/oKw0jdVledRke9blNRHE5+veclxyoOqiSC+3acZbw4YBqmgvGklEPX9FgUs/t+WBSF2ti4pHe/+56ml2bU7PfV7Q9U26pp0B3IMEy5bn7yORz6oaYWpzRXKmmuVFLGSr4n846jvOtqtlTWzmpLfhBofb+mq29fUXMvOT7j+wN53nD0z94PbSRp246OHn1Kxz9zTLaVkR8EWlicVePEkjqNjur1xzUYdNVs7imajAk8WOy9u071XBePOgI8gAck1t7+pjYubar8izk9NjenKI7VaXTkru8pY9mHmvwMJztptu2Odrgd5fMVlcszkqRa7aYajZ3RecLoUOlh8hB0uBP13UlC1/z8MRUKZdVqW5MxX46dle24Mg3zli7649163/e0X7sp183rxrkbmj82r4Hn68qlNb3+wkva29vQo/0BHKvR2Nbzf/wHeuyzj6nwc1/VQrkiSVqdntbxZ46r3+lrOOzL94ejh+zBLQ/W42sl2ekch/ok1Pn+UK3Wnl779re1c2NHtmvrynRJ73znHb344u9PStrvhGGYsm1n9M/RJKA7Tlal4lTS4bjfkR94ymTsW8YSFfIVFYtV5ct5HZ2b1VKloiCKNBx46rZbkwDxqAsCX/XGtkI/0MzKjE6dXNX19S2tX9yYPERbVmYU3g99v0++9w86So8bg0nJ7m0y8zlQu97RVr2hwfKyLu/s6Ht/+KJee+1Pb3ue9K0Ojk9kLHsy9tAyLckwRouS0uHjH5OQOLrP9XotBYEn0zBljmZPh4H/iHce/3BRFE5GymUyttwoP2kIqHLScdzMmPIHvtYvrCvwAuWKOQ17Q21d29Lexq56vab6/Y7CwJfn9Q8tCHujBeGPru66V+I4VhD6k4Un2xh3vh836tTkdeHA7u6a3njjzxWGgeaPLsgf+Ar8QIEXjL7Xkgq5waCrYW+oQXegZq+nVj6vvOvIydjKWJYKrivLNJUxTe212yrls3JzrmzXVhj6Ggy68rx+8nlzmw0EK5U5OTlHXhDItixlTFO5YlbZfFYLC8dVq91UHMeTRr1hGCTf5/I/pMricPVOfMvP303vBfxoIsADeGB8f6BXnv+Wrv2N/1An5uf13PHjurp2U7WbNU3dXFKrXVO325LnDRRFoWzbVTZblOvmlMuVVCxUVChWJSU7+kHgKwz8yU7swez3u/2AGzUf06hr/qnndPToU5NZ9JKSD3Qj2QUaC8OmJMkcBYjxjPtWu6a99T1defOKrhpX9dKffEc/ePXrj/Rc5zHfH+rcuRf1B/90RbliTj/7pc9rtlRSwXX11OoR1TZr6rVOyzAs1etb2ttbV6ddU6/fTkYNjhoUvv+B2zAMxVGkXq+lre1rctycXvrDjIpTRf3ge8+rVtvUnS6ejEO4RnOB/dGRDNPMKJOxZZiWHDsZe5gZdkcjwJxJh+liaUqWbWludU6fPXpUWdvWXrut1m5TV6++dY+/sukVx5GuX39Paxe/oJ/4q1/RE0tLKriurr1zTVtXysrlSnLdvIbDngJ/MlhdseJJI7txoL4l/Iyah0lSt9FV6Aeqd7t659wVvfLNF9Ru127r9Y13/ZMO1R9cHDz4uaQSJwrjyRQM6aDx3vi/MUZjJw3DUBRHGvY7CkNfvV6b0umPkCzcecnxFD85YlUqT6taXVA+X1YcRuq1e+rU26pt1pSxLQV+qFajrnp9OzmLHPgKo0CNxo76vbY8f6ho1K/i7kuab1esONbo+FQwWYCSkuvC94OkAmPYf6SbWn64WDdunFWjsSPHSfqmTPrmxElpuuvkZNtZ7e9u6eIPLspxbd1caejY7JwWK2VVcnlJUqPb1Y39fe212xr4vsxMsmsvJYso42kX/m0spI2vScMw5AWBCq4r17Y1tTithePzMkxD3e5TymQcdTr1SX+fwbArDW8drfpBtx7FIbxjjAAP4IGJoki7u2u6dPGGvnTypLK2rSdPHNXaueTca363pFyuqDhOQlkm44xK2AvK50oqFKvK58pyXHdyvnjcqTcI/MkD9PhB7E7G7xijUF4sTqlYrGp5+bSeePZzqs5Xde3tq3LdvHx/mKygj7rUZrMFlcozctycvOGhXVTDlG1nlc0WlCvmdPPKTW1eXdN7731XrdsMC48CzxvoB69+XUf+3QkdWV3Qj588oaKb1fG5Ob05XVKulNP0woxM01S/31a325w8wCTjuOwPVF6MZ4MbhqnAH6rZ3JUhQ833dnX16tu3vatlmsmZ2umpRZUrcyoWq9rdXVO321QQHJRVmmYmKYscVYs4TlLCmyww9WSalnzfk2macnOOLNNU3/N07uZNnX3pnNbWzj3yY6IOGwy6Onv2RfWav6Sc4+jE/Lzmj85r7dyasrsF5XLFyQLY4c7h43uF4+QURYG63ZZ8f5As9IyOPXjeUN12R91WT69euKRzL53T22+/cFtBKRkPmZedcWRlkqkZ4yM8UlLyLI2OcYwCoGllRseApDB8X9jXQbl9HMfyfU/DQVfe6B7zaFfofLzx2EDbcVUuJeG9XJ3WoNtTq7WncFSdMz4X3e931G7vj840J40QozDpRTD0+pMd0fsf3m/9O0w+r6JA8qUwCkafY9E9arD5oycIPDUaO0mVk2Wr2dxNql6sjBwnK9vOqj/oqN9vyfveQLtruzr61FFtPXtCT5xMxon6YaA3b6zpxuUNdeptuTlXta269m/uJ5VegT8qbb+9Z4goitRu1xRFsZxMRjnHkWUaOr20KGc0cWd2cVGmaanTqWsw6KrV2lO9vq3JSEwdlNaPfXRY594AAjyAByiOY21tXdXXfv0PdPzEir5y+rQWKhUdf/q4Oo2OBt2TMk1L7fb++84ZZ5UvVFQqzWhudU6l6ZI69VlJGj0gm6Mu95GiMNBg2L2j8sNMxtHU1KKefvondfz0aS2fXtHyqWVJUmO7ru3rec3MLMmyMpOuxUHgyzIzKpWnZVmLardr6nWTnXjbyWp29oiOHD0lJ+uotd/S+vr5UdMqPnwPa7X39er3v6Gn/8LTeny04xpEkTK2JduxFUWR+r22ojAc7WwnHbxt25FtZ2WNglWxNCVJ8r3hqFw62Sn3vIG2tq+qVtu67Z1W23a1vHxKzz77M3r8x56Q7dqq79R1/ewVbW5eVLfbGlVlDEd/jqfBoCNJo94N0WiOc3LGcTDoqN/tKQpj7Xfa2mq29N1//6pe+/4Lj3z3+Q+Ktb52Ti9/7SV9+dkntTo9rfmjc5o9Mqvm3rJ6vZbCMJBl2ZOu4Y6T09zcqubmVpXPlVWr39TNm5cni2phFMp186PO3oEuvHpBpmXq+9/4hjqd+m29KsvKKJ8vTapsQsseNbU8PLbuoLx1HDB8f6DA90b9GQ71ctBBtVAYJruufuDJ9wfssv0QyfdXKNvOKmM7yT15N1ms6/c76vfbt9wrPK8/um8PJz1TxveHcXi/2ykln8R45zUIfEVmlCxGj64Hdt8/WhSF8rxIpulPqu6SBX1fdibpjeP7njrtumq1m9pcu6rtq9vq/UxfnScH2m00dfHVi7px9oY69Y5ypZy6za7a7X212zUNht3RNXJ7zxBxHGtz85I2L29q5bElOdZBD4wjMzPaXJ5Va78l27E17c2p1+qpVivfctxvfGxw/L0fjSoKxwvU4z+HewPGCPAAHqBYg0FXr7zyNf3eP11V6e/+NZ1ZWtLnT5+QaRoqz5RVeq+odr2jbrs1KpX1JMNIusvOVrRyekVTC1Nq11oK/ECGkm7f3W5D3rCvXr8tw+vfwQedoUzG0ec+9zP6xb/1y3r8icd0ZHpaBdfVexsberfZVbaQ1fTsorLZggzDUhyHSbOyYU+ZjDOZ2Tt+ACuXZzQ3t6r5Y/PqNDra2rym9fXzdJX+CFcuv6G3nn9Lq0+s6rn4uLrDoYJROaPtZFSempFhmnKzBfX7rcnulOO4yuXKmp1Z0fzRxaQ53m5T9fqOPG+gXq+len1LvV5brebube905/Nlfe5zf0m/+g/+Cx2ZmdHFjU3dePeGbCfpWr2/v6ndnRvqjRobjh+0zNE5+fcf5UjmCg/UbXX10uXLOv/KBX33D76pS5d+wDnXDzH0BvrG135TZ774uP7aL/y0nlxeUe1zdfWa3cnxiXZ7X5aZUcZ2tLBwXMfOnNL04pSyxZyuvn1VlpWZhCNjNBs6ny+pWK5o4+KGtm9e1/nzL9/2NTFejDGtpEmlRqX0kiZhy5Ch2IhHRyucpMFaGCg0Q5mKb30gN5IReUl4HJVNe/17PC/6R1U8amjXUr2+rX6/MzlfnNyHfZmmOTlvPP658Xs9Hgs2DvIPdhrI+0uiDxYUxlUAhPfbMd4dv/Vc+PjHIPDVtyx1ug31+52kumUw1Pb1bTV2G1o/f0P1xrY8r69CoTo5djM+wjJeBLjd17KxcVGXX7ukE888Nmma5weBHNtWvpzT7MqcTMsajTL0VN2rqFCoqFic0vb2NTWbu/L94S0jBKMwmFTqjD8nCPAYI8ADeMBi1etb+vOv/ZbKM2X97b/zKzo6M6OFSkXnFud1/tiC9jf3tHFhQ97Q16DT16A7kJmxNH90Xssnl7R6ZFG7jaa6zZ6G3YF6/bZM01TXbGk4OTt4ux90yflYQ4ayxZyOzc5qvlxWGEWaK5VUmatoZnlGhmGoMldRNp+VaRka9obJ//pDRWGsanVO3W7STb9Uqmru2Lxyxax2ru/o6tW31W7v38FrerQMvb5e+u7XNb04Lf8/8lUq5FWuFrVwbF6WbWnQ6csb+GrX2hp0BwqDUIGfPOxm81ktnVjSzMqMvL6n6+9dlyT5fnKkYm9vXa3W3qjr/+1ISuGrc1NanpqSHwQatJNgVagUVJ4pq92uyXXzSemrJMfJynGyssyMTCsjb7SAlOyiJLssURTqyptXtHZuTe++9Ibeeec76nQa9+PL+SMg1s2bl/X7v/6bWn18VT/91JP60rNPysk6Kr9aVvXqlLqNrnzfU3mqrKNPHdP80XmZljkaE2YpW8hq2Bsq8Hw5WVfZgjt6MI61de2mrlx567YrMqSDMWalYlLpYRjJwl9yXjaYhEPTsGRZljKWLdfJJkc9vL4C31MQ+reU/UuaHAfwhoT3OxFF4Wi2tp90HzcziuJwMrHCsjKT0XDjhqbSrc1Nb93RvNdf9w9rRPbB0YIHO+7j18L7f2fGRxEMxfHBMbpxN3rfG06OvrVa+zr7zqsyDEPDYU9hGIzu3TnZtqvhoJs0wBv2Dj1H3J7hsKdz517R5zefk3XmMTmWpaxtq+95cnOu8pV8UupvJxU82WJO5dmyVrvHtXXttBr17cl5+ygM1O7U1WzsTDYKhl7/Lhtt4kcVAR7AAxeGgTY3L+rr//bfKFfM6b/5r35JS5WKvvDYY1qdmdHNRkPXnjqmtXNr2r62rWFvKMOQphanlCvlVcpm1c97KlYLKk2XVNiuqF7fSsa/jMrb70QQePrBa3+i8j+b1sI/mFGj11XWdjQMAq0sz8stZNXaa0mSsoWsbCc519ZpdtWutRX6SZAL/HC0kh/Ksiy19lu6evkd7excZ6f1h7h27W39+R/8jjJORmd+7IyOHVtS5fHjWjm+NNlh2dupqdvsadAdyBsk58rzlbxmj8yqWiqq0WzLG3jK2Bn5nq8oDHXlyht3NJLLGDWqu3zuXf35n76obCGrm5c31Wl01W/31Gsn5bhWxh49+GXlusmPkuTGOQ1HVRmHd1z39zfkvzpUv9/R+vp57e2ts9P2MXx/qLfe+pb+7f92XGf+0d/Vifl5LVWrenNpTteubWr7+rYG3YHypbzmj86rUC3I63tyco5s11ahnFcUxTIMyXYdOTlHjZ2Gtq9taWvrimq1zTv++nteX2FUUibjyLZdGTKSmd2jKRTSQbC3HVeum5drGMrnS6NxVP5kmsJk13XUcT7Z7SO83YkwDDQYdJPSadsd7WZHo7F+1uTf39/kUjqomrj3oflgMsH49/+wMWEfXhbN+3/3kq/z+PjBuKmdYZijoylDdTp1maYp00j6YmQytnK50qjbfKT+oKNOpzG5pu7oT48jXbnyhtbO3pD3Fz6nozMzytq2WoOkE36v3VfohzIMKVfKK1vIyrIsOTlHZzpn1G/3FEeSaRmKwliblzZ08+qWtrevaXd3TRsbFyZ/T0AiwAP4lHjeQJcvv67f/CfJmc//7D//yzoxP6+FSkXz5bJOLSzozWpFb5im9jf3ZdmW3LybnDer19Xt9JMyVjuTjH7pd9Rs7qnbbd5VU7D9/U09//xva+XMih7/8SdUKOdVLheVdxydXlmWvXpEeddVKZtVxrIUhKF6nqe+5ykc7aoFUaje0NO1zW1de+earr13WWfPvqjhkDFhP0wQeLp86TX96e8Yyhb+hhZX5nRqYV7VfEFuJvmoqq10td1sKhi9v27GVjGbVTWfl2vbqnU6KpeLunr+RjLv+/qGOp3GHT2MxXGsbqehc+delH5TKhankuA17E/GPjlOVpZla3pqUaXylJycO66IVuAHajVqajb3lM0mFSFB4KvbbWp7+7qGg66arV3GhN2GbrepF174TS3/38v6b//er+rozIy+euaMnlxe1vbTTfWGnjKWJcs01ez1NMj7cjMZTS0vyT5jyrFtWYahIIq002rp7NBXY6ep69ffU7/fuePXE0VJ4zPHyclxcpOjM6aZXJ/j5omZjCPXycpxc6MxmKYMw1ImY08aWHW7TXnDvjxvvODIg/ndmJxfP9z8a/S1NHRwVOGgyWAyXvB+zXs3TXM0IcOYfA4lAf1g930c3g/w3t8bSYgfVzUcNDY1FI1GBVpWMv1hPLbR94aT5objEbZ320Sy12vrW1//dzrzxcf1xH+8rHIup4LrKmfbquTzOnd1Td7AU66YU3W+qulSUUvVqpxMRlEcybYyMg1Dfhjq8s62Xv/uO7r8RlmtF/cmZfXAGAEewKfG8wa6du1t/b//x/+ixnZdv/p3flnHZmeVdxyVc1l9ZmVFg8/7upixNOgOFHiB2rW22pLatba6jWTea7/fUbfXUqdT/0TBaG9vXc9/7Q/VaXS1cGxBC8cXkqZ5uZzmymXNl8tyMh+8bUbjc3dhqL12Wxcur+m9776rl176I7ValM7frqHX18WLr+rP/m1ydOHUz8+rnMtNAnzWcTRdKCQlsqYpJ2PJNExlLEumYWgqn9dcqaSpfF7b17a0sXFB3W5Dd/b1jzX0BgrqWzp79nuanT2iTCaZ/+44OWWzBRWLU8pYtuaOzKs8W5Hj2oqiWGEQKo4izXvz6rd7un7xkra3r6vR2FG325DvJ03KGBF2e+I4Ur2+rd/9l/+P4jjW3//v/6aWq8nRhoVKRVEcKYqloe+r2e/LDwK5dkZThaJytj0JSgPfV7PX08aFdb3+8vOfqPqh10sapOVyxVHptqVM1pFju7KdrLLZvLJuQbl8OWl6Z2YUx6FyhaLcnKut9RsaDLrqdVsaDLuE93sgjiMNvcEknI3L403TkmVak4W3wyMn70+5+sFZ7EmzQkMfGb4omb8f4lGfjKRppDRqLmnEMiaz4pOFNuNQ08hxVczh4zB382dfvvy6fvv//A09+7kz+vLJU8o6jhZsW5V8TrOlkvY7HQVhqILraqlaVSWfk20dPFPEcSwvDGVblvaeaOqd77yjvb11DQZdca3gMAI8gE9VGAba2rqqf/lP/6G2r+/oCz//nH7sK5/VUysryliW5kol7cyWNewN1dpvqbXfUq/VU3O3ofp2Q91OQ+vr59Vo7HziXc04jnT2ve9refm09jf3NegNFIWRStmsFitJeLdGZ1cPs5SE+IHv68VLl/T8bz2vb33rN7W3tyE+dO+M5w309lvfUulfTKsyW9Ff+ckvyS4UlLEs5UfnCiXJHJWpmsatO1uGYejG7p7OvnRWV6+8dZdHF5IHunp9W5430OLiCRULVWk0riiXK2r2yKye+NITOnr6iKYK+VE5daydVksbF9Z14+ya8vmK2u19NRo7h4I718OdiKJQ29vX9Pv/5p+pUC7o137tV7RYKcu2MsoYycJN1rZVcJOO4+Md+fF1EcWxIs/ThWvrOvvSe7p8+fVPdJ+I4yiZ0z6aNlAsTo3G12VVLFZVLs9qenZB04tTsrOO4iiWYRpyc0n1UKfRmZxxpWz+XopH3+sH5etJU7JAD65EfTzjPQmAlmmNftaUYUSTBQSC+/0WT45STH5mNAEiOVoRShofd9OhaoxP/r74/lCvv/4N/aO/P6///df/R52Yn5dtWSq4WZ2Yn9fy1JTCKJJtmXIy9i33qjCKNPR97bVbevnSZb30hy/ptVe/of39TUaN4gMI8AAeArFa7X394R/+X3rzjSe0/kt/XZu/8CV99mTSkdwZPfx2m111m13Vb9a0u7uhWi0ZF9Vu7d9Bk7KPN/T6euGF39LU1KKi6Gfl9T2Vpkt6cmVFwaGd08PhMYwi1btd/as//qa+/dsv6Bvf+BdqNHbEQ9rdGXp9fe+7v6Ptrau6+J/+df3tX/sVrU5Py7VvfeAZi+J49B509G++/ry++a+/qW9981+pdQdNyj5MFIVqt+uK48s6evQplUvTsm1X5ZmyZpZntPjYop4+ckRHpqeSDuSKtdtq6/n+UFfevqrz51/S1tbV0REKroW7FYaBbt68pN/4x/9Qjd2GfuKv/IS++MQpzZfLmimWZJmmbMv64K+LIrX6ff3J22/pa//ka/ru935H3W7rHryieHK/cd38aESdqWJxSpXKjI49dVTHnj6uqYWk4V2v1VOn3lHt5r76/bZa7dpo54+S2Hvv0x61FU8624fG+zuHcw94cOJD1RbJ58X7KyHu1/syGHT0rW/9a/0Pf6+iv/c//239+IkTk3vUeAPg8ALj+McgDLXZaOiPvvmivvO739F3v/272t1d47gVPhQBHsBDw/MGunzlTf3GP7mq73zjc/rZv/qfqDJXkWVZ6tTbqm/VVdva09b2VW1uXlSttjUZFXQvdTp19ftt+f5Q3e5X5eZduXlXXzx1Uk7GUhBGytq2XDujKJau7Ozoj3//Bf3eP/8NXbzwioYeZ94/qaHX14WLr6r16zV16h39zb/7Kzo+O6tSLifHsmSapqIoUs/z1BkM9MLZc3r166/oT37nt3Tl8hv38D2I1ek0dO3a2zp+/BllcyWFYSg37yrwA1mmqYyZvB4v8NUZDtTYaeqdl1/V+vr5SZdxfDJhGGh7+7r+1T/7X/X697+iL//MX9JzP/ecfuHHn9NUoSjzUID3w1B9z9ObN27o28//QH/8//2u3nzz36vdruvePazHGnp99fttVavzMk1Ttp3V1NK0Vp88qmeePKnFSkXNXk/rTl3dZldr59Z07drbajS2aWr5I+/TXkjAgVtHzD0I/X5bv/97/1g3rp3V3/qf/jv94k/8mAquK9Mw5dq2ojiWHwTq+/5kY2Cn1dKffftV/fE//wO9/PIfqdHYYZEPH8mIucMAj7wPNtV5GBhy3Zymp5dUrc7LG/bV6TY0HPaTbvPe4AGUoBpyHFfl8qyefvov6vFnn1HGycjJOoqjSIEfqtvo6J3XX9bZs98fjQV7OG+pd3Krf5iuB8MwlcsVtbJyRidOPKvHnjylY585rpnlaRmmqeZeUxdfvaiXn/9znb/wsnq9tu7Xe5DJOMrny1pcfExPPfVVfeWXvqLHP3tSZxYXZRiG3rpxQ9/5d9/Tn/3eb+vy5ddH3e8fTnf60f+wXROFQkWzs0f0K//1r+nnfvkv6vGlJbm2rWavp3fW1/Xyn7yi155/SWfPfl/b29fv6y5WNlvU6uoTmp17QCk6AAAMQUlEQVQ9opXVU3r2p57V8WeOa7pU1Ll3r+jd77yjc2+9oYsXf6BabfOhDe9pvUfg/uB6+ORM09LCwnH9/C/8l3rmp57RZz57Wp9dXVUUx3r16lXduLyh5m5T9e261i+s643Xvqkb198dVfg8XM8SxMWHCwEeQEo+fA192h9oSYdpW5ZlHxpDFMn3vYd+pTz9D2PGZL5zNltQpTIrzxuq1dqT5z3YcuTxosLS0kmdOfNFlatTatZrunr1TW1uXrrrSQgPUpoD/AFDmYytublVPfHEl5XNFtTrtbS+fl5bW1fU73ce4PuQLPaVStMql2dVLs/INDNqtfa0u7umTqf+I3VNPJzXA+4lrod7xZBtOyqVpjU7e0SnT39B1dkZXT73li5ffkN+kIyhHA66D2VwHyMuPlwI8AD48H0E8DB2P42/Xun5OP3RCPCHffoLfGnHPQKHcT3cLweNFh/2hf/DiIsPF87AAwDwifBg8+njPQCQBvRHwCf3wXlIAAAAAADgoUOABwAAAAAgBQjwAAAAAACkAAEeAAAAAIAUIMADAAAAAJACBHgAAAAAAFKAAA8AAAAAQAoQ4AEAAAAASAECPAAAAAAAKUCABwAAAAAgBQjwAAAAAACkAAEeAAAAAIAUIMADAAAAAJACBHgAAAAAAFKAAA8AAAAAQAoQ4AEAAAAASAECPAAAAAAAKUCABwAAAAAgBQjwAAAAAACkAAEeAAAAAIAUIMADAAAAAJACBHgAAAAAAFKAAA8AAAAAQAoQ4AEAAAAASAECPAAAAAAAKUCABwAAAAAgBQjwAAAAAACkAAEeAAAAAIAUIMADAAAAAJACBHgAAAAAAFKAAA8AAAAAQAoQ4AEAAAAASAECPAAAAAAAKUCABwAAAAAgBQjwAAAAAACkAAEeAAAAAIAUIMADAAAAAJACBHgAAAAAAFKAAA8AAAAAQAoQ4AEAAAAASAECPAAAAAAAKUCABwAAAAAgBQjwAAAAAACkAAEeAAAAAIAUIMADAAAAAJACBHgAAAAAAFKAAA8AAAAAQAoQ4AEAAAAASAECPAAAAAAAKWDEcRx/2i8CAAAAAAB8PHbgAQAAAABIAQI8AAAAAAApQIAHAAAAACAFCPAAAAAAAKQAAR4AAAAAgBQgwAMAAAAAkAIEeAAAAAAAUoAADwAAAABAChDgAQAAAABIAQI8AAAAAAApQIAHAAAAACAFCPAAAAAAAKQAAR4AAAAAgBQgwAMAAAAAkAIEeAAAAAAAUoAADwAAAABAChDgAQAAAABIAQI8AAAAAAApQIAHAAAAACAFCPAAAAAAAKQAAR4AAAAAgBQgwAMAAAAAkAIEeAAAAAAAUoAADwAAAABAChDgAQAAAABIAQI8AAAAAAApQIAHAAAAACAFCPAAAAAAAKQAAR4AAAAAgBQgwAMAAAAAkAIEeAAAAAAAUoAADwAAAABAChDgAQAAAABIAQI8AAAAAAApQIAHAAAAACAFCPAAAAAAAKQAAR4AAAAAgBQgwAMAAAAAkAIEeAAAAAAAUoAADwAAAABAChDgAQAAAABIAQI8AAAAAAApQIAHAAAAACAFCPAAAAAAAKQAAR4AAAAAgBQgwAMAAAAAkAIEeAAAAAAAUoAADwAAAABAChDgAQAAAABIAQI8AAAAAAApQIAHAAAAACAFCPAAAAAAAKQAAR4AAAAAgBQgwAMAAAAAkAIEeAAAAAAAUoAADwAAAABAChDgAQAAAABIAQI8AAAAAAApQIAHAAAAACAFCPAAAAAAAKQAAR4AAAAAgBQgwAMAAAAAkAIEeAAAAAAAUoAADwAAAABAChDgAQAAAABIAQI8AAAAAAApQIAHAAAAACAFCPAAAAAAAKQAAR4AAAAAgBQgwAMAAAAAkAIEeAAAAAAAUoAADwAAAABAChDgAQAAAABIAQI8AAAAAAApQIAHAAAAACAFCPAAAAAAAKQAAR4AAAAAgBQgwAMAAAAAkAIEeAAAAAAAUoAADwAAAABAChDgAQAAAABIAQI8AAAAAAApQIAHAAAAACAFCPAAAAAAAKQAAR4AAAAAgBQgwAMAAAAAkAIEeAAAAAAAUoAADwAAAABAChDgAQAAAABIAQI8AAAAAAApQIAHAAAAACAFCPAAAAAAAKQAAR4AAAAAgBQgwAMAAAAAkAIEeAAAAAAAUoAADwAAAABAChDgAQAAAABIAQI8AAAAAAApQIAHAAAAACAFCPAAAAAAAKQAAR4AAAAAgBQgwAMAAAAAkAIEeAAAAAAAUoAADwAAAABAChDgAQAAAABIAQI8AAAAAAApQIAHAAAAACAFCPAAAAAAAKQAAR4AAAAAgBQgwAMAAAAAkAIEeAAAAAAAUoAADwAAAABAChDgAQAAAABIAQI8AAAAAAApQIAHAAAAACAFCPAAAAAAAKQAAR4AAAAAgBQgwAMAAAAAkAIEeAAAAAAAUoAADwAAAABAChDgAQAAAABIAQI8AAAAAAApQIAHAAAAACAFCPAAAAAAAKQAAR4AAAAAgBQgwAMAAAAAkAIEeAAAAAAAUoAADwAAAABAChDgAQAAAABIAQI8AAAAAAApQIAHAAAAACAFCPAAAAAAAKQAAR4AAAAAgBQgwAMAAAAAkAIEeAAAAAAAUoAADwAAAABAChDgAQAAAABIAQI8AAAAAAApQIAHAAAAACAFCPAAAAAAAKQAAR4AAAAAgBQgwAMAAAAAkAIEeAAAAAAAUoAADwAAAABAChDgAQAAAABIAQI8AAAAAAApQIAHAAAAACAFCPAAAAAAAKQAAR4AAAAAgBQgwAMAAAAAkAIEeAAAAAAAUoAADwAAAABAChDgAQAAAABIAQI8AAAAAAApQIAHAAAAACAFCPAAAAAAAKQAAR4AAAAAgBQgwAMAAAAAkAIEeAAAAPz/7dcBCQAAAICg/6/bEegLARgQeAAAABgQeAAAABgQeAAAABgQeAAAABgQeAAAABgQeAAAABgQeAAAABgQeAAAABgQeAAAABgQeAAAABgQeAAAABgQeAAAABgQeAAAABgQeAAAABgQeAAAABgQeAAAABgQeAAAABgQeAAAABgQeAAAABgQeAAAABgQeAAAABgQeAAAABgQeAAAABgQeAAAABgQeAAAABgQeAAAABgQeAAAABgQeAAAABgQeAAAABgQeAAAABgQeAAAABgQeAAAABgQeAAAABgQeAAAABgQeAAAABgQeAAAABgQeAAAABgQeAAAABgQeAAAABgQeAAAABgQeAAAABgQeAAAABgQeAAAABgQeAAAABgQeAAAABgQeAAAABgQeAAAABgQeAAAABgQeAAAABgQeAAAABgQeAAAABgQeAAAABgQeAAAABgQeAAAABgQeAAAABgQeAAAABgQeAAAABgQeAAAABgQeAAAABgQeAAAABgQeAAAABgQeAAAABgQeAAAABgQeAAAABgQeAAAABgQeAAAABgQeAAAABgQeAAAABgQeAAAABgQeAAAABgQeAAAABgQeAAAABgQeAAAABgQeAAAABgQeAAAABgQeAAAABgQeAAAABgQeAAAABgQeAAAABgQeAAAABgQeAAAABgQeAAAABgQeAAAABgQeAAAABgQeAAAABgQeAAAABgQeAAAABgQeAAAABgQeAAAABgQeAAAABgQeAAAABgQeAAAABgQeAAAABgQeAAAABgQeAAAABgQeAAAABgQeAAAABgQeAAAABgQeAAAABgQeAAAABgQeAAAABgQeAAAABgQeAAAABgQeAAAABgQeAAAABgQeAAAABgQeAAAABgQeAAAABgQeAAAABgQeAAAABgQeAAAABgQeAAAABgQeAAAABgQeAAAABgQeAAAABgQeAAAABgQeAAAABgQeAAAABgQeAAAABgQeAAAABgQeAAAABgQeAAAABgQeAAAABgQeAAAABgQeAAAABgQeAAAABgQeAAAABgQeAAAABgQeAAAABgQeAAAABgQeAAAABgQeAAAABgQeAAAABgQeAAAABgQeAAAABgQeAAAABgQeAAAABgQeAAAABgQeAAAABgQeAAAABgQeAAAABgQeAAAABgQeAAAABgQeAAAABgQeAAAABgQeAAAABgQeAAAABgQeAAAABgQeAAAABgQeAAAABgQeAAAABgQeAAAABgQeAAAABgQeAAAABgQeAAAABgQeAAAABgIDcjB5IAK+UcAAAAASUVORK5CYII=;clipPath=inset(30% 9.33% 30.67% 24.67%);" vertex="1" parent="1">
          <mxGeometry x="20" y="-51" width="1008" height="600.7272727272727" as="geometry" />
        </mxCell>
      </root>
    </mxGraphModel>
  </diagram>
</mxfile>
